<?xml version="1.0" standalone="no"?>
<!DOCTYPE svg PUBLIC "-//W3C//DTD SVG 1.1//EN" "http://www.w3.org/Graphics/SVG/1.1/DTD/svg11.dtd" >
<svg xmlns="http://www.w3.org/2000/svg">
<metadata></metadata>
<defs>
<font id="nexa_xbold_italicregular" horiz-adv-x="1308" >
<font-face units-per-em="2048" ascent="1536" descent="-512" />
<missing-glyph horiz-adv-x="503" />
<glyph horiz-adv-x="0" />
<glyph unicode="&#xd;" horiz-adv-x="2048" />
<glyph unicode=" "  horiz-adv-x="503" />
<glyph unicode="&#x09;" horiz-adv-x="503" />
<glyph unicode="&#xa0;" horiz-adv-x="503" />
<glyph unicode="!" horiz-adv-x="589" d="M49 121q0 88 60 137t137 49q59 0 98 -34t39 -97q0 -88 -59.5 -138t-135.5 -50q-59 0 -99 34.5t-40 98.5zM121 385l186 1055h268l-186 -1055h-268z" />
<glyph unicode="&#x22;" horiz-adv-x="866" d="M176 885l123 557h227l-129 -557h-221zM541 885l123 557h229l-131 -557h-221z" />
<glyph unicode="#" horiz-adv-x="1452" d="M25 276l43 240h217l159 375h-170l41 235h226l131 308h274l-131 -308h223l133 308h273l-131 -308h147l-41 -237h-207l-161 -373h161l-43 -240h-217l-116 -276h-275l117 276h-225l-117 -276h-273l117 276h-155zM530 502h258l175 405h-258z" />
<glyph unicode="$" horiz-adv-x="1437" d="M18 311l240 105q36 -101 146.5 -162t242.5 -61q80 0 148.5 12.5t128 40t93.5 78t34 118.5q0 149 -334 187q-73 9 -129 19.5t-118.5 28.5t-107 45t-82 64.5t-56.5 90.5t-19 120q0 87 32.5 162t86.5 128.5t126.5 93.5t150.5 63t161 33l31 174h260l-31 -178 q305 -50 377 -281l-240 -102q-28 66 -120.5 110.5t-198.5 44.5q-72 0 -134.5 -11.5t-114.5 -35.5t-82 -66.5t-30 -99.5q0 -28 11 -51t33.5 -39t47.5 -28t63 -21t70 -14t78 -11q64 -8 115 -17t110 -24.5t103.5 -35t87.5 -49.5t71 -67t45 -88t17 -112q0 -94 -32.5 -174.5 t-87 -137.5t-128.5 -99t-155.5 -64.5t-169.5 -28.5l-37 -204h-260l35 194q-167 15 -298.5 108t-179.5 242z" />
<glyph unicode="%" horiz-adv-x="1652" d="M94 -2l1198 1438h289l-1196 -1438h-291zM164 1090q0 68 27.5 134t76.5 118.5t125 85t166 32.5q137 0 210 -78.5t73 -191.5q0 -67 -27 -132.5t-75.5 -119.5t-125 -87.5t-168.5 -33.5q-139 0 -210.5 79.5t-71.5 193.5zM367 1118q0 -47 28.5 -79.5t83.5 -32.5q71 0 114.5 48 t43.5 111q0 48 -28 78.5t-83 30.5q-71 0 -115 -47.5t-44 -108.5zM852 262q0 68 27.5 134t77 119t126 85.5t166.5 32.5q137 0 210 -79t73 -192q0 -53 -16.5 -106t-50 -101t-80 -84.5t-111.5 -58.5t-139 -22q-138 0 -210.5 79.5t-72.5 192.5zM1057 291q0 -46 29 -79.5 t83 -33.5q71 0 113.5 48.5t42.5 111.5q0 49 -27 78.5t-81 29.5q-71 0 -115.5 -47t-44.5 -108z" />
<glyph unicode="&#x26;" horiz-adv-x="1464" d="M66 356q0 133 81.5 238t202.5 145q-89 40 -122.5 124.5t-16.5 178.5q16 88 61 159.5t107 118t139.5 78t155 45t157.5 13.5q79 0 148.5 -12t133.5 -42t106 -75t61 -116t4 -160h-254q16 92 -54 135t-190 43q-145 0 -224 -56.5t-91 -130.5q-7 -45 7 -81.5t40.5 -58 t62.5 -36.5t69.5 -20.5t64.5 -5.5h671l-36 -213h-123l-37 -209q-11 -79 22.5 -122.5t108.5 -39.5l-47 -258q-242 -25 -262 168q-145 -184 -447 -184q-83 0 -154.5 11.5t-136 39t-110 69.5t-72 106.5t-26.5 147.5zM340 403q0 -180 264 -180q40 0 90.5 11t104 32.5t93.5 62 t50 91.5l37 207h-315q-150 0 -237 -69.5t-87 -154.5z" />
<glyph unicode="'" horiz-adv-x="497" d="M180 883l109 549h227l-119 -549h-217z" />
<glyph unicode="(" horiz-adv-x="714" d="M77 330q-20 167 12 341t112 330.5t211 296t301 240.5l102 -168q-125 -75 -225 -188t-163.5 -242.5t-91.5 -275.5t-16.5 -284.5t69.5 -272t159 -236.5l-160 -168q-133 134 -211.5 297t-98.5 330z" />
<glyph unicode=")" horiz-adv-x="727" d="M-80 -72q500 347 500 883q0 175 -61 334.5t-177 265.5l150 166q165 -125 251.5 -332t86.5 -430q0 -322 -163 -595.5t-489 -477.5z" />
<glyph unicode="*" horiz-adv-x="845" d="M184 1155l90 191l177 -72l24 192h195l-56 -196l213 76l21 -191l-203 -39l115 -160l-174 -114l-92 178l-152 -178l-135 114l164 160z" />
<glyph unicode="+" horiz-adv-x="1032" d="M92 602l41 223h301l53 305h238l-53 -305h305l-41 -223h-305l-53 -311h-238l53 311h-301z" />
<glyph unicode="," horiz-adv-x="512" d="M29 92q0 73 47.5 114.5t111.5 39.5q76 0 113.5 -49.5t1.5 -137.5q-5 -14 -17 -37.5t-44.5 -87.5t-67.5 -135h-141l76 203q-37 6 -58.5 30t-21.5 60z" />
<glyph unicode="-" horiz-adv-x="1011" d="M104 477l41 230h756l-41 -230h-756z" />
<glyph unicode="." horiz-adv-x="516" d="M29 109q0 80 54.5 125t123.5 45q52 0 88.5 -34.5t36.5 -92.5q0 -79 -53 -121.5t-123 -42.5q-55 0 -91 31.5t-36 89.5z" />
<glyph unicode="/" horiz-adv-x="1058" d="M-72 -168l990 1737h249l-991 -1737h-248z" />
<glyph unicode="0" horiz-adv-x="1456" d="M100.5 356.5q-18.5 100.5 5.5 229.5l48 258q28 154 101 275.5t173 195.5t215 112t238 39q97 1 181.5 -22.5t155 -72t115 -122.5t60.5 -175t-7 -230l-45 -258q-27 -155 -95.5 -274.5t-166 -192.5t-213 -110t-245.5 -38q-95 -1 -179.5 21.5t-157 70t-119 120.5t-65 173.5z M375 586q-34 -191 38.5 -277t248.5 -86q54 0 105 12.5t100.5 40.5t89.5 69.5t70 103t44 137.5l47 258q34 188 -41 278t-243 90q-72 0 -137 -22t-121.5 -65.5t-97 -115.5t-56.5 -165z" />
<glyph unicode="1" horiz-adv-x="909" d="M0 0l41 229h256l156 881l-256 -66l43 238l534 168l-215 -1221h238l-41 -229h-756z" />
<glyph unicode="2" horiz-adv-x="1390" d="M6 0q13 70 36 199.5t32 179.5q14 83 48.5 150t85 112.5t109.5 78.5t130 51t139 26t143 8q350 0 350 235q0 175 -258 179q-84 0 -157 -19.5t-130.5 -66.5t-72.5 -115h-268q31 122 98 209.5t157.5 135t187 68.5t206.5 21q114 0 205 -22t162 -69t108 -128t33 -191 q-15 -477 -664 -477q-51 0 -101.5 -8.5t-105 -27.5t-93 -59t-48.5 -95l-23 -123h895l-45 -252h-1159z" />
<glyph unicode="3" horiz-adv-x="1394" d="M59 420h267q-8 -47 8.5 -84.5t46.5 -59.5t72.5 -36.5t81 -19.5t77.5 -5q49 0 95 5.5t96.5 21.5t87.5 41.5t61.5 68.5t24.5 99q0 32 -13 60.5t-42.5 55.5t-86.5 42.5t-137 15.5h-223l39 221h207q58 0 110 8.5t99.5 27t79.5 53.5t41 83q6 34 -3 65.5t-35 61.5t-83.5 48.5 t-138.5 18.5q-51 0 -102.5 -10t-101 -30.5t-84 -56.5t-42.5 -83h-271q19 111 83 195.5t155 132t191 71t206 23.5q76 0 147.5 -13.5t137 -43.5t114 -73t77 -106t28.5 -139q0 -123 -70.5 -218.5t-185.5 -129.5q84 -29 135.5 -101.5t51.5 -162.5q0 -113 -40 -200t-105.5 -141 t-157.5 -88.5t-186.5 -47.5t-203.5 -13q-85 0 -163 14.5t-149 48t-119.5 83.5t-70.5 126.5t-6 170.5z" />
<glyph unicode="4" horiz-adv-x="1368" d="M16 272l25 275l903 885h309l-157 -906h168l-47 -254h-168l-48 -272h-266l47 272h-766zM338 526h491l99 570z" />
<glyph unicode="5" horiz-adv-x="1339" d="M74 432h268q-10 -56 12 -97t67.5 -62t95.5 -30.5t106 -9.5q52 0 104 12t101.5 37.5t85.5 71.5t47 107q11 58 -8 101t-61 66.5t-92.5 34.5t-109.5 11h-543q20 115 65 367.5t69 392.5h1028l-45 -254h-770l-50 -256h289q117 0 214.5 -29.5t169 -87t102 -152.5t8.5 -217 q-17 -95 -61.5 -172t-107 -129t-141.5 -87t-162.5 -50.5t-172.5 -15.5q-98 0 -179.5 14t-151.5 47t-114 83.5t-62 128t-1 175.5z" />
<glyph unicode="6" horiz-adv-x="1427" d="M109 457l94 534q20 117 81 207.5t151.5 147t201.5 85.5t237 29q120 0 219.5 -24.5t174 -74t107.5 -133t14 -192.5h-265q11 60 -29.5 105.5t-108.5 66.5t-148 21q-84 0 -161 -26t-135 -81.5t-71 -130.5l-39 -213q58 70 163 111t196 41q81 0 154.5 -14t140.5 -46t116 -79 t78 -117t29 -156q0 -113 -41.5 -205.5t-109.5 -153.5t-158.5 -103t-185 -60.5t-193.5 -18.5q-89 0 -171 18.5t-152 58t-118 95t-68 135t-3 173.5zM373 422q0 -97 82 -150t209 -53q97 0 179 28.5t136.5 91t54.5 148.5q0 97 -79 152t-205 55q-157 0 -267 -72.5t-110 -199.5z " />
<glyph unicode="7" horiz-adv-x="1153" d="M68 0l792 1176h-698l45 258h1053l-11 -144l-870 -1290h-311z" />
<glyph unicode="8" horiz-adv-x="1443" d="M72 432q19 92 91 182t183 131q-68 40 -101.5 103.5t-33.5 136.5q0 113 51 204t141 150t209 90t258 31q144 0 259.5 -42.5t186 -130t70.5 -206.5q0 -103 -62 -196t-175 -137q85 -43 124.5 -117.5t39.5 -157.5q0 -104 -38.5 -189.5t-104.5 -143.5t-156.5 -98t-193 -58 t-214.5 -17q-93 1 -177 16.5t-159 51.5t-125 88.5t-71 132t-2 176.5zM354 428q-16 -91 56.5 -153t240.5 -62q170 0 273.5 71t103.5 169q0 88 -84.5 132t-218.5 44q-88 0 -165 -20t-135 -67t-71 -114zM492 1012q0 -82 76.5 -129t191.5 -47q129 0 224.5 51.5t115.5 142.5 q19 90 -57.5 146.5t-213.5 56.5q-152 0 -244.5 -67.5t-92.5 -153.5z" />
<glyph unicode="9" horiz-adv-x="1425" d="M74 401h260q-9 -56 13.5 -95t70 -59t99.5 -28t116 -8q127 0 240.5 69t130.5 169l32 210q-57 -69 -161.5 -110t-196.5 -41q-81 0 -154 13t-140 43t-115.5 75t-77.5 113.5t-29 154.5q0 107 41 199.5t109.5 156t158 109t185.5 67t192 21.5q89 0 171.5 -18.5t152.5 -57.5 t118 -94.5t68.5 -135t3.5 -173.5l-94 -535q-21 -115 -87.5 -207t-161 -148t-203.5 -85t-222 -29q-96 0 -179 15t-153.5 48t-117 81.5t-66 120t-4.5 159.5zM432 950q-4 -97 72.5 -152t202.5 -55q157 0 271 73t120 200q4 97 -75.5 150t-207.5 53q-151 0 -264 -71t-119 -198z " />
<glyph unicode=":" horiz-adv-x="548" d="M43 111q0 78 52.5 123t121.5 45q51 0 87 -31t36 -88q0 -79 -52 -123.5t-122 -44.5q-53 0 -88 31.5t-35 87.5zM147 698q0 78 53 123t122 45q51 0 86.5 -30.5t35.5 -87.5q0 -79 -52 -123.5t-122 -44.5q-53 0 -88 31t-35 87z" />
<glyph unicode=";" horiz-adv-x="561" d="M47 92q0 93 73 136t146.5 13.5t73.5 -112.5q0 -29 -12 -58t-71 -146q-39 -75 -64 -126h-142l74 203q-36 6 -57 30t-21 60zM158 698q0 78 52.5 123t121.5 45q51 0 87 -30.5t36 -87.5q0 -79 -52 -123.5t-122 -44.5q-53 0 -88 31t-35 87z" />
<glyph unicode="&#x3c;" horiz-adv-x="817" d="M78 629l6 30l553 467l131 -172l-379 -311l270 -309l-192 -172z" />
<glyph unicode="=" horiz-adv-x="1161" d="M84 293l39 225h885l-39 -225h-885zM166 756l39 227h885l-39 -227h-885z" />
<glyph unicode="&#x3e;" horiz-adv-x="817" d="M61 322l379 335l-264 310l189 159l389 -467l-6 -30l-553 -467z" />
<glyph unicode="?" horiz-adv-x="1241" d="M139 1004q40 222 201 334t412 112q101 0 189 -21.5t157.5 -64t109 -113t37.5 -161.5q0 -78 -24 -144t-59.5 -111.5t-94 -87.5t-109 -68t-124.5 -58q-14 -6 -42.5 -16.5t-42.5 -17t-37 -18.5t-36 -26t-28 -34.5t-24.5 -49t-15.5 -64.5h-254q8 79 30.5 141.5t52.5 105 t78 79t94 59.5t112 49q8 3 35.5 14.5t36 15.5t32.5 15t32.5 17t27 18t25.5 21.5t19 24t16.5 29t8.5 33t4 38.5q0 43 -21 73.5t-58 46t-77.5 22.5t-88.5 7q-105 0 -193 -54t-106 -146h-275zM291 129q0 87 59 132.5t137 45.5q58 0 98 -36.5t40 -100.5q0 -87 -59.5 -134.5 t-135.5 -47.5q-58 0 -98.5 38t-40.5 103z" />
<glyph unicode="@" horiz-adv-x="1912" d="M66 356q0 182 56 340t151.5 271.5t222.5 194.5t271 121t294 40q147 0 268.5 -28t219 -87.5t162 -147.5t94.5 -212.5t20 -278.5q-18 -262 -150.5 -430t-333.5 -168q-33 0 -65 10t-61.5 31.5t-42.5 63t-3 96.5q-24 -44 -67 -80t-90 -56.5t-91 -31t-79 -10.5 q-214 0 -328.5 117t-114.5 307q0 110 40.5 213t108 180.5t158.5 128.5t189 61q118 12 220 -19.5t159 -121.5l35 94l172 -26l-125 -713q-7 -37 16 -54t51 -9q95 28 157.5 143t74.5 295q11 140 -29 248.5t-124 177.5t-203 104t-269 35q-155 0 -295 -55.5t-246 -155 t-168.5 -247.5t-62.5 -322q0 -108 29 -194.5t79 -144.5t121 -96.5t152.5 -55.5t175.5 -17q165 0 307 78l52 -152q-188 -100 -396 -100q-113 0 -216.5 24t-194.5 77t-157.5 129t-105 187.5t-38.5 245.5zM641 446q0 -101 59 -167t177 -66q154 0 247 103.5t93 244.5 q0 101 -61 165.5t-179 64.5q-78 0 -143.5 -31t-106.5 -81.5t-63.5 -111t-22.5 -121.5z" />
<glyph unicode="A" horiz-adv-x="1597" d="M-92 0l895 1434h295l391 -1434h-287l-74 270h-749l-170 -270h-301zM532 522h533l-158 621z" />
<glyph unicode="B" horiz-adv-x="1488" d="M66 0l251 1434h680q199 0 309 -100t113 -247v-6q0 -67 -22 -129q-23 -66 -78 -127t-135 -96q108 -49 158 -145q34 -66 35 -141q0 -33 -7 -68q-20 -104 -79 -179.5t-146.5 -117t-185.5 -60t-214 -18.5h-679zM367 236h421q39 0 77.5 5t81 19.5t74 37t51.5 60.5q20 37 20 83 q0 59 -40 103q-38 42 -90 59.5t-108 17.5h-414zM483 858h414q123 0 191.5 54t68.5 132q0 72 -52.5 114t-150.5 42h-409z" />
<glyph unicode="C" horiz-adv-x="1433" d="M94 584q0 128 35 252t109.5 237.5t179.5 200t255 137.5t326 51q143 0 272.5 -61.5t205.5 -165.5l-199 -166q-57 67 -142 101t-182 34q-141 0 -256 -52.5t-186 -137t-109 -185.5t-38 -204q0 -64 14 -121t45.5 -109.5t78.5 -90.5t118.5 -60.5t160.5 -22.5q96 0 199.5 38.5 t185.5 107.5l152 -189q-250 -211 -582 -211q-167 0 -294 51t-201.5 139t-111 195.5t-36.5 231.5z" />
<glyph unicode="D" horiz-adv-x="1546" d="M66 0l251 1434h564q125 0 227.5 -32.5t171.5 -88t116 -132t68 -162t21 -179.5q0 -123 -30 -240t-97 -227t-164.5 -192t-243 -131.5t-321.5 -49.5h-563zM379 260h295q107 0 197 32t152 85.5t105.5 123.5t63.5 146t20 154q0 377 -376 377h-295z" />
<glyph unicode="E" horiz-adv-x="1363" d="M66 0q42 239 125.5 717t125.5 717h1074l-45 -252h-805l-60 -340h776l-43 -252h-776l-57 -324h805l-47 -266h-1073z" />
<glyph unicode="F" horiz-adv-x="1290" d="M66 0l251 1432h1031l-45 -256h-760l-70 -396h719l-43 -250h-719l-94 -530h-270z" />
<glyph unicode="G" horiz-adv-x="1525" d="M94 569q0 135 36.5 265.5t112.5 246.5t182.5 203.5t256 139t322.5 51.5q146 0 274 -56t219 -164l-199 -172q-59 68 -150 106t-187 38q-126 0 -238 -50t-189.5 -133.5t-123 -195.5t-45.5 -232q0 -82 19.5 -148.5t64.5 -125t129.5 -91t203.5 -32.5q91 0 172.5 25.5 t173.5 89.5l48 264h-369l39 231h614l-106 -604q-271 -258 -617 -258q-135 0 -244 32t-182.5 87.5t-123 133t-71.5 164.5t-22 185z" />
<glyph unicode="H" horiz-adv-x="1587" d="M66 -2l251 1434h271l-107 -605h705l106 605h269l-252 -1434h-269l103 580h-705l-102 -580h-270z" />
<glyph unicode="I" horiz-adv-x="610" d="M66 0l251 1434h269l-252 -1434h-268z" />
<glyph unicode="J" horiz-adv-x="1449" d="M38 327q-12 57 -12 123q0 69 13 146h264q-10 -56 -10 -104q0 -267 309 -267q177 0 287 107.5t141 279.5l107 584h-432l38 238h703l-146 -822q-25 -139 -89 -256.5t-158.5 -203t-222.5 -133.5t-273 -48q-138 0 -246 40.5t-178 119.5t-95 196z" />
<glyph unicode="K" horiz-adv-x="1357" d="M66 0l251 1434h271l-107 -607l652 607h335v-9l-757 -698l557 -715l-2 -12h-330l-487 635l-113 -635h-270z" />
<glyph unicode="L" horiz-adv-x="1210" d="M66 0l251 1434h271l-207 -1184h737l-45 -250h-1007z" />
<glyph unicode="M" horiz-adv-x="1861" d="M66 -2l251 1434h312l340 -617l557 617h309l-252 -1434h-270l184 1040l-577 -622h-54l-346 624l-184 -1042h-270z" />
<glyph unicode="N" horiz-adv-x="1593" d="M66 0l251 1434h220l598 -996l47 338l116 658h271l-252 -1434h-219l-600 973l-66 -430l-96 -543h-270z" />
<glyph unicode="O" horiz-adv-x="1652" d="M94 582q0 190 69 354.5t188 279t283.5 179.5t350.5 65q103 0 191.5 -21.5t154.5 -60t119 -92.5t84 -120q32 -66 51 -140q17 -67 17 -139v-15q-2 -80 -15 -163q-28 -148 -96 -278.5t-174.5 -235.5t-261.5 -166.5t-340 -61.5q-132 0 -238 33.5t-176.5 90t-118 136 t-68 167.5t-20.5 188zM367 623q0 -65 10.5 -121.5t38.5 -110.5t71 -92t112 -61t159 -23q122 0 223 41t168.5 111.5t110.5 155.5t61 182q12 53 12 107q-1 8 -1 18q-2 62 -14.5 119t-44.5 105.5t-76 84.5t-109.5 57t-145.5 21q-166 0 -298.5 -81.5t-204.5 -216.5t-72 -296z " />
<glyph unicode="P" horiz-adv-x="1433" d="M66 0l251 1434q111 0 339 1t339 1q112 0 200 -36.5t140.5 -98.5t79.5 -138.5t27 -161.5q0 -118 -41 -222t-118 -184t-198 -126.5t-270 -46.5h-405l-74 -422h-270zM455 670h405q138 0 222 87t87 206v9q1 30 -5 58q-6 32 -22 62t-40.5 51.5t-63.5 35t-88 13.5h-405z" />
<glyph unicode="Q" horiz-adv-x="1665" d="M96 594q0 127 34.5 251t107 237t175 198.5t249 136.5t317.5 51q160 0 283.5 -48t198.5 -133t113 -194t38 -237q0 -321 -232 -590l144 -170l-224 -190l-143 174q-192 -111 -442 -111q-128 0 -232.5 34.5t-175 93.5t-119 139.5t-70.5 170t-22 187.5zM369 641 q0 -81 23.5 -153.5t69.5 -132.5t123 -95t175 -35q116 0 214 36t164.5 95t113 137t68 161t21.5 167q0 85 -22.5 156t-69 127.5t-126.5 88.5t-187 32q-111 0 -205.5 -36t-160 -95.5t-112 -136t-68 -157t-21.5 -159.5z" />
<glyph unicode="R" horiz-adv-x="1492" d="M63 0l254 1436q114 0 340.5 -1t339.5 -1q108 0 193.5 -32.5t139 -89t81 -128.5t27.5 -154q0 -63 -13.5 -125t-47 -126.5t-83.5 -117t-128.5 -94t-176.5 -61.5l348 -488l-4 -18h-309l-332 479h-274l-84 -479h-271zM461 723h411q71 0 128 23.5t91.5 62.5t53 85.5t18.5 94.5 q0 82 -53 142.5t-156 60.5h-411z" />
<glyph unicode="S" horiz-adv-x="1355" d="M12 317l213 115q36 -66 85 -111.5t104 -66.5t103.5 -29t105.5 -8q74 0 134.5 11.5t111.5 37t79.5 71t28.5 107.5q0 160 -297 191q-84 10 -152 25.5t-133.5 44t-110 67.5t-71.5 98.5t-27 133.5q0 100 37 182t97.5 136.5t142 91.5t167 53.5t175.5 17.5q91 0 164.5 -11.5 t144.5 -40t124.5 -83.5t84.5 -136l-231 -116q-28 65 -109.5 108t-194.5 43q-158 0 -244.5 -61.5t-86.5 -151.5q0 -39 21.5 -67.5t64.5 -46t89 -27t113 -18.5q512 -64 512 -404q0 -164 -86.5 -279t-233.5 -170t-343 -55q-136 0 -247 33.5t-200.5 113t-134.5 201.5z" />
<glyph unicode="T" horiz-adv-x="1243" d="M135 1188l43 246h1180l-43 -246h-455l-209 -1188h-270l209 1188h-455z" />
<glyph unicode="U" horiz-adv-x="1564" d="M152 328q-12 57 -12 124q0 74 14 158l145 822h268l-145 -822q-11 -62 -11 -114q0 -281 312 -281q166 0 277 105t143 290l145 822h268l-145 -822q-57 -318 -243 -479.5t-492 -161.5q-140 0 -248 39.5t-180 119.5t-96 200z" />
<glyph unicode="V" horiz-adv-x="1495" d="M152 1434h299l237 -1117l633 1117h303l-848 -1440h-282z" />
<glyph unicode="W" horiz-adv-x="2203" d="M164 1434h303l139 -1067l195 395l352 672h176l121 -639l57 -406l508 1045h303l-747 -1434h-230l-118 559l-60 402l-202 -410l-293 -551h-240z" />
<glyph unicode="X" horiz-adv-x="1355" d="M-98 0l2 8l637 746l-355 667l2 13h291l266 -498l435 498h299l-2 -13l-617 -706l371 -707l-2 -8h-291l-276 526l-443 -526h-317z" />
<glyph unicode="Y" horiz-adv-x="1421" d="M156 1421l2 13h319l258 -592l490 592h325l-2 -13l-719 -846l-102 -575h-270l104 592z" />
<glyph unicode="Z" horiz-adv-x="1255" d="M-51 0l26 156l912 1040h-662l41 238h1055l-23 -127l-938 -1061h754l-45 -246h-1120z" />
<glyph unicode="[" horiz-adv-x="720" d="M-14 -367l321 1819h494l-39 -221h-242l-244 -1372h242l-39 -226h-493z" />
<glyph unicode="\" horiz-adv-x="1019" d="M211 1569h254l375 -1737h-252z" />
<glyph unicode="]" horiz-adv-x="720" d="M-100 -365l39 224h241l244 1374h-242l39 221h494l-322 -1819h-493z" />
<glyph unicode="^" horiz-adv-x="1312" d="M102 682l2 12l619 744h158l372 -742l-2 -14h-260l-223 481l-393 -481h-273z" />
<glyph unicode="_" horiz-adv-x="1220" d="M-20 -225l38 219h967l-39 -219h-966z" />
<glyph unicode="`" horiz-adv-x="485" d="M236 1421l2 11h294l103 -279l-2 -12h-221z" />
<glyph unicode="a" d="M134 730q84 144 222.5 222t300.5 78q217 0 310 -129l43 109h237l-178 -1010h-231l8 137q-54 -82 -156.5 -124t-200.5 -44h-7q-193 1 -312 117q-121 118 -121 317q-1 181 85 327zM305 453v-13q-1 -109 63 -173q68 -68 179 -68q159 0 266 122q88 99 99 227q1 16 1 31 q0 108 -68 172q-63 60 -171 60q-95 0 -177.5 -42.5t-135.5 -125.5t-56 -190z" />
<glyph unicode="b" horiz-adv-x="1310" d="M29 0l252 1432h249l-98 -560q55 73 164 117.5t197 44.5q198 0 315 -110.5t117 -315.5q0 -190 -81.5 -335t-220.5 -220.5t-313 -75.5q-100 0 -173 35t-134 127l-41 -139h-233zM379 457q0 -112 70 -180t176 -68q139 0 241.5 99.5t102.5 248.5q0 115 -59 179.5t-175 64.5 q-89 0 -170 -43t-133.5 -123t-52.5 -178z" />
<glyph unicode="c" horiz-adv-x="1046" d="M47 395q0 151 55 275t146.5 203t208 122t243.5 43q207 0 336 -153l-184 -162q-74 80 -188 80q-144 0 -247.5 -101t-103.5 -251q0 -115 67.5 -178.5t174.5 -63.5q137 0 236 84l139 -174q-98 -82 -198.5 -116t-219.5 -34q-98 0 -181 26t-147 77t-100.5 134t-36.5 189z" />
<glyph unicode="d" horiz-adv-x="1310" d="M51 412q0 193 84.5 336t223.5 214.5t311 71.5q87 0 175.5 -39t131.5 -108l94 545h250l-252 -1432h-233l8 133q-66 -81 -160 -118.5t-195 -37.5q-199 0 -318.5 116.5t-119.5 318.5zM305 457v-10q-1 -103 61 -169q64 -69 171 -69q89 0 169.5 42t134 122t56.5 180v9 q0 104 -65 170q-68 70 -173 69q-90 0 -169.5 -42t-130.5 -122t-54 -180z" />
<glyph unicode="e" horiz-adv-x="1189" d="M49 414q0 176 82 319t229 225t330 82q170 0 282 -74q111 -76 145 -214q12 -50 12 -106q0 -103 -39 -230h-791v-12q0 -88 66 -144q71 -60 200 -59q73 0 155.5 26t131.5 68l131 -158q-90 -80 -215.5 -122t-247.5 -42q-223 0 -347 119.5t-124 321.5zM340 623h547v12 q0 87 -57 134q-61 50 -171 50q-105 0 -190.5 -50.5t-128.5 -145.5z" />
<glyph unicode="f" horiz-adv-x="817" d="M82 776l39 219h188l13 68q72 395 454 395q130 0 236 -76l-111 -184q-60 45 -147 45q-68 0 -117 -45.5t-66 -134.5l-12 -68h297l-39 -219h-297l-137 -776h-250l137 776h-188z" />
<glyph unicode="g" horiz-adv-x="1323" d="M12 -119l246 -2q-1 -11 -1 -22q0 -71 53 -109q62 -43 179 -43q131 0 222 67t116 210l29 151q-37 -56 -102.5 -94.5t-129.5 -53.5t-126 -16h-6q-195 0 -316 119q-123 120 -123 327q0 150 52 271q51 120 138.5 195t200.5 115q109 38 234 38h6q103 0 185 -44.5t114 -119.5 l45 140h229l-178 -1035q-19 -114 -65 -203t-106 -143.5t-137.5 -90t-152.5 -49t-157 -13.5q-237 0 -360 104q-96 82 -96 220q0 39 7 81zM315 459q0 -118 70 -189t180 -71q159 0 262 122q85 99 92 227q1 12 1 23q0 114 -73 180q-65 60 -173 60q-95 0 -176 -41t-132 -122.5 t-51 -188.5z" />
<glyph unicode="h" horiz-adv-x="1234" d="M29 0l252 1434h249l-98 -562q144 152 342 152q209 0 289 -130q53 -86 53 -217q0 -67 -14 -145l-94 -532h-250l94 530q8 47 8 85q0 73 -30 115q-46 64 -162 63q-109 0 -193.5 -80.5t-105.5 -196.5l-90 -516h-250z" />
<glyph unicode="i" horiz-adv-x="518" d="M29 0h250l178 1014h-250zM225 1270q0 80 54.5 124t123.5 44q52 0 87.5 -33.5t35.5 -91.5q0 -80 -51.5 -123t-122.5 -43q-55 0 -91 32.5t-36 90.5z" />
<glyph unicode="j" horiz-adv-x="518" d="M-324 -465q76 -43 174 -43q175 0 272 91.5t136 310.5l197 1120h-248l-197 -1120q-16 -88 -44 -126.5t-87 -41.5h-10q-47 0 -100 26zM225 1272q0 80 54.5 124t123.5 44q52 0 87.5 -33.5t35.5 -91.5q0 -80 -51.5 -123t-122.5 -43q-55 0 -91 32.5t-36 90.5z" />
<glyph unicode="k" horiz-adv-x="1079" d="M29 0l252 1432h249l-145 -828l408 406h303l-2 -15l-498 -481l379 -496l-4 -18h-295l-318 457l-79 -457h-250z" />
<glyph unicode="l" horiz-adv-x="530" d="M35 0l252 1432h248l-252 -1432h-248z" />
<glyph unicode="m" horiz-adv-x="1837" d="M29 0l178 1012h231l-2 -123q49 71 129.5 105t161.5 34q99 0 170 -45t94 -143q135 184 371 184q212 0 298 -124q59 -85 59 -219q0 -63 -13 -136l-96 -545h-250l96 545q7 41 7 76q-1 61 -21 103q-32 68 -133 67.5t-170.5 -67t-91.5 -183.5l-97 -541h-250l97 541q8 34 8 67 q0 15 -2 29q-5 46 -21 81t-54.5 56t-94.5 21q-100 0 -168.5 -69.5t-89.5 -184.5l-96 -541h-250z" />
<glyph unicode="n" horiz-adv-x="1253" d="M29 0l178 1012h223l-8 -138q93 77 179 114.5t179 37.5q186 0 284 -132q70 -94 70 -239q0 -58 -12 -125l-94 -530h-250l92 528q8 45 8 82q0 189 -202 189q-113 0 -200.5 -82.5t-108.5 -200.5l-91 -516h-247z" />
<glyph unicode="o" horiz-adv-x="1206" d="M51 416v5q1 119 43 229q44 112 121.5 196t192.5 134t247 50q208 0 334.5 -126.5t128.5 -315.5v-11q0 -116 -41 -222q-43 -111 -121 -195t-197 -133.5t-261 -49.5q-139 0 -241.5 59t-153.5 157t-52 223zM305 451q0 -104 58 -174t169 -70q100 0 177.5 52t116 129.5 t38.5 162.5q0 104 -61 178t-166 74q-74 0 -138 -30.5t-105.5 -81t-65 -113t-23.5 -127.5z" />
<glyph unicode="p" d="M-53 -463l260 1473h233l-8 -140q68 80 165.5 121t190.5 41q200 0 317.5 -124.5t117.5 -317.5q0 -95 -25 -185t-74 -167.5t-117.5 -136.5t-161 -92.5t-198.5 -33.5q-222 0 -344 158l-106 -596h-250zM385 459q0 -104 65.5 -173t176.5 -69q140 0 241 99t101 235 q0 104 -64 172t-178 68q-149 0 -245.5 -98.5t-96.5 -233.5z" />
<glyph unicode="q" horiz-adv-x="1310" d="M49 410q0 172 77 313t221 225t327 84q61 0 118 -16t107.5 -53.5t73.5 -92.5l41 140h233l-260 -1473h-250l103 582q-63 -76 -164 -110t-197 -34q-204 0 -317 122.5t-113 312.5zM307 459q0 -104 65 -173t175 -69q142 0 243 99t101 235q0 104 -64 173t-178 69 q-151 0 -246.5 -96t-95.5 -238z" />
<glyph unicode="r" horiz-adv-x="909" d="M29 0l178 1010h231l-2 -117q68 85 142.5 114t166.5 29q67 0 128.5 -21.5t99.5 -56.5l-146 -225q-73 58 -153 58q-119 0 -199 -69.5t-102 -189.5l-94 -532h-250z" />
<glyph unicode="s" horiz-adv-x="1015" d="M-23 150l148 167q53 -66 144 -100.5t182 -36.5h9q76 0 134 33q62 35 63 96q0 89 -184 101q-68 5 -130.5 23.5t-117 51t-87.5 85.5q-34 55 -34 125q0 73 31 133q32 62 82 100t116 63.5t130.5 36t128.5 10.5q124 0 211 -29.5t158 -103.5l-168 -164q-78 90 -234 90 q-97 0 -150 -29t-53 -83q0 -86 170 -98q40 -2 76 -7t75.5 -15.5t72 -25.5t62.5 -38t50 -51q20 -29 32 -69q11 -37 11 -80v-7q-4 -164 -139.5 -261.5t-351.5 -97.5h-11q-123 0 -234 43q-116 45 -192 138z" />
<glyph unicode="t" horiz-adv-x="821" d="M80 793l39 215h188l45 260l254 26l-49 -286h266l-39 -215h-268l-76 -424q-4 -26 -4 -48q0 -48 21 -72q29 -34 87 -34h7q68 0 123 25l8 -222q-106 -32 -190 -32q-166 0 -250 92q-60 66 -61 182q0 44 9 96l78 437h-188z" />
<glyph unicode="u" horiz-adv-x="1253" d="M96 479l94 531h248l-92 -529q-10 -50 -10 -94v-14q2 -50 17.5 -87t57.5 -58t109 -21q115 0 212.5 85.5t117.5 201.5l90 516h250l-176 -1010h-223l4 135q-84 -81 -171.5 -115t-197.5 -34q-186 0 -278 132q-64 92 -64 231q0 60 12 130z" />
<glyph unicode="v" horiz-adv-x="1181" d="M92 1012h268l80 -334l78 -434l232 430l198 338h277l-609 -1016h-270z" />
<glyph unicode="w" horiz-adv-x="1738" d="M98 1012h279l63 -434l29 -326l358 760h220l81 -758l146 326l225 432h277l-551 -1016h-271l-53 299l-31 338l-149 -338l-156 -299h-268z" />
<glyph unicode="x" horiz-adv-x="1062" d="M-86 0v6l457 514l-262 484l2 6h270l164 -318l264 318h297l-2 -9l-445 -495l275 -500l-2 -6h-268l-179 324l-278 -324h-293z" />
<glyph unicode="y" horiz-adv-x="1251" d="M10 -131h236v-12q0 -88 53 -123q57 -39 162 -39q49 0 96 14.5t90 45t74.5 84.5t44.5 126l31 170q-86 -88 -170 -119.5t-199 -31.5q-186 0 -279 132q-65 93 -65 233q0 61 12 130l94 531h248l-92 -529q-7 -40 -7 -75q0 -71 29 -121q43 -74 158 -74q125 0 215 81.5 t111 201.5l90 516h248l-186 -1051q-22 -126 -75.5 -220.5t-129.5 -151.5t-167 -85t-196 -28q-208 0 -326 102q-102 88 -102 246q0 23 2 47z" />
<glyph unicode="z" horiz-adv-x="987" d="M-47 0l18 104l326 367l293 315h-463l41 224h809l-21 -119l-372 -418l-230 -244h490l-41 -229h-850z" />
<glyph unicode="{" horiz-adv-x="727" d="M41 489l33 187q46 0 79 15t51.5 42.5t28 53.5t15.5 61l51 287q36 200 162 289t342 49l-35 -195q-94 26 -143 -11t-68 -145l-47 -274q-17 -107 -33 -144q-37 -85 -146 -119q-6 -1 -12 -3q22 -7 39.5 -16t30 -17.5t21 -23t14 -23.5t7 -29t2 -29t-2.5 -33.5t-4 -33t-6 -36.5 q-3 -16 -4 -24l-49 -274q-19 -108 10.5 -138t144.5 -18l-35 -194q-228 -40 -323 49t-60 289l50 286q5 27 6.5 48t-3 45.5t-16.5 40.5t-37.5 27t-62.5 11z" />
<glyph unicode="|" horiz-adv-x="559" d="M23 -172l301 1712h241l-301 -1712h-241z" />
<glyph unicode="}" horiz-adv-x="729" d="M-84 -313l35 194q110 -12 150 18t59 138l49 274q18 106 32 141q35 85 139 118q9 2 19 5q-29 9 -50.5 22t-35 25.5t-20 33.5t-9.5 35.5t0 42.5t5.5 43.5t8.5 48.5q2 11 3 16l49 274q19 108 -16.5 145t-138.5 11l34 194q230 40 325.5 -49t59.5 -289l-51 -286 q-8 -29 -6 -59.5t10 -55.5t36.5 -41t74.5 -16l-33 -187q-46 0 -79 -15t-51.5 -42.5t-28 -53.5t-15.5 -61l-51 -286q-36 -200 -162.5 -289t-341.5 -49z" />
<glyph unicode="~" horiz-adv-x="1234" d="M115 535q99 256 323 256q64 0 132.5 -26.5t116.5 -54.5t95.5 -45.5t88 1.5t75.5 84l176 -70q-37 -105 -126 -173.5t-191 -68.5q-56 0 -119 28.5t-110.5 57.5t-96.5 47t-97 -5t-93 -97z" />
<glyph unicode="&#xa1;" horiz-adv-x="552" d="M-47 -475h268l187 1057h-269zM152 823q0 88 59 138.5t135 52.5q58 2 98.5 -34t40.5 -101q0 -88 -59 -138.5t-135 -50.5q-59 0 -99 35t-40 98z" />
<glyph unicode="&#xa2;" horiz-adv-x="1105" d="M70 399q0 139 60.5 264.5t178.5 216t271 117.5l26 150h232l-27 -148q148 -30 246 -143l-172 -162q-33 40 -95 65t-120 25q-135 0 -241.5 -104.5t-106.5 -247.5q0 -109 67.5 -182.5t171.5 -73.5q62 0 130 25t120 71l123 -180q-71 -57 -141 -85.5t-166 -47.5l-27 -154h-231 l28 166q-159 34 -243 148.5t-84 279.5z" />
<glyph unicode="&#xa3;" horiz-adv-x="1349" d="M10 0l45 256q102 24 163 101.5t77 187.5h-189l39 227h146q-6 111 -6 137q0 253 156 400t448 147q225 0 339.5 -106t86.5 -326h-248q3 104 -49.5 148.5t-155.5 44.5q-44 0 -84.5 -8.5t-82.5 -31t-72.5 -57.5t-49.5 -93t-18 -132q0 -53 4 -123h424l-39 -227h-377 q-3 -38 -15.5 -79.5t-34 -84.5t-57 -79.5t-79.5 -55.5h805l-45 -246h-1131z" />
<glyph unicode="&#xa4;" horiz-adv-x="1265" d="M78 328l139 116q-64 199 80 402l-107 121l222 188l98 -121q101 39 203 37.5t188 -41.5l143 123l154 -188l-139 -119q32 -97 16 -203.5t-80 -198.5l97 -116l-213 -181l-99 117q-93 -55 -200.5 -56t-200.5 56l-146 -119zM420 614q0 -78 48 -135t132 -57q113 0 185.5 80 t72.5 180q0 79 -46 133.5t-132 54.5q-107 0 -183.5 -79.5t-76.5 -176.5z" />
<glyph unicode="&#xa5;" horiz-adv-x="1517" d="M203 1421l2 13h311l264 -594l492 594h325l-2 -13l-591 -684h215l-35 -198h-316l-18 -105h315l-35 -194h-315l-41 -240h-270l41 240h-318l35 194h318l18 105h-317l34 198h222z" />
<glyph unicode="&#xa6;" horiz-adv-x="573" d="M20 -186l134 755h256l-134 -755h-256zM176 698l133 756h256l-133 -756h-256z" />
<glyph unicode="&#xa7;" horiz-adv-x="1263" d="M29 160l170 172q131 -151 352 -148q123 0 203.5 34t83.5 87q2 37 -58 61t-184 23q-96 -2 -183.5 16.5t-158.5 56t-104.5 103t-14.5 150.5q13 58 71 113t148 81q-46 15 -76.5 45t-41.5 63.5t-15 69t4 60.5q17 75 64.5 132.5t106.5 90t136 53t143 27t136 6.5q114 0 230 -33 t186 -106l-170 -160q-55 44 -124.5 63t-166.5 21q-104 2 -183 -27.5t-91 -78.5q-6 -28 13 -49t55.5 -32t76.5 -16.5t82 -5.5q46 0 89 -3t90.5 -10t87 -18.5t78 -29.5t63.5 -42.5t44 -57t19.5 -73t-10.5 -91.5q-15 -60 -77 -116.5t-138 -78.5q56 -17 90 -56t43 -79.5t2 -79.5 q-11 -60 -39.5 -109.5t-67.5 -83.5t-90 -60.5t-101.5 -41.5t-106.5 -24.5t-101 -13t-90 -3.5q-142 0 -264 50.5t-211 148.5zM393 713q-18 -66 81 -98q101 -33 240 -12q143 21 187 83q8 12 12 25q18 70 -78 105q-99 36 -234 17q-142 -20 -191 -87q-12 -15 -17 -33z" />
<glyph unicode="&#xa8;" horiz-adv-x="1046" d="M334 1317q0 77 53 122.5t119 45.5q50 0 85.5 -31.5t35.5 -87.5q0 -78 -53.5 -122t-120.5 -44q-50 0 -84.5 30.5t-34.5 86.5zM852 1317q0 77 53 122.5t119 45.5q50 0 85.5 -31.5t35.5 -87.5q0 -78 -53.5 -122t-120.5 -44q-50 0 -84.5 30.5t-34.5 86.5z" />
<glyph unicode="&#xa9;" horiz-adv-x="1691" d="M106 604q0 170 66.5 327.5t182 277.5t286 192t365.5 72q151 0 271 -48.5t195 -134t114.5 -197t39.5 -241.5q0 -137 -39.5 -266.5t-116.5 -239.5t-183 -192.5t-247 -129.5t-299 -47q-151 0 -273 49.5t-200.5 135.5t-120 199t-41.5 243zM326 631q0 -201 119.5 -330 t330.5 -129q140 0 259.5 53t200 142.5t126 208t45.5 249.5q0 200 -113.5 326.5t-322.5 126.5q-138 0 -259 -52t-205 -140t-132.5 -206.5t-48.5 -248.5zM481 653q0 -152 99 -237.5t256 -85.5q164 0 321 129l-113 125q-84 -72 -176 -72q-94 0 -149.5 56.5t-38.5 152.5 q18 103 93 161t171 58q91 0 150 -68l153 121q-105 127 -272 127q-98 0 -187 -32.5t-157.5 -91.5t-109 -148t-40.5 -195z" />
<glyph unicode="&#xaa;" horiz-adv-x="1024" d="M131 477l31 178h727l-31 -178h-727zM207 1047q0 129 58.5 222.5t152 137.5t207.5 43q66 0 118 -29t74 -78l19 91h186l-117 -662h-184l12 96q-37 -54 -104.5 -84t-130.5 -32q-131 0 -211 79t-80 216zM410 1073q0 -65 40 -103t101 -38q101 0 160 84q49 71 37 150t-84 102 q-23 8 -52 8q-82 0 -142 -56.5t-60 -146.5z" />
<glyph unicode="&#xab;" horiz-adv-x="1081" d="M74 608l364 453h267l-363 -453l203 -454h-266zM451 608l364 453h266l-362 -453l203 -454h-267z" />
<glyph unicode="&#xac;" horiz-adv-x="1095" d="M129 569l37 213h809l-82 -473h-215l45 260h-594z" />
<glyph unicode="&#xad;" horiz-adv-x="1011" d="M104 477l41 230h756l-41 -230h-756z" />
<glyph unicode="&#xae;" horiz-adv-x="1681" d="M106 594q0 136 39 265t115 238.5t180.5 192t244 129.5t296.5 47q151 0 273 -48.5t200.5 -133.5t120 -197.5t41.5 -242.5q0 -171 -64 -328.5t-177 -278.5t-282 -193.5t-366 -72.5q-150 0 -270 48.5t-195.5 134t-115.5 197.5t-40 243zM330 543q6 -83 39 -152t85 -119 t131 -78t177 -28q141 0 260.5 53t200 142.5t125.5 208t45 249.5q0 200 -114 326.5t-323 126.5q-133 0 -242 -42.5t-184 -118.5t-123 -174.5t-69 -217.5q-14 -93 -8 -176zM498 344h198l43 234h82l123 -234h213l8 18l-145 254q68 10 119 50.5t74 93.5t22 112.5t-26.5 109 t-83 82t-136.5 32.5h-358zM766 741l33 183h159q59 0 73 -50q13 -47 -20 -91q-33 -41 -85 -42h-160z" />
<glyph unicode="&#xaf;" horiz-adv-x="927" d="M289 1229l37 209h733l-37 -209h-733z" />
<glyph unicode="&#xb0;" horiz-adv-x="735" d="M193 1176q0 95 50.5 166t123 104t151.5 33q98 0 166 -58t68 -159q0 -143 -95.5 -223.5t-230.5 -80.5q-98 0 -165.5 57.5t-67.5 160.5zM350 1200q0 -40 26 -68t75 -28q64 0 102.5 40t38.5 91q0 40 -25 68t-73 28q-64 0 -104 -40t-40 -91z" />
<glyph unicode="&#xb1;" horiz-adv-x="1097" d="M31 39l41 227h837l-41 -227h-837zM139 655l41 234h297l53 303h240l-53 -303h301l-41 -234h-301l-53 -303h-240l53 303h-297z" />
<glyph unicode="&#xb2;" horiz-adv-x="761" d="M117 811q6 33 14 94t14 94q12 63 45 107.5t77 67t94.5 37t98.5 23.5t87.5 21t63.5 35t24 60q0 71 -113 71q-48 0 -85 -19.5t-44 -55.5h-180q15 76 67.5 130.5t119 78.5t139.5 24q126 0 203 -58t77 -153q0 -59 -20 -104.5t-53 -72.5t-75.5 -47t-87 -30.5t-88.5 -22 t-79 -21t-59 -28t-29 -43.5v-14h415l-30 -174h-596z" />
<glyph unicode="&#xb3;" horiz-adv-x="774" d="M141 1030h185q-1 -39 30.5 -57.5t81.5 -18.5q68 0 109.5 26t42.5 71q2 32 -27.5 54.5t-87.5 22.5h-117l25 138h109q67 0 106 25.5t39 64.5q0 71 -117 74q-124 4 -147 -78h-170q21 115 114 171t230 56q69 0 128.5 -21.5t100.5 -69.5t41 -114q0 -57 -35 -109t-92 -69 q43 -15 67.5 -52.5t24.5 -82.5q0 -57 -21 -102.5t-56.5 -75.5t-83 -50.5t-99 -29t-106.5 -8.5q-56 0 -107.5 13.5t-94 40t-63 73.5t-10.5 108z" />
<glyph unicode="&#xb4;" horiz-adv-x="489" d="M213 1141l2 12l180 279h295l-2 -11l-242 -280h-233z" />
<glyph unicode="&#xb6;" horiz-adv-x="1753" d="M113 811q0 90 28.5 179.5t85 169t135 141t185.5 97.5t229 36h1039l-46 -254h-190l-285 -1616h-270l285 1616h-379l-285 -1616h-270l139 792q-99 11 -177.5 52.5t-126.5 104.5t-72.5 139t-24.5 159z" />
<glyph unicode="&#xb7;" horiz-adv-x="550" d="M109 537q0 83 56 130.5t128 47.5q55 0 94 -34t39 -95q0 -82 -56.5 -130t-127.5 -48q-56 0 -94.5 34t-38.5 95z" />
<glyph unicode="&#xb8;" horiz-adv-x="782" d="M0 -354l131 100q22 -39 72.5 -56t100.5 -4t69 52q18 37 -6 65.5t-67 30t-89 -23.5l-51 47l100 192h180l-51 -104q66 -2 109 -26.5t58 -62t14.5 -78t-15.5 -81.5q-27 -69 -84 -116.5t-125.5 -63t-137 -9.5t-125.5 42.5t-83 95.5z" />
<glyph unicode="&#xb9;" horiz-adv-x="583" d="M100 811l29 158h143l74 393l-113 -25l29 154l301 74l-110 -596h151l-29 -158h-475z" />
<glyph unicode="&#xba;" horiz-adv-x="985" d="M129 467l31 178h680l-31 -178h-680zM209 1040q0 192 123.5 301t310.5 109q142 0 225.5 -73.5t83.5 -209.5q0 -130 -59.5 -225.5t-156 -142.5t-216.5 -47q-140 0 -225.5 75t-85.5 213zM410 1073q0 -65 39 -103t102 -38q82 0 141.5 56.5t59.5 146.5q0 65 -39 103t-101 38 q-82 0 -142 -56.5t-60 -146.5z" />
<glyph unicode="&#xbb;" horiz-adv-x="1079" d="M2 158l363 454l-203 453h266l205 -453l-365 -454h-266zM377 158l362 454l-202 453h266l205 -453l-365 -454h-266z" />
<glyph unicode="&#xbc;" horiz-adv-x="1609" d="M109 684l28 158h127l68 393l-113 -25l29 154l301 74l-105 -596h131l-28 -158h-438zM172 -2l1047 1450h217l-1049 -1450h-215zM791 133l18 154l477 465h187l-82 -461h90l-27 -158h-90l-25 -133h-180l25 133h-393zM999 291h211l47 250z" />
<glyph unicode="&#xbd;" horiz-adv-x="1675" d="M104 684l29 158h127l68 393l-113 -25l29 154l301 74l-105 -596h131l-28 -158h-439zM168 -4l1046 1452h218l-1049 -1452h-215zM874 0l37 188q12 63 45 107.5t77 67t94.5 37t98.5 23.5t87.5 21t63.5 35t24 60q0 71 -113 71q-48 0 -85 -19.5t-44 -55.5h-180 q15 76 67.5 130.5t119 78.5t139.5 24q126 0 203 -58t77 -153q0 -59 -20 -104.5t-53 -72.5t-75.5 -47.5t-87 -31.5t-88.5 -23.5t-79.5 -23.5t-60 -31.5t-29.5 -48.5h417l-30 -174h-605z" />
<glyph unicode="&#xbe;" horiz-adv-x="1738" d="M135 915h184q-1 -39 31 -57t82 -18q68 0 109.5 25.5t42.5 70.5q2 32 -27.5 55t-87.5 23h-117l25 137h108q67 0 106.5 25.5t39.5 64.5q0 71 -117 74q-124 4 -147 -78h-170q21 115 114 171t230 56q69 0 128.5 -21t100.5 -69t41 -114q0 -57 -35 -110t-92 -69 q43 -15 67.5 -52.5t24.5 -82.5q0 -57 -21 -102.5t-56.5 -75.5t-83 -50.5t-99 -29t-106.5 -8.5q-56 0 -107.5 13.5t-94 40t-63 73.5t-10.5 108zM313 -10l1053 1458h217l-1055 -1458h-215zM922 133l18 154l477 465h187l-82 -461h90l-27 -158h-90l-25 -133h-180l25 133h-393z M1130 291h211l48 250z" />
<glyph unicode="&#xbf;" horiz-adv-x="1224" d="M-43 -53q-2 -91 37.5 -161.5t109.5 -113t158 -64.5t189 -22q251 0 411.5 112.5t200.5 334.5h-275q-18 -92 -106 -146.5t-193 -54.5q-48 0 -88.5 7t-77.5 23t-58 46.5t-21 73.5q0 20 4 38.5t8.5 33t16 29t19.5 24t25.5 21t27 18t32.5 17t32.5 14.5t36 15t35.5 15 q66 26 112 49t94 59.5t78 79t52.5 105t30.5 141.5h-254q-6 -36 -15.5 -64.5t-24.5 -49t-28 -34.5t-35.5 -25.5t-37 -18t-42 -17t-42.5 -16.5q-74 -32 -124.5 -58t-109.5 -68t-94.5 -87.5t-59.5 -111.5t-24 -144zM578 866q0 87 59 135t135 48q58 0 98.5 -38.5t40.5 -103.5 q0 -87 -59 -132.5t-137 -45.5q-58 0 -97.5 36.5t-39.5 100.5z" />
<glyph unicode="&#xc0;" horiz-adv-x="1597" d="M-92 0l895 1434h295l391 -1434h-287l-74 270h-749l-170 -270h-301zM532 522h533l-158 621zM680 1862l2 10h295l102 -279l-2 -12h-221z" />
<glyph unicode="&#xc1;" horiz-adv-x="1597" d="M-92 0h301l170 270h749l74 -270h287l-391 1434h-295zM532 522l375 621l158 -621h-533zM848 1581l2 12l180 279h295l-2 -10l-242 -281h-233z" />
<glyph unicode="&#xc2;" horiz-adv-x="1597" d="M-92 0l895 1434h295l391 -1434h-287l-74 270h-749l-170 -270h-301zM532 522h533l-158 621zM567 1548l2 13l369 294h143l267 -294l-2 -13h-244l-115 119l-147 -119h-273z" />
<glyph unicode="&#xc3;" horiz-adv-x="1597" d="M-92 0l895 1434h295l391 -1434h-287l-74 270h-749l-170 -270h-301zM532 522h533l-158 621zM598 1663q49 113 135 168.5t187 30.5q22 -5 49.5 -19t48.5 -27t46 -22.5t45.5 -9t42 16.5t40.5 50l162 -84q-30 -82 -87 -133t-115 -64.5t-110 -0.5q-25 8 -58 28.5t-57 34 t-52.5 19.5t-59 -13t-63.5 -65z" />
<glyph unicode="&#xc4;" horiz-adv-x="1597" d="M-92 0h301l170 270h749l74 -270h287l-391 1434h-295zM532 522l375 621l158 -621h-533zM592 1663q0 77 53 122.5t119 45.5q50 0 85.5 -31.5t35.5 -87.5q0 -78 -53.5 -122t-120.5 -44q-50 0 -84.5 30.5t-34.5 86.5zM1110 1663q0 77 53 122.5t119 45.5q50 0 85.5 -31.5 t35.5 -87.5q0 -78 -53.5 -122t-120.5 -44q-50 0 -84.5 30.5t-34.5 86.5z" />
<glyph unicode="&#xc5;" horiz-adv-x="1597" d="M-92 0l891 1425q-88 53 -88 170q0 68 28.5 124t75 90.5t102.5 53.5t113 19q97 0 164.5 -55.5t67.5 -153.5q0 -85 -45 -148.5t-117 -99.5l389 -1425h-279l-73 270h-766l-170 -270h-293zM510 508h565l-168 655zM864 1620q0 -37 26 -62.5t75 -25.5q62 0 99.5 36t37.5 81 q0 38 -26 65t-75 27q-63 0 -100 -37t-37 -84z" />
<glyph unicode="&#xc6;" horiz-adv-x="1873" d="M-147 0l1142 1434h903l-40 -240h-598l-64 -354h576l-39 -234h-576l-65 -360h604l-43 -246h-858l51 289h-451l-233 -289h-309zM588 528h299l47 256l76 316z" />
<glyph unicode="&#xc7;" horiz-adv-x="1435" d="M96 584q0 128 35 252t109.5 237.5t179.5 200t255 137.5t326 51q143 0 272.5 -61.5t205.5 -165.5l-199 -166q-57 67 -142 101t-182 34q-141 0 -256 -52.5t-186 -137t-109 -185.5t-38 -204q0 -64 14 -121t45.5 -109.5t78.5 -90.5t118.5 -60.5t160.5 -22.5q96 0 199.5 38.5 t185.5 107.5l152 -189q-218 -185 -502 -207l-43 -90q66 -2 109 -26.5t58 -62t14.5 -78t-15.5 -81.5q-27 -69 -84 -116.5t-125.5 -63t-137 -9.5t-125.5 42.5t-83 95.5l131 101q22 -39 72.5 -56t100.5 -4.5t69 51.5q18 37 -6 65.5t-67 30t-89 -23.5l-51 47l92 180 q-140 14 -247 69.5t-170.5 140t-94.5 185.5t-31 216z" />
<glyph unicode="&#xc8;" horiz-adv-x="1363" d="M66 0q42 239 125.5 717t125.5 717h1074l-45 -252h-805l-60 -340h776l-43 -252h-776l-57 -324h805l-47 -266h-1073zM643 1872l2 10h295l102 -278l-2 -13h-221z" />
<glyph unicode="&#xc9;" horiz-adv-x="1363" d="M66 0h1073l47 266h-805l57 324h776l43 252h-776l60 340h805l45 252h-1074q-42 -239 -125.5 -717t-125.5 -717zM764 1587l2 12l180 279h295l-2 -10l-242 -281h-233z" />
<glyph unicode="&#xca;" horiz-adv-x="1363" d="M66 0q42 239 125.5 717t125.5 717h1074l-45 -252h-805l-60 -340h776l-43 -252h-776l-57 -324h805l-47 -266h-1073zM532 1579l3 12l352 283h137l254 -283l-2 -12h-232l-110 115l-141 -115h-261z" />
<glyph unicode="&#xcb;" horiz-adv-x="1363" d="M66 0h1073l47 266h-805l57 324h776l43 252h-776l60 340h805l45 252h-1074q-42 -239 -125.5 -717t-125.5 -717zM526 1696q0 77 53 122.5t119 45.5q50 0 85.5 -31.5t35.5 -87.5q0 -78 -53.5 -122t-120.5 -44q-50 0 -84.5 30.5t-34.5 86.5zM1044 1696q0 77 53.5 122.5 t119.5 45.5q50 0 85 -31.5t35 -87.5q0 -78 -53.5 -122t-120.5 -44q-50 0 -84.5 30.5t-34.5 86.5z" />
<glyph unicode="&#xcc;" horiz-adv-x="610" d="M66 0l251 1434h269l-252 -1434h-268zM197 1855l2 11h295l102 -279l-2 -12h-221z" />
<glyph unicode="&#xcd;" horiz-adv-x="610" d="M66 0h268l252 1434h-269zM371 1579l2 12l180 279h295l-2 -10l-242 -281h-233z" />
<glyph unicode="&#xce;" horiz-adv-x="610" d="M66 0l251 1434h269l-252 -1434h-268zM106 1571l3 12l352 283h137l254 -283l-2 -12h-232l-110 115l-141 -115h-261z" />
<glyph unicode="&#xcf;" horiz-adv-x="610" d="M66 0h268l252 1434h-269zM131 1686q0 76 51.5 121.5t114.5 45.5q53 0 89 -30.5t36 -87.5q0 -79 -52.5 -122.5t-119.5 -43.5q-53 0 -86 31t-33 86zM571 1686q0 76 51.5 121.5t114.5 45.5q53 0 89 -30.5t36 -87.5q0 -79 -52.5 -122.5t-119.5 -43.5q-53 0 -86 31t-33 86z " />
<glyph unicode="&#xd0;" horiz-adv-x="1554" d="M43 612l39 217h143l107 605h530q155 0 277 -45t199 -124.5t117 -183.5t40 -225q0 -107 -22.5 -209t-67.5 -198.5t-118.5 -177.5t-169 -142t-226 -95t-283.5 -34h-530l108 612h-143zM383 248h270q140 0 251.5 46t181 126t105.5 183.5t36 223.5q0 178 -97.5 270.5 t-310.5 92.5h-270l-64 -361h277l-39 -217h-277z" />
<glyph unicode="&#xd1;" horiz-adv-x="1593" d="M66 0l251 1434h220l598 -996l47 338l116 658h271l-252 -1434h-219l-600 973l-66 -430l-96 -543h-270zM612 1661q44 104 123.5 155.5t173.5 28.5q23 -6 54 -22.5t54.5 -29t49.5 -19t50 8t44 52.5l150 -78q-28 -76 -80.5 -123t-106 -59.5t-102.5 0.5q-23 7 -53.5 25.5 t-52.5 31t-48.5 18t-55 -12t-58.5 -60.5z" />
<glyph unicode="&#xd2;" horiz-adv-x="1652" d="M94 582q0 190 69 354.5t188 279t283.5 179.5t350.5 65q103 0 191.5 -21.5t154.5 -60t119 -92.5t84.5 -119.5t50.5 -140t17 -154.5t-15 -163q-28 -148 -96 -278.5t-174.5 -235.5t-261.5 -166.5t-340 -61.5q-132 0 -238 33.5t-176.5 90t-118 136t-68 167.5t-20.5 188z M367 623q0 -65 10.5 -121.5t38.5 -110.5t71 -92t112 -61t159 -23q122 0 223 41t168.5 111.5t110.5 155.5t61 182q14 63 11.5 125.5t-15 119t-44.5 105t-76 84.5t-109.5 57t-145.5 21q-166 0 -298.5 -81.5t-204.5 -216.5t-72 -296zM729 1878l2 10h295l102 -278l-2 -13h-221z " />
<glyph unicode="&#xd3;" horiz-adv-x="1652" d="M94 582q0 -100 20.5 -188t68 -167.5t118 -136t176.5 -90t238 -33.5q185 0 340 61.5t261.5 166.5t174.5 235.5t96 278.5q13 83 15 163t-17 154.5t-50.5 140t-84.5 119.5t-119 92.5t-154.5 60t-191.5 21.5q-186 0 -350.5 -65t-283.5 -179.5t-188 -279t-69 -354.5zM367 623 q0 161 72 296t204.5 216.5t298.5 81.5q80 0 145.5 -21t109.5 -57t76 -84.5t44.5 -105t15 -119t-11.5 -125.5q-18 -97 -61 -182t-110.5 -155.5t-168.5 -111.5t-223 -41q-90 0 -159 23t-112 61t-71 92t-38.5 110.5t-10.5 121.5zM885 1597l2 13l180 278h295l-2 -10l-242 -281 h-233z" />
<glyph unicode="&#xd4;" horiz-adv-x="1652" d="M94 582q0 190 69 354.5t188 279t283.5 179.5t350.5 65q103 0 191.5 -21.5t154.5 -60t119 -92.5t84.5 -119.5t50.5 -140t17 -154.5t-15 -163q-28 -148 -96 -278.5t-174.5 -235.5t-261.5 -166.5t-340 -61.5q-132 0 -238 33.5t-176.5 90t-118 136t-68 167.5t-20.5 188z M367 623q0 -65 10.5 -121.5t38.5 -110.5t71 -92t112 -61t159 -23q122 0 223 41t168.5 111.5t110.5 155.5t61 182q14 63 11.5 125.5t-15 119t-44.5 105t-76 84.5t-109.5 57t-145.5 21q-166 0 -298.5 -81.5t-204.5 -216.5t-72 -296zM643 1599l2 13l352 282h138l254 -282 l-3 -13h-231l-111 115l-141 -115h-260z" />
<glyph unicode="&#xd5;" horiz-adv-x="1652" d="M94 582q0 190 69 354.5t188 279t283.5 179.5t350.5 65q103 0 191.5 -21.5t154.5 -60t119 -92.5t84.5 -119.5t50.5 -140t17 -154.5t-15 -163q-28 -148 -96 -278.5t-174.5 -235.5t-261.5 -166.5t-340 -61.5q-132 0 -238 33.5t-176.5 90t-118 136t-68 167.5t-20.5 188z M367 623q0 -65 10.5 -121.5t38.5 -110.5t71 -92t112 -61t159 -23q122 0 223 41t168.5 111.5t110.5 155.5t61 182q14 63 11.5 125.5t-15 119t-44.5 105t-76 84.5t-109.5 57t-145.5 21q-166 0 -298.5 -81.5t-204.5 -216.5t-72 -296zM682 1686q44 104 123.5 155.5t173.5 28.5 q23 -6 54 -22.5t54.5 -29t49.5 -19t50 8t44 52.5l149 -78q-28 -76 -80 -123t-106 -60t-102 0q-26 8 -66.5 32.5t-65.5 37t-62.5 -0.5t-74.5 -66z" />
<glyph unicode="&#xd6;" horiz-adv-x="1652" d="M94 582q0 -100 20.5 -188t68 -167.5t118 -136t176.5 -90t238 -33.5q185 0 340 61.5t261.5 166.5t174.5 235.5t96 278.5q13 83 15 163t-17 154.5t-50.5 140t-84.5 119.5t-119 92.5t-154.5 60t-191.5 21.5q-186 0 -350.5 -65t-283.5 -179.5t-188 -279t-69 -354.5zM367 623 q0 161 72 296t204.5 216.5t298.5 81.5q80 0 145.5 -21t109.5 -57t76 -84.5t44.5 -105t15 -119t-11.5 -125.5q-18 -97 -61 -182t-110.5 -155.5t-168.5 -111.5t-223 -41q-90 0 -159 23t-112 61t-71 92t-38.5 110.5t-10.5 121.5zM639 1690q0 78 53 124t119 46q50 0 85.5 -31.5 t35.5 -87.5q0 -77 -52 -121.5t-118 -44.5q-55 0 -89 30t-34 85zM1143 1690q0 78 53 124t119 46q50 0 85.5 -31.5t35.5 -87.5q0 -77 -52 -121.5t-118 -44.5q-55 0 -89 30t-34 85z" />
<glyph unicode="&#xd7;" horiz-adv-x="940" d="M82 453l242 202l-162 197l188 154l156 -199l233 203l129 -156l-243 -211l174 -209l-174 -143l-170 209l-240 -209z" />
<glyph unicode="&#xd8;" horiz-adv-x="1644" d="M35 -147l217 278q-79 79 -118.5 198t-39.5 253q0 105 27 210.5t77 203.5t127.5 183t173.5 148t219.5 99t260.5 36q144 0 270 -47l119 154h262l-207 -266q110 -106 150 -264t8 -330q-21 -114 -68 -220t-122.5 -201.5t-172.5 -166.5t-226.5 -112.5t-276.5 -41.5 q-167 0 -291 51l-129 -165h-260zM365 621q0 -161 65 -259l649 834q-75 21 -145 21q-110 0 -204.5 -36t-160 -96t-112.5 -137.5t-69.5 -160.5t-22.5 -166zM594 238q77 -23 164 -23q121 0 221.5 42.5t166.5 114.5t107.5 156t59.5 177q22 98 6 199.5t-70 174.5z" />
<glyph unicode="&#xd9;" horiz-adv-x="1564" d="M151.5 327.5q-24.5 120.5 2.5 282.5l145 822h268l-145 -822q-69 -395 301 -395q166 0 277 105t143 290l145 822h268l-145 -822q-57 -318 -243 -479.5t-492 -161.5q-140 0 -248 39.5t-180 119t-96.5 200zM686 1878l2 10h295l102 -278l-2 -13h-221z" />
<glyph unicode="&#xda;" horiz-adv-x="1564" d="M151.5 327.5q24.5 -120.5 96.5 -200t180 -119t248 -39.5q306 0 492 161.5t243 479.5l145 822h-268l-145 -822q-32 -185 -143 -290t-277 -105q-370 0 -301 395l145 822h-268l-145 -822q-27 -162 -2.5 -282.5zM803 1595l2 13l180 278h295l-2 -10l-242 -281h-233z" />
<glyph unicode="&#xdb;" horiz-adv-x="1564" d="M151.5 327.5q-24.5 120.5 2.5 282.5l145 822h268l-145 -822q-69 -395 301 -395q166 0 277 105t143 290l145 822h268l-145 -822q-57 -318 -243 -479.5t-492 -161.5q-140 0 -248 39.5t-180 119t-96.5 200zM592 1591l2 13l352 282h137l254 -282l-2 -13h-231l-111 115 l-141 -115h-260z" />
<glyph unicode="&#xdc;" horiz-adv-x="1564" d="M151.5 327.5q24.5 -120.5 96.5 -200t180 -119t248 -39.5q306 0 492 161.5t243 479.5l145 822h-268l-145 -822q-32 -185 -143 -290t-277 -105q-370 0 -301 395l145 822h-268l-145 -822q-27 -162 -2.5 -282.5zM598 1686q0 77 53 122t119 45q50 0 85.5 -31t35.5 -87 q0 -78 -53.5 -122t-120.5 -44q-50 0 -84.5 30.5t-34.5 86.5zM1116 1686q0 77 53 122t119 45q50 0 85.5 -31t35.5 -87q0 -78 -53.5 -122t-120.5 -44q-50 0 -84.5 30.5t-34.5 86.5z" />
<glyph unicode="&#xdd;" horiz-adv-x="1421" d="M156 1421l405 -829l-104 -592h270l102 575l719 846l2 13h-325l-490 -592l-258 592h-319zM711 1579l2 12l180 279h295l-2 -10l-242 -281h-233z" />
<glyph unicode="&#xde;" horiz-adv-x="1433" d="M66 0l253 1432h267l-41 -234h407q247 0 371 -149q100 -121 85 -294q-14 -173 -136 -311q-147 -167 -386 -199q-51 -7 -104 -7h-405l-41 -238h-270zM420 479h405q147 0 239 103q73 82 72 183q-1 102 -82 152q-54 33 -134 33h-416z" />
<glyph unicode="&#xdf;" horiz-adv-x="1286" d="M27 0l186 1053q15 86 56 155.5t96 115t124 76t138.5 43.5t142.5 13q117 0 210.5 -36.5t152.5 -115.5t59 -188q0 -115 -73 -204t-195 -115q90 -21 151 -74.5t85 -113.5t24 -124q0 -98 -28 -181t-79 -143t-122 -102t-156.5 -61.5t-183 -18t-201.5 24.5l39 227 q117 -29 204 -21t144.5 47t85.5 92t28 114q0 68 -41.5 119t-105 75.5t-135.5 24.5h-96l41 238h90q55 0 105 11t94 43t55 81q10 45 -3.5 79t-43 53t-65.5 28.5t-77 9.5q-98 0 -167.5 -45t-86.5 -125l-86 -482q-17 -93 -53.5 -309.5t-44.5 -263.5h-268z" />
<glyph unicode="&#xe0;" d="M49 406q1 180 85.5 324t222.5 222t300 78q217 0 310 -129l43 109h237l-178 -1010h-231l8 137q-54 -82 -156.5 -124t-200.5 -44q-197 -2 -319 116.5t-121 320.5zM305 453q-4 -118 63.5 -186t178.5 -68q159 0 266 122q88 99 99 227q11 130 -67 203q-63 60 -171 60 q-95 0 -177.5 -42.5t-135.5 -125.5t-56 -190zM487 1442l2 10h295l103 -278l-2 -13h-221z" />
<glyph unicode="&#xe1;" d="M49 406q-1 -202 121 -320.5t319 -116.5q98 2 200.5 44t156.5 124l-8 -137h231l178 1010h-237l-43 -109q-93 129 -310 129q-162 0 -300 -78t-222.5 -222t-85.5 -324zM305 453q3 107 56 190t135.5 125.5t177.5 42.5q152 0 211 -112q50 -96 13 -225q-39 -130 -144 -208 q-92 -67 -207 -67q-111 0 -178.5 68t-63.5 186zM586 1163l2 13l180 278h295l-2 -10l-242 -281h-233z" />
<glyph unicode="&#xe2;" d="M49 406q1 180 85.5 324t222.5 222t300 78q217 0 310 -129l43 109h237l-178 -1010h-231l8 137q-54 -82 -156.5 -124t-200.5 -44q-197 -2 -319 116.5t-121 320.5zM305 453q-4 -118 63.5 -186t178.5 -68q159 0 266 122q88 99 99 227q11 130 -67 203q-63 60 -171 60 q-95 0 -177.5 -42.5t-135.5 -125.5t-56 -190zM395 1169l2 13l353 282h137l254 -282l-2 -13h-232l-110 115l-142 -115h-260z" />
<glyph unicode="&#xe3;" d="M49 406q1 180 85.5 324t222.5 222t300 78q217 0 310 -129l43 109h237l-178 -1010h-231l8 137q-54 -82 -156.5 -124t-200.5 -44q-197 -2 -319 116.5t-121 320.5zM305 453q-4 -118 63.5 -186t178.5 -68q159 0 266 122q88 99 99 227q11 130 -67 203q-63 60 -171 60 q-95 0 -177.5 -42.5t-135.5 -125.5t-56 -190zM446 1282q44 104 123.5 155.5t173.5 28.5q23 -6 54 -22.5t54.5 -29t49.5 -19t50 8t44 52.5l150 -78q-28 -76 -80.5 -123t-106 -59.5t-102.5 0.5q-23 7 -53.5 25.5t-52.5 31t-48.5 18t-55 -12t-58.5 -60.5z" />
<glyph unicode="&#xe4;" d="M49 406q-1 -202 121 -320.5t319 -116.5q98 2 200.5 44t156.5 124l-8 -137h231l178 1010h-237l-43 -109q-93 129 -310 129q-162 0 -300 -78t-222.5 -222t-85.5 -324zM305 453q3 107 56 190t135.5 125.5t177.5 42.5q152 0 211 -112q50 -96 13 -225q-39 -130 -144 -208 q-92 -67 -207 -67q-111 0 -178.5 68t-63.5 186zM406 1298q0 77 53 122.5t119 45.5q50 0 85 -31t35 -87q0 -78 -53.5 -122t-120.5 -44q-50 0 -84 30t-34 86zM924 1298q0 77 53 122.5t119 45.5q50 0 85.5 -31t35.5 -87q0 -78 -54 -122t-121 -44q-50 0 -84 30t-34 86z" />
<glyph unicode="&#xe5;" d="M49 406q1 180 85.5 324t222.5 222t300 78q217 0 310 -129l43 109h237l-178 -1010h-231l8 137q-54 -82 -156.5 -124t-200.5 -44q-197 -2 -319 116.5t-121 320.5zM305 453q-4 -118 63.5 -186t178.5 -68q159 0 266 122q88 99 99 227q11 130 -67 203q-63 60 -171 60 q-95 0 -177.5 -42.5t-135.5 -125.5t-56 -190zM516 1331q0 82 48.5 143.5t117.5 90t145 28.5q92 0 158 -50.5t66 -139.5q0 -63 -28 -114t-73 -81.5t-99 -46.5t-110 -16q-95 0 -160 48t-65 138zM668 1356q0 -35 24.5 -58.5t71.5 -23.5q60 0 96.5 33.5t36.5 74.5 q0 35 -25.5 58.5t-72.5 23.5q-61 0 -96 -33t-35 -75z" />
<glyph unicode="&#xe6;" horiz-adv-x="2021" d="M51 401q0 120 33.5 223t92 178t138 128t173 79t194.5 25q102 0 183 -45t110 -119l33 140h188l-22 -127q147 155 378 155q149 0 257 -77t142.5 -215.5t-36.5 -329.5h-789q-5 -96 65.5 -155.5t199.5 -59.5q73 0 155 25.5t131 68.5l131 -158q-90 -80 -215 -122t-247 -42 q-230 0 -304 158l-34 -131h-185l21 135q-75 -81 -174 -121.5t-203 -40.5q-181 0 -298.5 113t-117.5 315zM307 453q0 -120 61.5 -187t170.5 -67q166 0 276 122q90 98 101 225q11 128 -67 202q-68 63 -183 63q-147 0 -253 -99t-106 -259zM1167 623h545q4 96 -56.5 146 t-170.5 50q-105 0 -190 -50.5t-128 -145.5z" />
<glyph unicode="&#xe7;" horiz-adv-x="1050" d="M49 395q0 151 55 275t146.5 203t208 122t243.5 43q207 0 336 -153l-184 -162q-74 80 -188 80q-144 0 -247.5 -101t-103.5 -251q0 -115 67.5 -178.5t174.5 -63.5q137 0 236 84l139 -174q-156 -130 -342 -146l-43 -88q66 -1 108 -24t57 -58.5t14.5 -74.5t-15.5 -78 q-32 -81 -111 -128.5t-163.5 -53t-163 29.5t-111.5 105l129 94q22 -37 72 -53t99 -4t68 49q18 36 -5.5 63t-66 28t-87.5 -22l-52 45l95 174q-165 24 -265 130.5t-100 287.5z" />
<glyph unicode="&#xe8;" horiz-adv-x="1189" d="M49 414q0 176 82 319t229 225t330 82q170 0 281.5 -74.5t145.5 -213t-27 -336.5h-791q-5 -96 66 -155.5t200 -59.5q73 0 155.5 26t131.5 68l131 -158q-90 -80 -215.5 -122t-247.5 -42q-223 0 -347 119.5t-124 321.5zM340 623h547q4 96 -57 146t-171 50 q-105 0 -190.5 -50.5t-128.5 -145.5zM449 1454l2 10h294l103 -278l-2 -12h-221z" />
<glyph unicode="&#xe9;" horiz-adv-x="1189" d="M49 414q0 -202 124 -321.5t347 -119.5q122 0 247.5 42t215.5 122l-131 158q-49 -42 -131.5 -68t-155.5 -26q-129 0 -200 59.5t-66 155.5h791q61 198 27 336.5t-145.5 213t-281.5 74.5q-183 0 -330 -82t-229 -225t-82 -319zM340 623q43 95 128.5 145.5t190.5 50.5 q110 0 171 -50t57 -146h-547zM582 1174l2 12l180 278h295l-2 -10l-242 -280h-233z" />
<glyph unicode="&#xea;" horiz-adv-x="1189" d="M49 414q0 176 82 319t229 225t330 82q170 0 281.5 -74.5t145.5 -213t-27 -336.5h-791q-5 -96 66 -155.5t200 -59.5q73 0 155.5 26t131.5 68l131 -158q-90 -80 -215.5 -122t-247.5 -42q-223 0 -347 119.5t-124 321.5zM340 623h547q4 96 -57 146t-171 50 q-105 0 -190.5 -50.5t-128.5 -145.5zM346 1157l2 12l352 283h138l254 -283l-2 -12h-232l-110 115l-142 -115h-260z" />
<glyph unicode="&#xeb;" horiz-adv-x="1189" d="M49 414q0 -202 124 -321.5t347 -119.5q122 0 247.5 42t215.5 122l-131 158q-49 -42 -131.5 -68t-155.5 -26q-129 0 -200 59.5t-66 155.5h791q61 198 27 336.5t-145.5 213t-281.5 74.5q-183 0 -330 -82t-229 -225t-82 -319zM340 623q43 95 128.5 145.5t190.5 50.5 q110 0 171 -50t57 -146h-547zM379 1276q0 77 53 122.5t119 45.5q50 0 85.5 -31.5t35.5 -87.5q0 -78 -53.5 -122t-120.5 -44q-50 0 -84.5 30.5t-34.5 86.5zM844 1276q0 77 53 122.5t119 45.5q50 0 85.5 -31.5t35.5 -87.5q0 -78 -53.5 -122t-120.5 -44q-50 0 -84.5 30.5 t-34.5 86.5z" />
<glyph unicode="&#xec;" horiz-adv-x="530" d="M27 0l180 1010h262l-180 -1010h-262zM162 1419l2 11h268l35 -291l-2 -13h-203z" />
<glyph unicode="&#xed;" horiz-adv-x="530" d="M27 0h262l180 1010h-262zM231 1126l2 13l138 291h268l-2 -11l-203 -293h-203z" />
<glyph unicode="&#xee;" horiz-adv-x="530" d="M25 1130v13l309 299h121l221 -299l-2 -13h-213l-84 107l-125 -107h-227zM27 0l180 1010h262l-180 -1010h-262z" />
<glyph unicode="&#xef;" horiz-adv-x="530" d="M27 0h262l180 1010h-262zM45 1268q0 77 53 122.5t119 45.5q50 0 85.5 -31.5t35.5 -87.5q0 -78 -53.5 -122t-120.5 -44q-50 0 -84.5 30.5t-34.5 86.5zM442 1268q0 77 53 122.5t119 45.5q50 0 85.5 -31.5t35.5 -87.5q0 -78 -53.5 -122t-120.5 -44q-50 0 -84.5 30.5 t-34.5 86.5z" />
<glyph unicode="&#xf0;" horiz-adv-x="1210" d="M47 408q0 142 70 273.5t198.5 216.5t282.5 85q186 0 268 -96q-10 49 -52.5 112t-113.5 117l-88 -84l-100 88l66 66q-85 33 -175 47l82 203q147 -20 258 -74l107 104l106 -88l-92 -88q134 -121 197 -283.5t63 -340.5q0 -327 -164.5 -505.5t-470.5 -178.5q-137 0 -239.5 61 t-152.5 156.5t-50 208.5zM307 442q0 -100 56.5 -168.5t164.5 -68.5q96 0 171 50.5t112 125.5t37 156q0 100 -55.5 167.5t-163.5 67.5q-96 0 -171.5 -50t-113 -124.5t-37.5 -155.5z" />
<glyph unicode="&#xf1;" horiz-adv-x="1253" d="M29 0l178 1012h223l-8 -138q93 77 179 114.5t179 37.5q185 0 283.5 -132.5t58.5 -363.5l-94 -530h-250l92 528q48 271 -194 271q-113 0 -200.5 -82.5t-108.5 -200.5l-91 -516h-247zM395 1272q44 104 123.5 155.5t173.5 28.5q23 -6 54 -22.5t54.5 -29t49.5 -19t50 8 t44 52.5l150 -78q-28 -76 -80.5 -123t-106 -59.5t-102.5 0.5q-23 7 -53.5 25.5t-52.5 31t-48.5 18t-55 -12t-58.5 -60.5z" />
<glyph unicode="&#xf2;" horiz-adv-x="1206" d="M51 416q-1 122 42.5 234t121.5 196t193 134t247 50q208 0 334.5 -126.5t128.5 -315.5q2 -122 -41 -233t-121 -195t-197 -133.5t-261 -49.5q-139 0 -241.5 59t-153.5 157t-52 223zM305 451q0 -104 58 -174t169 -70q100 0 177.5 52t116 129.5t38.5 162.5q0 104 -61 178 t-166 74q-74 0 -138 -30.5t-105.5 -81t-65 -113t-23.5 -127.5zM424 1436l2 10h295l102 -279l-2 -12h-221z" />
<glyph unicode="&#xf3;" horiz-adv-x="1206" d="M51 416q1 -125 52 -223t153.5 -157t241.5 -59q142 0 261 49.5t197 133.5t121 195t41 233q-2 189 -128.5 315.5t-334.5 126.5q-132 0 -247 -50t-193 -134t-121.5 -196t-42.5 -234zM305 451q0 65 23.5 127.5t65 113t105.5 81t138 30.5q105 0 166 -74t61 -178 q0 -85 -38.5 -162.5t-116 -129.5t-177.5 -52q-111 0 -169 70t-58 174zM563 1151l2 12l180 279h295l-2 -10l-241 -281h-234z" />
<glyph unicode="&#xf4;" horiz-adv-x="1206" d="M51 416q-1 122 42.5 234t121.5 196t193 134t247 50q208 0 334.5 -126.5t128.5 -315.5q2 -122 -41 -233t-121 -195t-197 -133.5t-261 -49.5q-139 0 -241.5 59t-153.5 157t-52 223zM305 451q0 -104 58 -174t169 -70q100 0 177.5 52t116 129.5t38.5 162.5q0 104 -61 178 t-166 74q-74 0 -138 -30.5t-105.5 -81t-65 -113t-23.5 -127.5zM326 1145l2 12l352 283h137l254 -283l-2 -12h-231l-111 115l-141 -115h-260z" />
<glyph unicode="&#xf5;" horiz-adv-x="1206" d="M51 416q-1 122 42.5 234t121.5 196t193 134t247 50q208 0 334.5 -126.5t128.5 -315.5q2 -122 -41 -233t-121 -195t-197 -133.5t-261 -49.5q-139 0 -241.5 59t-153.5 157t-52 223zM305 451q0 -104 58 -174t169 -70q100 0 177.5 52t116 129.5t38.5 162.5q0 104 -61 178 t-166 74q-74 0 -138 -30.5t-105.5 -81t-65 -113t-23.5 -127.5zM356 1270q44 104 123.5 155.5t173.5 28.5q23 -6 54 -22.5t54.5 -29t49.5 -19t50 8t44 52.5l150 -78q-28 -76 -80.5 -123t-106 -59.5t-102.5 0.5q-23 7 -53.5 25.5t-52.5 31t-48.5 18t-55 -12t-58.5 -60.5z" />
<glyph unicode="&#xf6;" horiz-adv-x="1206" d="M51 416q1 -125 52 -223t153.5 -157t241.5 -59q142 0 261 49.5t197 133.5t121 195t41 233q-2 189 -128.5 315.5t-334.5 126.5q-132 0 -247 -50t-193 -134t-121.5 -196t-42.5 -234zM305 451q0 65 23.5 127.5t65 113t105.5 81t138 30.5q105 0 166 -74t61 -178 q0 -85 -38.5 -162.5t-116 -129.5t-177.5 -52q-111 0 -169 70t-58 174zM367 1278q0 77 52.5 122.5t119.5 45.5q51 0 85.5 -31t34.5 -88q0 -79 -55 -123.5t-123 -42.5q-49 2 -81.5 32.5t-32.5 84.5zM788 1278q0 77 53.5 122.5t119.5 45.5q51 0 85.5 -31t34.5 -88 q0 -79 -55 -123.5t-123 -42.5q-49 2 -82 32.5t-33 84.5z" />
<glyph unicode="&#xf7;" horiz-adv-x="1122" d="M92 545h916l43 241h-916zM358 258q0 78 53.5 123t120.5 45q54 0 86.5 -30.5t32.5 -86.5q0 -78 -52.5 -123t-119.5 -45q-51 0 -86 30.5t-35 86.5zM494 1018q0 78 53 123t119 45q54 0 86 -30.5t32 -86.5q0 -78 -52 -123t-118 -45q-50 0 -85 30.5t-35 86.5z" />
<glyph unicode="&#xf8;" horiz-adv-x="1200" d="M-18 -133l178 233q-53 54 -81 137.5t-28 176.5q0 123 47.5 235.5t129 196.5t198.5 134t250 50q91 0 176 -29l98 129h236l-176 -229q110 -113 110 -313q0 -163 -78.5 -302t-223.5 -224t-324 -85q-84 0 -172 25l-105 -135h-235zM305 449q0 -72 25 -127l364 475q-27 6 -55 6 q-99 0 -177 -52.5t-117.5 -132.5t-39.5 -169zM481 211q14 -4 51 -4q100 0 177.5 52t116 129t38.5 161q0 73 -24 129z" />
<glyph unicode="&#xf9;" horiz-adv-x="1253" d="M96 479l94 531h248l-92 -529q-12 -58 -10 -108t17.5 -87t57.5 -58t109 -21q115 0 212.5 85.5t117.5 201.5l90 516h250l-176 -1010h-223l4 135q-84 -81 -171.5 -115t-197.5 -34q-186 0 -278 131.5t-52 361.5zM451 1421l2 11h295l102 -279l-2 -12h-221z" />
<glyph unicode="&#xfa;" horiz-adv-x="1253" d="M96 479q-40 -230 52 -361.5t278 -131.5q110 0 197.5 34t171.5 115l-4 -135h223l176 1010h-250l-90 -516q-20 -116 -117.5 -201.5t-212.5 -85.5q-67 0 -109 21t-57.5 58t-17.5 87t10 108l92 529h-248zM565 1141l2 12l181 279h294l-2 -11l-241 -280h-234z" />
<glyph unicode="&#xfb;" horiz-adv-x="1253" d="M96 479l94 531h248l-92 -529q-12 -58 -10 -108t17.5 -87t57.5 -58t109 -21q115 0 212.5 85.5t117.5 201.5l90 516h250l-176 -1010h-223l4 135q-84 -81 -171.5 -115t-197.5 -34q-186 0 -278 131.5t-52 361.5zM348 1147l2 12l352 283h138l254 -283l-2 -12h-232l-110 115 l-142 -115h-260z" />
<glyph unicode="&#xfc;" horiz-adv-x="1253" d="M96 479q-40 -230 52 -361.5t278 -131.5q110 0 197.5 34t171.5 115l-4 -135h223l176 1010h-250l-90 -516q-20 -116 -117.5 -201.5t-212.5 -85.5q-67 0 -109 21t-57.5 58t-17.5 87t10 108l92 529h-248zM352 1296q0 77 53 122.5t119 45.5q50 0 85.5 -31t35.5 -87 q0 -78 -53.5 -122t-120.5 -44q-50 0 -84.5 30t-34.5 86zM870 1296q0 77 53 122.5t119 45.5q50 0 85.5 -31t35.5 -87q0 -78 -53.5 -122t-120.5 -44q-50 0 -84.5 30t-34.5 86z" />
<glyph unicode="&#xfd;" horiz-adv-x="1247" d="M6 -131q-17 -192 100.5 -293.5t325.5 -101.5q105 0 196 28t167 85t129 151.5t75 220.5l187 1051h-248l-90 -516q-21 -120 -111 -201.5t-215 -81.5q-115 0 -158 74t-22 196l92 529h-248l-94 -531q-40 -230 53 -362.5t279 -132.5q115 0 199 31.5t170 119.5l-31 -170 q-13 -72 -44.5 -126t-74.5 -84.5t-90 -45t-96 -14.5q-105 0 -162 38.5t-53 135.5h-236zM561 1141l2 12l180 279h295l-2 -11l-241 -280h-234z" />
<glyph unicode="&#xfe;" d="M-47 -422l328 1856h249l-100 -562q63 75 164 117.5t194 42.5q198 0 316.5 -110.5t118.5 -315.5q0 -148 -48.5 -269t-132.5 -199.5t-196 -120.5t-240 -42q-92 0 -178 39.5t-127 122.5l-98 -559h-250zM385 463q0 -104 68 -175t172 -71q140 0 241 92.5t101 243.5 q0 111 -67.5 174.5t-174.5 63.5q-132 0 -236 -98.5t-104 -229.5z" />
<glyph unicode="&#xff;" horiz-adv-x="1247" d="M6 -131q-17 -192 100.5 -293.5t325.5 -101.5q105 0 196 28t167 85t129 151.5t75 220.5l187 1051h-248l-90 -516q-21 -120 -111 -201.5t-215 -81.5q-115 0 -158 74t-22 196l92 529h-248l-94 -531q-40 -230 53 -362.5t279 -132.5q115 0 199 31.5t170 119.5l-31 -170 q-13 -72 -44.5 -126t-74.5 -84.5t-90 -45t-96 -14.5q-105 0 -162 38.5t-53 135.5h-236zM334 1282q0 73 54 117.5t120 44.5q50 0 85.5 -30.5t35.5 -84.5q0 -76 -53.5 -119t-120.5 -43q-52 0 -86.5 30t-34.5 85zM854 1282q0 73 53 117.5t119 44.5q50 0 85.5 -30.5t35.5 -84.5 q0 -76 -53.5 -119t-120.5 -43q-50 0 -84.5 30.5t-34.5 84.5z" />
<glyph unicode="&#x152;" horiz-adv-x="2113" d="M98 578q0 147 36.5 279t109.5 242.5t177 191.5t246.5 126t309.5 45q131 0 229 -28h936l-43 -246h-686l-61 -342h657l-41 -240h-657l-64 -358h686l-43 -248h-936q-110 -29 -241 -29q-155 0 -274.5 46t-193 129t-110.5 192t-37 240zM375 653q-17 -202 90.5 -327t296.5 -125 q137 0 233 41l170 962q-104 37 -221 37q-169 0 -295 -77.5t-193 -208t-81 -302.5z" />
<glyph unicode="&#x153;" horiz-adv-x="1953" d="M49 416q0 165 76.5 304.5t221 225.5t327.5 86q125 0 216 -53t132 -150q62 91 182 149t252 58q262 0 371.5 -158t27.5 -462h-782q-5 -97 62.5 -156t195.5 -59q73 0 155.5 26t131.5 68l131 -158q-90 -80 -215.5 -122t-247.5 -42q-279 0 -371 207q-93 -107 -195 -155 t-231 -48q-208 0 -324 123.5t-116 315.5zM303 451q0 -104 58 -174t169 -70q100 0 177.5 52t116 129.5t38.5 162.5q0 104 -61 178t-166 74q-74 0 -138 -30.5t-105.5 -81t-65 -113t-23.5 -127.5zM1108 623h549q9 100 -54.5 148t-177.5 48q-105 0 -189.5 -50t-127.5 -146z" />
<glyph unicode="&#x178;" horiz-adv-x="1421" d="M156 1421l405 -829l-104 -592h270l102 575l719 846l2 13h-325l-490 -592l-258 592h-319zM492 1696q0 73 52.5 117.5t117.5 44.5q50 0 85 -30.5t35 -84.5q0 -74 -53.5 -117t-120.5 -43q-49 0 -82.5 29.5t-33.5 83.5zM1008 1696q0 73 53 117.5t119 44.5q50 0 85 -30.5 t35 -84.5q0 -74 -53.5 -117t-120.5 -43q-50 0 -84 29.5t-34 83.5z" />
<glyph unicode="&#x2c6;" horiz-adv-x="870" d="M252 1169l2 13l352 282h137l254 -282l-2 -13h-231l-111 115l-141 -115h-260z" />
<glyph unicode="&#x2dc;" horiz-adv-x="821" d="M305 1401q44 104 123.5 155.5t173.5 28.5q23 -6 54 -22.5t54.5 -29t49.5 -19t50 8t44 52.5l150 -78q-28 -76 -80.5 -123t-106 -59.5t-102.5 0.5q-23 7 -53.5 25.5t-53 31t-49 18t-55 -12t-58.5 -60.5z" />
<glyph unicode="&#x2000;" horiz-adv-x="947" />
<glyph unicode="&#x2001;" horiz-adv-x="1894" />
<glyph unicode="&#x2002;" horiz-adv-x="947" />
<glyph unicode="&#x2003;" horiz-adv-x="1894" />
<glyph unicode="&#x2004;" horiz-adv-x="631" />
<glyph unicode="&#x2005;" horiz-adv-x="473" />
<glyph unicode="&#x2006;" horiz-adv-x="315" />
<glyph unicode="&#x2007;" horiz-adv-x="315" />
<glyph unicode="&#x2008;" horiz-adv-x="236" />
<glyph unicode="&#x2009;" horiz-adv-x="378" />
<glyph unicode="&#x200a;" horiz-adv-x="105" />
<glyph unicode="&#x2010;" horiz-adv-x="1011" d="M104 477l41 230h756l-41 -230h-756z" />
<glyph unicode="&#x2011;" horiz-adv-x="1011" d="M104 477l41 230h756l-41 -230h-756z" />
<glyph unicode="&#x2012;" horiz-adv-x="1011" d="M104 477l41 230h756l-41 -230h-756z" />
<glyph unicode="&#x2013;" horiz-adv-x="1232" d="M109 473l38 221h969l-39 -221h-968z" />
<glyph unicode="&#x2014;" horiz-adv-x="1419" d="M102 477l39 221h1166l-39 -221h-1166z" />
<glyph unicode="&#x2018;" horiz-adv-x="534" d="M156 975l241 461h197l-180 -461h-258z" />
<glyph unicode="&#x2019;" horiz-adv-x="524" d="M166 973l180 461h258l-242 -461h-196z" />
<glyph unicode="&#x201a;" horiz-adv-x="542" d="M-68 -248l150 410h258l-211 -410h-197z" />
<glyph unicode="&#x201c;" horiz-adv-x="894" d="M156 971l241 461h197l-180 -461h-258zM514 971l242 461h196l-180 -461h-258z" />
<glyph unicode="&#x201d;" horiz-adv-x="888" d="M166 973l180 461h258l-242 -461h-196zM530 973l181 461h258l-242 -461h-197z" />
<glyph unicode="&#x201e;" horiz-adv-x="935" d="M-68 -248l150 410h258l-211 -410h-197zM326 -248l149 410h258l-211 -410h-196z" />
<glyph unicode="&#x2022;" horiz-adv-x="841" d="M143 522q0 129 94 215t224 86q98 0 159.5 -60t61.5 -157q0 -130 -92.5 -215.5t-220.5 -85.5q-102 0 -164 59.5t-62 157.5z" />
<glyph unicode="&#x2026;" horiz-adv-x="1505" d="M27 109q0 80 54.5 125t123.5 45q52 0 87.5 -32t35.5 -89q0 -80 -52.5 -125t-121.5 -45q-55 0 -91 31.5t-36 89.5zM522 109q0 80 54.5 125t123.5 45q52 0 87.5 -32t35.5 -89q0 -80 -52.5 -125t-121.5 -45q-55 0 -91 31.5t-36 89.5zM1018 109q0 80 54.5 125t123.5 45 q52 0 87.5 -32t35.5 -89q0 -80 -52.5 -125t-121.5 -45q-55 0 -91 31.5t-36 89.5z" />
<glyph unicode="&#x202f;" horiz-adv-x="378" />
<glyph unicode="&#x2039;" horiz-adv-x="704" d="M74 606l364 453h267l-363 -453l203 -454h-266z" />
<glyph unicode="&#x203a;" horiz-adv-x="704" d="M2 158l363 454l-203 453h266l205 -453l-365 -454h-266z" />
<glyph unicode="&#x205f;" horiz-adv-x="473" />
<glyph unicode="&#x20ac;" horiz-adv-x="1259" d="M63 461l35 198h103q13 77 20 109h-104l37 201h145q107 248 300.5 370.5t490.5 122.5q120 0 215 -32l-121 -228q-85 25 -173 22t-167 -29t-149.5 -83.5t-121.5 -142.5h467l-82 -201h-477q-16 -69 -18 -109h444l-76 -198h-354q24 -132 120.5 -190t272.5 -58q84 0 179 31 l32 -242q-122 -35 -254 -35q-300 0 -453 133.5t-171 360.5h-140z" />
<glyph unicode="&#x2122;" horiz-adv-x="1695" d="M240 1272l28 164h586l-29 -164h-196l-76 -434h-195l76 434h-194zM850 838l104 600h205l127 -199l197 199h205l-105 -600h-199l31 178l45 174l-203 -219h-40l-121 219l-17 -174l-30 -178h-199z" />
<glyph unicode="&#x25fc;" horiz-adv-x="1013" d="M0 0v1014h1014v-1014h-1014z" />
<glyph unicode="&#xfb01;" horiz-adv-x="1304" d="M82 778l39 217h188l13 68q35 192 163 293.5t291 101.5q109 0 203 -55l-113 -195q-56 35 -112 35q-68 0 -117 -45.5t-66 -134.5l-12 -68h295l-39 -217h-295l-137 -778h-250l137 778h-188zM817 0l178 1014h250l-178 -1014h-250zM1020 1270q0 79 52.5 124.5t123.5 45.5 q55 0 90 -31.5t35 -89.5q0 -80 -52.5 -125t-123.5 -45q-55 0 -90 31.5t-35 89.5z" />
<glyph unicode="&#xfb02;" horiz-adv-x="1300" d="M82 776l39 219h188l13 68q35 192 163 293.5t291 101.5q102 0 191 -45l-95 -203q-51 33 -118 33q-68 0 -117 -45.5t-66 -134.5l-12 -68h277l-39 -219h-277l-137 -776h-250l137 776h-188zM805 0l252 1432h248l-252 -1432h-248z" />
</font>
</defs>
</svg>
