<?xml version="1.0" standalone="no"?>
<!DOCTYPE svg PUBLIC "-//W3C//DTD SVG 1.1//EN" "http://www.w3.org/Graphics/SVG/1.1/DTD/svg11.dtd" >
<svg xmlns="http://www.w3.org/2000/svg">
<metadata></metadata>
<defs>
<font id="nexa_thinregular" horiz-adv-x="1292" >
<font-face units-per-em="2048" ascent="1536" descent="-512" />
<missing-glyph horiz-adv-x="555" />
<glyph horiz-adv-x="2048" />
<glyph horiz-adv-x="2048" />
<glyph horiz-adv-x="682" />
<glyph unicode="&#xd;" horiz-adv-x="720" />
<glyph unicode=" "  horiz-adv-x="555" />
<glyph unicode="&#x09;" horiz-adv-x="555" />
<glyph unicode="&#xa0;" horiz-adv-x="555" />
<glyph unicode="!" horiz-adv-x="464" d="M180 53q0 34 28 48t56.5 0t28.5 -48q0 -26 -17.5 -41t-39 -15t-39 15t-17.5 41zM201 268v1166h63v-1166h-63z" />
<glyph unicode="&#x22;" horiz-adv-x="645" d="M162 926v518h57v-518h-57zM428 926v518h55v-518h-55z" />
<glyph unicode="#" horiz-adv-x="1253" d="M78 369v43h174l162 630h-174v39h184l86 353h49l-86 -353h459l88 353h49l-88 -353h197v-39h-205l-160 -630h203v-43h-213l-90 -369h-49l90 369h-459l-90 -369h-49l90 369h-168zM307 416h453l158 622h-451z" />
<glyph unicode="$" horiz-adv-x="1304" d="M90 266l64 35q33 -63 92 -109t131 -70t141.5 -35t140.5 -11q57 0 117.5 8t127.5 29.5t119 53.5t86 85t34 119q1 66 -28.5 117.5t-66 81.5t-113 57.5t-123.5 38.5t-145 31q-16 3 -24 5q-208 45 -289 77q-173 67 -215 194q-12 39 -14 84q-2 77 28.5 141t81.5 106.5 t118.5 72.5t137 44t140.5 17v211h51v-211q153 -5 288.5 -66t200.5 -176l-65 -41q-30 57 -82 99.5t-115.5 65t-125 33.5t-126.5 13q-44 0 -92.5 -7t-102 -21t-101 -38.5t-85.5 -56.5t-59.5 -78.5t-19.5 -101.5q1 -46 17 -83.5t49.5 -66t70 -49t95 -38.5t108.5 -29.5 t125 -26.5q206 -44 281 -70q184 -64 240 -189q27 -61 27 -142q-1 -77 -34.5 -140t-87 -103.5t-124.5 -69t-141.5 -41t-142.5 -15.5v-199h-49v201q-79 2 -157 17.5t-152 46.5t-135.5 82.5t-96.5 117.5z" />
<glyph unicode="%" horiz-adv-x="1456" d="M81 1139q0 56 20 110.5t57 96.5t97 68t134 26t134.5 -26t97.5 -68t57 -96.5t20 -110.5t-20 -110.5t-57 -96.5t-97.5 -68t-134.5 -26t-134 26t-97 68t-57 96.5t-20 110.5zM145.5 1099.5q4.5 -40.5 25 -77.5t49.5 -65t73.5 -45t97.5 -17t97.5 17t73.5 45t48.5 65t24 77.5 t0 81.5t-25 78t-49.5 65t-73.5 45t-97.5 17t-97.5 -17t-73.5 -45t-48.5 -65t-24 -78t0 -81.5zM240 0l905 1438h69l-905 -1438h-69zM759 285q0 56 20 110.5t57 96.5t97 68t134 26t134.5 -26t97.5 -68t57 -96.5t20 -110.5t-20 -110.5t-57 -96.5t-97.5 -68t-134.5 -26t-134 26 t-97 68t-57 96.5t-20 110.5zM823.5 245.5q4.5 -40.5 25 -77.5t49.5 -65t73.5 -45t97.5 -17t97.5 17t73.5 45t48.5 65t24 77.5t0 81.5t-25 78t-49.5 65t-73.5 45t-97.5 17t-97.5 -17t-73.5 -45t-48.5 -65t-24 -78t0 -81.5z" />
<glyph unicode="&#x26;" horiz-adv-x="1390" d="M133 367q0 69 27 130.5t72 106t97 76.5t109 51q-122 36 -202 126t-80 212q0 77 30.5 142.5t90 117t157 80.5t223.5 29q61 0 111.5 -5t103.5 -18t93 -38t72 -61.5t48.5 -92.5t16.5 -127h-55q0 73 -22 126t-56.5 83t-88.5 48t-105.5 23.5t-119.5 5.5q-211 0 -323.5 -85 t-110.5 -226q1 -68 29.5 -122.5t72.5 -89t103 -57.5t117.5 -32.5t118.5 -9.5h593v-58h-135v-337q0 -70 8.5 -124.5t28.5 -102t59 -72t95 -23.5v-41q-85 -14 -148 39t-84 141q-39 -62 -89.5 -104t-108.5 -62t-110.5 -27t-117.5 -7q-256 0 -388 106t-132 279zM197 369 q0 -152 111 -240t343 -88q60 0 114.5 8t111.5 30.5t99 57t68.5 93.5t26.5 135v337h-414q-109 0 -199 -29t-145.5 -77t-85.5 -106.5t-30 -120.5z" />
<glyph unicode="'" horiz-adv-x="378" d="M162 926v518h55v-518h-55z" />
<glyph unicode="(" horiz-adv-x="641" d="M109 610q0 279 113.5 518.5t328.5 376.5l37 -53q-200 -134 -305.5 -347t-108.5 -491q-3 -258 101.5 -486t310.5 -374l-33 -53q-214 138 -329 384t-115 525z" />
<glyph unicode=")" horiz-adv-x="643" d="M53 1452l37 53q215 -137 328.5 -376.5t113.5 -518.5t-115 -525t-329 -384l-33 53q206 146 310.5 374t101.5 486q-3 278 -108.5 491t-305.5 347z" />
<glyph unicode="*" horiz-adv-x="679" d="M141 1272l15 45l153 -47v157h56v-157l167 45l15 -45l-170 -47l104 -140l-45 -32l-100 143l-107 -143l-45 30l113 142z" />
<glyph unicode="+" horiz-adv-x="1024" d="M111 664v67h372v365h60v-365h370v-67h-370v-375h-60v375h-372z" />
<glyph unicode="," horiz-adv-x="407" d="M121 -162l61 152q-35 10 -35 49q0 36 28.5 51t56.5 0.5t28 -51.5q0 -13 -16 -53l-64 -148h-59z" />
<glyph unicode="-" horiz-adv-x="1017" d="M156 559v62h706v-62h-706z" />
<glyph unicode="." horiz-adv-x="419" d="M154 45q0 35 28 49.5t56 0t28 -49.5q0 -36 -28 -50.5t-56 0t-28 50.5z" />
<glyph unicode="/" horiz-adv-x="974" d="M59 -168l785 1718h74l-787 -1718h-72z" />
<glyph unicode="0" horiz-adv-x="1359" d="M147 532v371q0 131 46 237.5t120.5 172t170.5 100.5t195.5 35t195.5 -35.5t170.5 -101t120.5 -171.5t46 -237v-371q0 -131 -46 -237t-120.5 -171.5t-170.5 -101t-195.5 -35.5t-195.5 35t-170.5 100.5t-120.5 172t-46 237.5zM217 532q0 -116 40 -209t105 -150.5t148 -88.5 t170 -30.5t170 31.5t148 88.5t105 150.5t40 208v371q0 115 -40 208t-105 150t-148 88.5t-170 31.5t-170 -31t-148 -88.5t-105 -150.5t-40 -208v-371z" />
<glyph unicode="1" horiz-adv-x="792" d="M96 0v63h287v1301l-272 -66v60l344 76v-1371h290v-63h-649z" />
<glyph unicode="2" horiz-adv-x="1363" d="M141 0v311q0 90 33 160.5t85.5 113t126.5 69.5t148 37.5t158 10.5q54 0 108 7.5t110 23t103.5 42.5t85.5 63t59.5 88.5t21.5 115.5q0 79 -32 141.5t-82 100.5t-117 63t-131 34.5t-130 9.5q-64 0 -125.5 -9t-125.5 -32t-111.5 -59t-77.5 -95.5t-29 -134.5h-69 q-2 86 29.5 154.5t84 112t124 72t146 40.5t154.5 12q82 0 158.5 -13.5t148.5 -44.5t125.5 -77.5t86.5 -117.5t34 -159q0 -98 -50.5 -177.5t-131 -127.5t-174 -73t-187.5 -25q-487 -4 -487 -324v-243h1010v-70h-1080z" />
<glyph unicode="3" horiz-adv-x="1349" d="M125 350h65q0 -59 18 -106t45 -78t69.5 -54t82 -34.5t93.5 -18.5t93.5 -8.5t90.5 -1.5q124 0 218 27t148.5 73t81.5 102t27 120q0 63 -33 122.5t-92.5 107.5t-152.5 77t-203 29h-240v59h236q114 0 205.5 30t145.5 78.5t82.5 103t29.5 109.5q2 131 -120.5 220.5 t-338.5 89.5q-465 0 -465 -301h-64q1 85 34 150t84.5 103t123.5 62t140 32.5t145 8.5q129 0 230.5 -30t163 -81.5t93.5 -116t33 -137.5q0 -125 -97 -224.5t-233 -123.5q141 -23 248 -126.5t107 -237.5q0 -76 -31.5 -144t-94 -125t-169.5 -90.5t-244 -33.5q-56 0 -107.5 4 t-108 15.5t-104.5 29t-92.5 46t-75 66t-49 90.5t-18.5 117z" />
<glyph unicode="4" horiz-adv-x="1302" d="M57 403l901 1031h68v-1033h184v-65h-184v-336h-72v336h-888zM139 401h815v926z" />
<glyph unicode="5" horiz-adv-x="1343" d="M133 387h72q0 -319 477 -319q127 0 222.5 28t151 78t82.5 113t27 139q0 379 -428 379h-567v629h987v-60h-926v-510h506q118 0 209 -27t144.5 -69t88 -101.5t46.5 -116t12 -120.5q0 -67 -19 -128.5t-61.5 -118.5t-105.5 -99t-158.5 -67t-212.5 -25q-79 0 -151.5 10.5 t-146 38t-127 71t-87.5 114t-35 161.5z" />
<glyph unicode="6" horiz-adv-x="1402" d="M176 424v649q0 93 45.5 167.5t122 119.5t170.5 68.5t197 23.5q143 0 258 -38.5t190.5 -118t87.5 -189.5h-71q-12 133 -141 208t-326 75q-120 -1 -222.5 -34.5t-171.5 -106.5t-69 -173v-452q85 120 212.5 175.5t276.5 55.5q82 0 159.5 -15.5t149 -49.5t125 -83.5 t85.5 -123t32 -162.5q0 -95 -32.5 -170.5t-85.5 -124t-126 -80.5t-149 -45.5t-160 -13.5t-161.5 14t-150.5 47t-126.5 82.5t-86 125t-32.5 169.5zM248 422q-1 -81 29 -146t79 -105.5t114.5 -67.5t130.5 -37.5t132 -10.5q69 0 132.5 10t129 36t113.5 65.5t78.5 105 t30.5 148.5q0 78 -30 142t-78.5 104.5t-113 68.5t-129.5 39.5t-131 11.5q-83 0 -165.5 -22t-155.5 -64t-119 -114.5t-47 -163.5z" />
<glyph unicode="7" horiz-adv-x="1153" d="M70 1370v64h1042l14 -78l-813 -1356h-77l821 1370h-987z" />
<glyph unicode="8" horiz-adv-x="1433" d="M131 362q0 79 31 147t82.5 114.5t113.5 76.5t129 41q-333 89 -333 342q0 86 37 155t94.5 110.5t134 69t149.5 38t148 10.5q76 0 148 -10t149 -36.5t134 -68t94 -110.5t38 -158q0 -247 -342 -346q66 -11 129.5 -41.5t116 -77t84.5 -113.5t32 -143q-1 -87 -38 -156.5 t-95.5 -113t-136.5 -72t-155.5 -40t-157.5 -11.5t-157.5 11.5t-156 40.5t-137.5 72.5t-96.5 112.5t-38.5 156zM201 365q0 -77 39 -137.5t96.5 -95t131 -57t134.5 -30.5t115 -8q53 0 114 8t134.5 31t131 57.5t97.5 95t41 136.5q0 75 -38.5 137t-96.5 100t-130 64t-135.5 36.5 t-117.5 10.5q-55 0 -118.5 -10t-136 -35.5t-129.5 -63t-95 -100t-37 -139.5zM219 1081q0 -69 35.5 -124t89 -87t123.5 -53.5t131 -29t119 -7.5q57 0 118.5 7.5t131 29t123.5 53.5t89.5 87t34.5 124q0 73 -35.5 131.5t-89 93.5t-122.5 58.5t-131 32t-119 8.5t-116 -7.5 t-129.5 -29.5t-124.5 -56t-90.5 -94t-37.5 -137z" />
<glyph unicode="9" horiz-adv-x="1400" d="M115 1018q0 95 32.5 170.5t85.5 124t126 80.5t149 45.5t160 13.5q83 0 160.5 -14t150.5 -47t127 -82.5t86.5 -125t32.5 -169.5v-649q0 -93 -45.5 -167.5t-122 -119.5t-170.5 -68.5t-197 -23.5q-219 0 -368 90.5t-166 255.5h71q10 -133 139 -208t326 -75q88 1 169.5 21 t148.5 57.5t107 98.5t40 136v453q-82 -116 -213.5 -173.5t-277.5 -57.5q-82 0 -159.5 15.5t-149 49.5t-125 83.5t-85.5 123t-32 162.5zM182 1018q0 -80 30.5 -144t79 -105t113 -68t129.5 -38.5t132 -11.5q83 0 165.5 22t155 64.5t119 115t47.5 163.5q1 82 -29.5 146.5 t-79 105t-114 67t-130.5 37t-132 10.5q-69 0 -133 -9.5t-129.5 -35.5t-114 -65.5t-79 -105t-30.5 -148.5z" />
<glyph unicode=":" horiz-adv-x="440" d="M156 45q0 40 32 56t64.5 0t32.5 -56q0 -30 -20 -47.5t-44.5 -17.5t-44.5 17.5t-20 47.5zM156 664q0 30 20 47.5t44.5 17.5t44.5 -17.5t20 -47.5t-20 -47.5t-44.5 -17.5t-44.5 17.5t-20 47.5z" />
<glyph unicode=";" horiz-adv-x="481" d="M152 -178l69 162q-39 20 -39 65q0 25 13.5 41.5t33 21t38.5 1t32.5 -20t13.5 -41.5q0 -14 -75 -203l-16 -37q0 3 3 11h-73zM182 664q0 30 20 47.5t44.5 17.5t44.5 -17.5t20 -47.5t-20 -47.5t-44.5 -17.5t-44.5 17.5t-20 47.5z" />
<glyph unicode="&#x3c;" horiz-adv-x="724" d="M125 606v92l424 359l37 -43l-412 -361l422 -362l-47 -45z" />
<glyph unicode="=" horiz-adv-x="1128" d="M164 420v69h801v-69h-801zM164 809v72h801v-72h-801z" />
<glyph unicode="&#x3e;" horiz-adv-x="722" d="M129 293l422 360l-412 357l37 47l422 -359v-92l-422 -360z" />
<glyph unicode="?" horiz-adv-x="1198" d="M78 1049q-1 91 25.5 163t71.5 118t108 76.5t131.5 43t146.5 12.5q83 0 157 -11t147.5 -40.5t127 -75t87 -120t34.5 -171.5q0 -79 -16 -141t-41 -101.5t-62 -68t-73 -43t-80 -24.5q-70 -20 -109.5 -34t-76 -37t-53 -46.5t-29.5 -67t-16 -93.5t-3 -130h-63 q-1 111 12.5 182.5t52 129.5t106 94.5t177.5 66.5q50 12 85 30t66.5 52t47.5 92t16 139q0 85 -31.5 150.5t-80 103.5t-116.5 61.5t-131.5 31.5t-134.5 8q-418 0 -420 -350h-63zM475 53q0 28 18.5 44.5t41 16.5t41 -16.5t18.5 -44.5t-18.5 -44.5t-41 -16.5t-41 16.5 t-18.5 44.5z" />
<glyph unicode="@" horiz-adv-x="1814" d="M119 662q0 125 32 240.5t97.5 215t158 173t220.5 115.5t278 42q131 0 249.5 -31.5t220.5 -97.5t176 -160.5t116.5 -227t42.5 -290.5q0 -48 -3 -92t-10.5 -100t-23.5 -100.5t-39.5 -83.5t-61 -61t-85.5 -22q-66 -2 -110.5 44.5t-47.5 146.5q-61 -109 -181 -177.5 t-255 -68.5q-139 0 -257 70t-186.5 189t-68.5 257q0 155 68.5 273.5t184 180.5t257.5 62q139 0 258.5 -66t185.5 -194l-2 215h62v-739q-1 -67 26.5 -101t65.5 -34q49 0 82.5 38.5t49.5 103.5t22 127t6 132q0 178 -56 320.5t-155.5 234.5t-234.5 141t-296 49 q-167 0 -304 -56.5t-227.5 -154.5t-140 -230t-49.5 -283q0 -205 84.5 -364t249.5 -251t389 -92q205 0 328 90l35 -55q-157 -101 -361 -101q-189 0 -341 61.5t-249 168.5t-148.5 246t-51.5 297zM446 643q0 -186 133 -318t314 -132q108 0 195 38.5t140.5 103t82 143 t28.5 163.5t-28.5 164t-82.5 144t-141.5 104t-195.5 39q-121 0 -221 -51.5t-162 -155t-62 -242.5z" />
<glyph unicode="A" horiz-adv-x="1495" d="M66 0l643 1434h77l644 -1434h-78l-166 373h-879l-164 -373h-77zM332 436h827l-411 936z" />
<glyph unicode="B" horiz-adv-x="1415" d="M213 0v1434h565q90 0 171 -22.5t148.5 -67t107.5 -120.5t40 -175q0 -117 -70 -203.5t-184 -114.5q148 -38 226.5 -134t78.5 -235q0 -85 -32 -150.5t-82.5 -104.5t-121 -64t-138.5 -34t-144 -9h-565zM279 63h499q66 0 123.5 6.5t120.5 26.5t107 52t73 87.5t29 129.5 q-1 89 -38.5 156t-101 104t-137 55t-157.5 18h-518v-635zM279 762h518q56 0 106.5 7t102.5 27t89 51t61 83.5t24 120.5q0 72 -25 129t-64.5 92t-93.5 57.5t-107.5 31.5t-111.5 9h-499v-608z" />
<glyph unicode="C" horiz-adv-x="1474" d="M119 709v12q1 139 45 267q46 132 135.5 235.5t232 165t318.5 61.5q143 0 278 -54t238 -159l-45 -43q-96 96 -218 144t-253 48q-159 0 -287.5 -53.5t-210.5 -146t-126 -214.5q-43 -119 -42 -255v-6q2 -136 46.5 -255t127 -209.5t209.5 -143t283 -52.5q129 0 251.5 49.5 t217.5 143.5l47 -41q-103 -105 -239 -160t-277 -55q-138 0 -256.5 37.5t-204.5 104.5t-147 157.5t-91.5 197.5t-31.5 224z" />
<glyph unicode="D" horiz-adv-x="1527" d="M213 0v1434h465q142 0 261 -38t203.5 -103.5t144 -155t89.5 -191.5t33 -213v-16q-1 -106 -25 -205q-26 -106 -85 -199.5t-144 -163t-208 -109.5t-269 -40h-465zM279 63h399q132 0 242.5 36.5t188.5 100t132 149t79 183.5q23 90 23 186v15q-2 100 -29 193t-81.5 174 t-131.5 141t-186 94.5t-237 34.5h-399v-1307z" />
<glyph unicode="E" horiz-adv-x="1335" d="M213 0v1434h969v-64h-903v-614h860v-64h-860v-629h933v-63h-999z" />
<glyph unicode="F" horiz-adv-x="1282" d="M213 -2v1436h948v-64h-882v-625h856v-63h-856v-684h-66z" />
<glyph unicode="G" horiz-adv-x="1527" d="M121 722q0 221 95 387q97 168 263 254.5t377 86.5q294 0 510 -213l-43 -47q-97 97 -217 146.5t-250 49.5q-163 0 -293.5 -54.5t-211.5 -147.5t-123 -212q-42 -116 -42 -247v-6q0 -137 44.5 -257.5t127 -213t211.5 -146t287 -53.5q126 0 255.5 52t211.5 139v426h-537v63 h603v-518q-107 -110 -243.5 -167.5t-289.5 -57.5q-173 0 -314.5 58.5t-232 159t-139.5 232.5t-49 286z" />
<glyph unicode="H" horiz-adv-x="1533" d="M213 0v1434h66v-701h976v701h66v-1434h-66v670h-976v-670h-66z" />
<glyph unicode="I" horiz-adv-x="491" d="M213 0v1434h66v-1434h-66z" />
<glyph unicode="J" horiz-adv-x="1359" d="M63 526h60q0 -136 66 -247.5t178 -173.5t245 -62q137 0 245 53t174.5 163t66.5 263v848h-580v64h645v-912q0 -127 -42.5 -230.5t-117 -171t-175 -104t-216.5 -36.5q-156 0 -281.5 70.5t-196.5 195.5t-71 280z" />
<glyph unicode="K" horiz-adv-x="1167" d="M209 2v1432h65v-666l734 666h82v-11l-748 -673l815 -744v-6h-90l-793 725v-723h-65z" />
<glyph unicode="L" horiz-adv-x="1144" d="M213 0v1434h66v-1371h829v-63h-895z" />
<glyph unicode="M" horiz-adv-x="1742" d="M213 0v1434h86l573 -889l566 889h92v-1434h-66v1350l-579 -906h-21l-585 902v-1346h-66z" />
<glyph unicode="N" horiz-adv-x="1515" d="M213 0v1434h6l1024 -1262l-6 332v930h66v-1434l-1031 1268l7 -338v-930h-66z" />
<glyph unicode="O" horiz-adv-x="1673" d="M117 721q0 108 26 210.5t83 197.5t139 166.5t203 114t266 42.5h6q172 0 310 -60q140 -62 227 -166t133 -234.5t46 -274.5q-1 -145 -47.5 -275.5t-133.5 -234.5t-226.5 -165.5t-312.5 -61.5q-139 0 -257 40.5t-202 111t-143.5 165t-88 202t-28.5 222.5zM182 719 q1 -103 27 -200.5t80.5 -183.5t130.5 -151t183.5 -103t232.5 -38t232.5 37t184 101t131.5 150q56 86 82 184q26 94 25 194v8q0 108 -26.5 206.5t-81 183.5t-131.5 148t-184.5 98.5t-233.5 35.5q-128 0 -236 -37.5t-184 -101.5t-129 -150t-79 -182q-25 -93 -24 -191v-8z" />
<glyph unicode="P" horiz-adv-x="1359" d="M213 0v1434h616q124 0 221 -51t147.5 -132t74.5 -179q12 -49 12 -98q0 -50 -12 -99q-24 -98 -74.5 -179t-147.5 -131.5t-221 -50.5h-550v-514h-66zM279 578h550q93 0 167.5 34t121 89.5t71 127t24.5 145.5t-24.5 145.5t-71 127t-121 89.5t-167.5 34h-550v-792z" />
<glyph unicode="Q" horiz-adv-x="1677" d="M119 731q2 145 51.5 274t138.5 228t227 157t306 58q169 0 308 -60t228 -162t137 -234q46 -127 46 -267v-12q0 -134 -47 -266t-132 -232l189 -176l-41 -43l-191 172q-193 -180 -497 -180q-141 0 -260.5 39t-204.5 107.5t-144.5 162.5t-87.5 203q-26 103 -26 215v16z M184 731q0 -112 25.5 -213t79 -186.5t130.5 -148t185 -97.5t238 -35q156 0 282 53.5t205.5 145.5t122 210t43.5 251v8q0 106 -25 202q-26 100 -80.5 184.5t-132 146.5t-184 97t-231.5 35q-184 0 -334 -82.5t-237 -232.5t-87 -338z" />
<glyph unicode="R" horiz-adv-x="1417" d="M213 0v1434h618q88 0 162.5 -25t126 -67t88.5 -98.5t54 -119.5t18 -129v-6q0 -89 -28 -166q-28 -79 -84.5 -140t-150.5 -93q-81 -28 -184 -28q-16 0 -32 1l522 -563h-88l-520 563h-436v-563h-66zM279 627h536q196 0 297.5 98.5t101.5 269.5q0 72 -24.5 138t-71 119.5 t-121 85.5t-166.5 32h-552v-743z" />
<glyph unicode="S" horiz-adv-x="1337" d="M100 283l58 32q35 -66 96.5 -119.5t133.5 -85t147 -48.5t145 -17q49 0 97.5 5t107 17t107 36.5t89.5 58.5t64.5 88t23.5 121q1 66 -29.5 118t-63.5 81.5t-113.5 58t-120 38t-143.5 30.5q-25 5 -37 8q-207 45 -283 73q-182 65 -225 187q-15 43 -15 94v12q1 67 21 123 q22 60 63.5 101.5t94 72t115 47.5t121.5 25t120 8q333 0 504 -211l-45 -45q-77 105 -200.5 148.5t-260.5 43.5q-40 0 -78 -3t-86 -12t-89 -23t-81.5 -39.5t-69 -58.5t-46 -81.5t-17.5 -107.5q0 -32 8.5 -60t21 -49.5t36.5 -41.5t45.5 -34t59 -28t65 -23t75 -20t79 -17.5 t85.5 -17.5q211 -45 292 -73q189 -69 241 -199q22 -56 22 -125q0 -67 -20 -123.5t-52.5 -95.5t-78 -70t-94.5 -49.5t-105 -30t-105 -16t-100 -4.5q-80 0 -162.5 18t-162 53.5t-147 95t-108.5 134.5z" />
<glyph unicode="T" horiz-adv-x="1202" d="M31 1370v64h1140v-64h-538v-1370h-66v1370h-536z" />
<glyph unicode="U" horiz-adv-x="1449" d="M197 526v908h65v-908q0 -97 27 -178t72 -135.5t105 -92.5t125 -55.5t132 -17.5q68 0 133 17t125.5 55t106 92.5t73 136t27.5 178.5v908h65v-908q0 -109 -31 -200t-82.5 -153t-120.5 -105t-143.5 -63t-152.5 -21q-79 0 -154 20.5t-142.5 64.5t-118.5 106.5t-81 153 t-30 197.5z" />
<glyph unicode="V" horiz-adv-x="1404" d="M74 1434h73l555 -1360l555 1360h72l-588 -1438h-77z" />
<glyph unicode="W" horiz-adv-x="2215" d="M90 1434h70l469 -1381l463 1381h32l459 -1381l475 1381h72l-504 -1438h-92l-240 725l-186 586l-188 -580l-244 -731h-90z" />
<glyph unicode="X" horiz-adv-x="1204" d="M27 0l532 737l-487 697h75l455 -646l457 646h74l-490 -697l535 -737h-82l-254 352l-240 340l-250 -352l-243 -340h-82z" />
<glyph unicode="Y" horiz-adv-x="1331" d="M70 1434h77l519 -803l516 803h78l-562 -865v-569h-65v569z" />
<glyph unicode="Z" horiz-adv-x="1187" d="M39 0v20l969 1352h-893v62h1003v-17l-971 -1354h971v-63h-1079z" />
<glyph unicode="[" horiz-adv-x="606" d="M195 -336v1802h340v-67h-269v-1667h269v-68h-340z" />
<glyph unicode="\" horiz-adv-x="974" d="M59 1550h72l784 -1718h-69z" />
<glyph unicode="]" horiz-adv-x="602" d="M68 -266h270v1667h-270v67h340v-1802h-340v68z" />
<glyph unicode="^" horiz-adv-x="1140" d="M113 809l415 625h88l412 -625l-4 -4h-66l-387 592l-385 -592h-69z" />
<glyph unicode="_" horiz-adv-x="1267" d="M156 -66h956v-63h-956v63z" />
<glyph unicode="`" horiz-adv-x="477" d="M82 1436h80l155 -238v-6h-61z" />
<glyph unicode="a" d="M106 506q0 154 69 273.5t184 182t255 62.5q71 0 142 -19t134 -55t111 -94t68 -131l-12 164v123h61v-1012h-61v129l12 145q-50 -140 -179 -214q-126 -73 -265 -72h-7q-141 0 -256.5 61.5t-185.5 181t-70 275.5zM168 506q0 -140 62.5 -246t164.5 -159.5t226 -53.5 q111 0 197 38t137.5 104t77.5 148.5t26 178.5q0 91 -28.5 171t-83 142.5t-141 99t-194.5 36.5q-124 0 -224 -54t-160 -159.5t-60 -245.5z" />
<glyph unicode="b" d="M174 0v1436h62v-547l-13 -164q20 73 68 131t111 94t134 55t142 19q139 0 254.5 -63.5t184.5 -183t69 -271.5q0 -156 -70 -275.5t-185.5 -181t-256.5 -61.5h-7q-139 0 -265 72q-129 74 -179 214l13 -145v-129h-62zM233 516q0 -96 26 -178.5t77.5 -148.5t138 -104 t197.5 -38q93 0 174.5 30.5t143.5 87.5t98 145t36 196q0 140 -60 245.5t-160 159.5t-224 54q-108 0 -194.5 -36.5t-141 -99t-83 -142.5t-28.5 -171z" />
<glyph unicode="c" horiz-adv-x="1085" d="M106 506q0 152 68.5 270t186.5 181t264 63q98 0 196 -40t172 -112l-41 -39q-62 65 -149 98.5t-180 33.5q-92 0 -174 -30t-145 -85.5t-99.5 -143.5t-36.5 -196q0 -141 63 -246t165.5 -157t228.5 -52q89 0 173.5 33.5t147.5 97.5l41 -41q-72 -72 -167.5 -110.5 t-194.5 -38.5q-142 0 -259.5 63t-188.5 181.5t-71 269.5z" />
<glyph unicode="d" d="M106 506q0 154 69 273.5t184 182t255 62.5q71 0 142 -19t134 -55t111 -94t68 -131l-12 164v543h61v-1432h-61v129l12 145q-50 -140 -179 -214q-126 -73 -265 -72h-7q-141 0 -256.5 61.5t-185.5 181t-70 275.5zM168 506q0 -140 62.5 -246t164.5 -159.5t226 -53.5 q111 0 197 38t137.5 104t77.5 148.5t26 178.5q0 91 -28.5 171t-83 142.5t-141 99t-194.5 36.5q-124 0 -224 -54t-160 -159.5t-60 -245.5z" />
<glyph unicode="e" horiz-adv-x="1206" d="M106 504q0 229 143 374.5t359 145.5q84 0 161 -19t145 -62t116 -105t70 -156q15 -63 15 -135q0 -35 -3 -72h-944q11 -139 76.5 -237t159.5 -142.5t206 -44.5t222.5 47t168.5 127l48 -35q-69 -96 -189 -147t-250 -51q-101 0 -192 34.5t-160.5 98.5t-110.5 162t-41 217z M168 532h889v19q0 193 -115 301q-121 113 -334 113q-183 0 -305 -115.5t-135 -317.5z" />
<glyph unicode="f" horiz-adv-x="708" d="M72 950v60h211v108q0 57 7 102.5t26 87t49.5 69.5t79.5 45t114 18q113 0 193 -68l-37 -43q-68 51 -158 51q-108 0 -160.5 -58t-52.5 -204v-108h344v-60h-344v-950h-61v950h-211z" />
<glyph unicode="g" horiz-adv-x="1243" d="M109 543q0 118 45.5 213.5t120 154t165 90t185.5 31.5q85 0 173 -25.5t148 -68.5l103 121l45 -33l-105 -123q35 -37 53.5 -60.5t44.5 -68t38 -102t12 -129.5q0 -54 -13 -109.5t-40.5 -111.5t-67 -102.5t-97.5 -81t-126 -48.5q144 -26 238.5 -110.5t94.5 -225.5 q0 -111 -70 -193t-182.5 -122.5t-248.5 -40.5q-94 0 -180.5 25.5t-155.5 73t-110 123t-42 167.5h60q1 -104 64.5 -181t158.5 -113t205 -36q85 0 161.5 17t140 51t101 93t37.5 136q0 66 -28 119.5t-72.5 86t-104 54.5t-117.5 30.5t-118 8.5q-230 0 -373 129.5t-143 360.5z M170 543q0 -108 35 -191.5t97 -135t143.5 -77.5t179.5 -26q101 0 187.5 36.5t143 97t88 137.5t31.5 159q0 111 -39 196t-104.5 134.5t-143 74.5t-163.5 25q-84 0 -162.5 -26t-145 -76t-107 -135.5t-40.5 -192.5z" />
<glyph unicode="h" horiz-adv-x="1200" d="M174 0v1012v422h62v-422l-9 -252q30 73 76 125.5t101 81.5t111 42.5t118 14.5q405 0 405 -428v-596h-61v594q0 190 -84 279t-260 94h-12q-97 1 -183 -47q-92 -50 -147 -142.5t-55 -202.5v-575h-62z" />
<glyph unicode="i" horiz-adv-x="409" d="M154 1354q0 32 27 46q14 7 27 7l27 -7q27 -14 27 -46q0 -35 -27 -49.5t-54 0t-27 49.5zM174 0h62v1012h-62v-1012z" />
<glyph unicode="j" horiz-adv-x="409" d="M-197 -449q93 -49 179 -49q65 0 113 18.5t75 47.5t43 74.5t20 89.5q3 35 3 79v23v1180h-62v-1180q0 -50 -2.5 -84t-13.5 -72.5t-30.5 -61.5t-55.5 -38.5t-86 -15.5q-89 0 -162 45zM150 1366q0 33 27 46q13 7 27 7l27 -7q27 -13 27 -46q0 -35 -27 -50q-13 -7 -27 -7l-27 7 q-27 15 -27 50z" />
<glyph unicode="k" horiz-adv-x="923" d="M174 0v1434h62v-873l509 451h95v-2l-549 -475l608 -531v-4h-82l-581 506v-506h-62z" />
<glyph unicode="l" horiz-adv-x="442" d="M190 0v1434h62v-1434h-62z" />
<glyph unicode="m" horiz-adv-x="1937" d="M174 0v1012h62l-3 -195q43 107 137 159t208 52q87 0 162.5 -24t141 -86t91.5 -156q28 89 89.5 151t135.5 89.5t158 27.5q181 0 300.5 -115t119.5 -294v-621h-62v621q0 157 -99.5 253.5t-256.5 96.5q-156 0 -255 -99.5t-99 -257.5v-614h-62v614q0 158 -101.5 256.5 t-262.5 98.5q-151 -3 -246.5 -101.5t-95.5 -253.5v-614h-62z" />
<glyph unicode="n" horiz-adv-x="1230" d="M174 0v1012h62l-3 -230q57 124 168 185t232 63q208 0 322 -114.5t114 -319.5v-596h-61v594q0 185 -99 282q-97 95 -269 95h-7q-166 -2 -281.5 -116.5t-115.5 -279.5v-575h-62z" />
<glyph unicode="o" horiz-adv-x="1239" d="M106 504q0 120 41.5 220.5t112.5 166t164 101.5t197 36q138 0 254 -62.5t187 -183.5t71 -278q0 -120 -42 -219t-113 -163t-164 -99t-196 -35t-195 35t-163 99t-112.5 163t-41.5 219zM168 504q0 -140 63 -245.5t164 -158.5t223 -53q123 0 224.5 53t165 158.5t63.5 245.5 q0 210 -131 337.5t-322 127.5q-121 0 -222.5 -55t-164.5 -162.5t-63 -247.5z" />
<glyph unicode="p" d="M174 -496v1508h62v-129l-13 -146q50 139 179 214q126 73 265 73h7q141 0 256.5 -61.5t185.5 -181t70 -275.5q0 -152 -69 -271.5t-184.5 -183t-254.5 -63.5q-71 0 -142 19t-134 55t-111 94t-68 131l13 -164v-619h-62zM233 496q0 -91 28.5 -171t83 -142.5t141 -99 t194.5 -36.5q124 0 224 54t160 159.5t60 245.5q0 108 -36 196t-98 145t-143.5 87.5t-174.5 30.5q-111 0 -197.5 -38t-138 -104t-77.5 -148.5t-26 -178.5z" />
<glyph unicode="q" d="M106 506q0 156 70 275.5t185.5 181t256.5 61.5h7q139 0 265 -73q129 -75 179 -214l-12 146v129h61v-1508h-61v619l12 164q-20 -73 -68 -131t-111 -94t-134 -55t-142 -19q-139 0 -254.5 63.5t-184.5 183t-69 271.5zM168 506q0 -140 60 -245.5t160 -159.5t224 -54 q108 0 194.5 36.5t141 99t83 142.5t28.5 171q0 96 -26 178.5t-77.5 148.5t-137.5 104t-197 38q-93 0 -174.5 -30.5t-144 -87.5t-98.5 -145t-36 -196z" />
<glyph unicode="r" horiz-adv-x="800" d="M174 0v1012h59v-111l-6 -139q37 115 138 186.5t227 71.5q108 0 196 -49l-26 -51q-76 43 -170 43q-99 -1 -181 -52.5t-127.5 -133t-45.5 -173.5v-604h-64z" />
<glyph unicode="s" horiz-adv-x="1030" d="M88 197l49 34q61 -93 166.5 -138.5t222.5 -45.5q43 0 86 5t92 20t85.5 38.5t60.5 64t24 93.5q0 45 -21 80t-43.5 54.5t-78.5 38.5t-82 24.5t-98 18.5q-28 5 -41 8h-1h-1l-1 1h-1h-1h-1h-1l-1 1h-1h-2q-170 32 -237 62q-132 59 -139 188v14q0 69 33 121.5t89.5 84t126 47 t148.5 15.5q231 0 375 -135l-39 -43q-127 121 -336 121q-93 0 -166 -20t-121.5 -68.5t-48.5 -122.5q0 -35 11 -63t34.5 -47.5t46.5 -33.5t61 -24.5t61.5 -16t65.5 -13.5t58 -11t54 -10t57.5 -11t55 -12.5t56 -16t50 -20t47 -26t38 -33t31 -41.5t18 -51t7.5 -62 q0 -61 -25 -110t-65.5 -79.5t-95.5 -50.5t-110.5 -28t-115.5 -8q-140 0 -261 55.5t-175 151.5z" />
<glyph unicode="t" horiz-adv-x="772" d="M76 958v54h221v305l61 6v-311h361v-54h-361v-657q0 -49 3.5 -84t16 -70t34 -56t58.5 -34.5t89 -13.5q37 0 89 15t93 36l27 -51q-46 -25 -103 -41t-102 -16q-152 1 -209 78t-57 237v657h-221z" />
<glyph unicode="u" horiz-adv-x="1230" d="M162 416v596h61v-594q0 -185 99 -282q97 -95 269 -95h7q166 2 281.5 116t115.5 279v576h62v-1012h-62l2 229q-39 -85 -108 -142t-141.5 -80.5t-149.5 -24.5q-208 0 -322 114.5t-114 319.5z" />
<glyph unicode="v" horiz-adv-x="1089" d="M88 1012h70l387 -934l389 934h70l-424 -1012h-70z" />
<glyph unicode="w" horiz-adv-x="1667" d="M94 1012h70l323 -928l332 928h35l328 -928l321 928h70l-361 -1012h-65l-311 883l-314 -883h-65z" />
<glyph unicode="x" horiz-adv-x="950" d="M41 0v4l401 522l-370 484v2h78l325 -430l328 430h76v-2l-371 -484l401 -522v-4h-73l-361 477l-360 -477h-74z" />
<glyph unicode="y" horiz-adv-x="1083" d="M92 1012h68l377 -936l393 936h69l-645 -1508h-67l215 508z" />
<glyph unicode="z" horiz-adv-x="917" d="M61 0v18l684 936h-653v58h752v-19l-686 -934h684v-59h-781z" />
<glyph unicode="{" horiz-adv-x="604" d="M80 586v53q166 0 166 258v328q0 314 284 243v-51q-48 14 -88.5 11.5t-70.5 -20.5t-47 -64t-17 -119v-328q0 -36 -1 -57.5t-4.5 -56t-12.5 -57t-24 -47.5t-39.5 -41.5t-57.5 -25.5q33 -8 57.5 -24.5t39.5 -41.5t24 -47.5t12.5 -57t4.5 -55.5t1 -56v-312q0 -73 17 -118 t47 -62t70.5 -18.5t88.5 12.5v-51q-137 -34 -210.5 19.5t-73.5 217.5v312q0 256 -166 256z" />
<glyph unicode="|" horiz-adv-x="454" d="M197 -258v1696h61v-1696h-61z" />
<glyph unicode="}" horiz-adv-x="604" d="M74 -168q48 -14 88.5 -12.5t70.5 18.5t47 62t17 118v312q0 35 1 56t4.5 55.5t12.5 57t24 47.5t39.5 41.5t57.5 24.5q-33 9 -57.5 25.5t-39.5 41.5t-24 47.5t-12.5 57t-4.5 56t-1 57.5v328q0 73 -17 119t-47 64t-70.5 20.5t-88.5 -11.5v51q284 71 284 -243v-328 q0 -258 166 -258v-53q-166 0 -166 -256v-312q0 -164 -73.5 -217.5t-210.5 -19.5v51z" />
<glyph unicode="~" horiz-adv-x="1286" d="M162 578q26 78 90 128.5t151.5 56.5t188.5 -48l168 -92q53 -25 94.5 -35.5t81.5 -6t72.5 33.5t58.5 83l55 -26q-53 -121 -150 -146t-239 41l-174 97q-114 61 -209.5 27.5t-138.5 -136.5z" />
<glyph unicode="&#xa1;" horiz-adv-x="423" d="M152 971q0 35 28 49.5t56 0t28 -49.5q0 -34 -28 -48t-56 0t-28 48zM180 -410v1166h64v-1166h-64z" />
<glyph unicode="&#xa2;" horiz-adv-x="1118" d="M106 487q0 150 66 265t176 177t248 70v117h61v-117q205 -17 330 -139l-47 -41q-124 121 -315 121q-95 0 -177 -28.5t-145 -83t-99 -142.5t-36 -199q0 -114 36 -202.5t99 -142.5t144.5 -81.5t177.5 -27.5q180 0 319 133l47 -43q-141 -138 -334 -148v-147h-61v145 q-102 5 -190 41t-155.5 98.5t-106 159t-38.5 215.5z" />
<glyph unicode="&#xa3;" horiz-adv-x="1308" d="M121 0v51q68 78 112.5 150t65.5 129t26.5 116.5t-0.5 104.5t-20 102h-184v54h168q-44 160 -54 241q-6 53 -6 105q0 80 26 146t71.5 111t107 75.5t131 44.5t146.5 14q72 0 135 -10t123 -35t102.5 -64.5t68.5 -103t25 -144.5h-53q0 71 -25.5 126t-64.5 87t-94 52t-107 27 t-110 7q-122 0 -215.5 -34.5t-151 -111t-57.5 -187.5q0 -43 6.5 -94t12.5 -79t21.5 -93.5t18.5 -79.5h559v-54h-545q20 -73 23.5 -139.5t-11.5 -141t-59.5 -154t-119.5 -161.5h989v-57h-1061z" />
<glyph unicode="&#xa4;" horiz-adv-x="1155" d="M143 266l125 125q-98 114 -99.5 278t95.5 283l-121 121l43 43l121 -123q111 90 271 90t268 -90l123 123l43 -43l-121 -121q97 -117 95.5 -280.5t-99.5 -280.5l125 -125l-43 -43l-127 123q-100 -84 -264 -84q-162 0 -267 84l-125 -123zM233 672q0 -67 21.5 -128t63 -111 t109 -79.5t151.5 -29.5t151 29.5t108 79.5t63 111t22 128t-22 129t-63 112t-108 79.5t-151 29.5t-151.5 -29.5t-109 -79.5t-63 -111.5t-21.5 -129.5z" />
<glyph unicode="&#xa5;" horiz-adv-x="1318" d="M63 1434h78l518 -803l517 803h77l-526 -811h293v-54h-328v-137h328v-55h-328v-377h-65v377h-322v55h322v137h-322v54h287z" />
<glyph unicode="&#xa6;" horiz-adv-x="464" d="M197 -178v739h71v-739h-71zM197 700v744h71v-744h-71z" />
<glyph unicode="&#xa7;" horiz-adv-x="1069" d="M121 164l49 37q60 -89 162.5 -133.5t214.5 -44.5q35 0 66.5 2.5t72 9t72.5 21t60.5 35.5t44.5 55t16 77q0 52 -32 93t-87 67.5t-112 42t-122 25.5q-73 11 -133.5 30t-113 49.5t-83.5 77.5t-34 107q-2 41 12.5 82t44.5 78t81.5 62.5t117.5 31.5q-112 21 -182.5 77.5 t-73.5 155.5q-4 121 103 193.5t270 72.5q111 0 193 -30t157 -99l-37 -41q-66 64 -139.5 89.5t-173.5 27.5q-130 2 -224 -54t-90 -157q2 -53 31.5 -93.5t78.5 -63.5t98 -35.5t106 -18.5q45 -5 78.5 -9.5t77.5 -14.5t76 -23t65.5 -34.5t54 -48.5t34 -66t13.5 -86 q0 -98 -74.5 -160t-187.5 -76q268 -75 268 -254q-1 -76 -36.5 -129t-96.5 -79.5t-123.5 -37t-136.5 -10.5q-135 0 -250.5 52t-175.5 147zM219 715q3 -88 98.5 -142.5t225.5 -54.5q65 0 122.5 10.5t106 32.5t77 60.5t28.5 89.5q0 60 -31 104.5t-81.5 68.5t-104.5 35t-111 11 q-102 0 -174 -19t-116 -68.5t-40 -127.5z" />
<glyph unicode="&#xa8;" horiz-adv-x="903" d="M147 1401q0 36 28.5 50.5t57.5 0t29 -50.5t-29 -50.5t-57.5 0t-28.5 50.5zM569 1401q0 36 28.5 50.5t57.5 0t29 -50.5t-29 -50.5t-57.5 0t-28.5 50.5z" />
<glyph unicode="&#xa9;" horiz-adv-x="1718" d="M123 711q0 119 30.5 229t92 204.5t148 164.5t206 109.5t258.5 39.5q172 0 314 -61t233.5 -164.5t141.5 -238t50 -283.5t-50 -283t-141.5 -238t-233.5 -165.5t-314 -61.5q-139 0 -258.5 39.5t-206 109t-148 163.5t-92 205t-30.5 231zM188 711q0 -114 28.5 -216.5 t85.5 -187.5t136.5 -147t187 -96.5t232.5 -34.5t232.5 34.5t187 96.5t136.5 147t85.5 187.5t28.5 216.5t-28.5 216.5t-85.5 187.5t-136.5 147t-187 96.5t-232.5 34.5t-232.5 -34.5t-187 -96.5t-136.5 -147t-85.5 -187.5t-28.5 -216.5zM481 719q0 -178 114.5 -291t285.5 -113 q77 0 151 29.5t125 83.5l-47 49q-44 -44 -107 -69t-124 -25q-138 0 -234 94t-96 242q0 154 96 243t236 89q63 0 127.5 -26t107.5 -71l43 50q-53 55 -126.5 84.5t-151.5 29.5q-171 0 -285.5 -112t-114.5 -287z" />
<glyph unicode="&#xaa;" horiz-adv-x="1026" d="M160 1106q0 156 96.5 247t239.5 93q80 0 154.5 -38t117.5 -108v136h59v-664h-59v137q-98 -143 -272 -143q-141 0 -238.5 92t-97.5 248zM184 563v66h674v-66h-674zM223 1106q0 -128 78 -202.5t195 -74.5q65 0 118 24t86 62.5t50.5 88.5t17.5 101.5t-17.5 101.5t-50.5 88.5 t-86 62.5t-118 24q-117 0 -195 -74.5t-78 -201.5z" />
<glyph unicode="&#xab;" horiz-adv-x="751" d="M111 608l282 449h68l-275 -449l275 -450h-68zM287 608l282 449h66l-275 -449l275 -450h-66z" />
<glyph unicode="&#xac;" horiz-adv-x="1026" d="M176 670v61h686v-360h-61v299h-625z" />
<glyph unicode="&#xad;" horiz-adv-x="1017" d="M156 559v62h706v-62h-706z" />
<glyph unicode="&#xae;" horiz-adv-x="1718" d="M123 711q0 119 30.5 229t92 204.5t148 164.5t206 109.5t258.5 39.5q172 0 314 -61t233.5 -164.5t141.5 -238t50 -283.5t-50 -283t-141.5 -238t-233.5 -165.5t-314 -61.5q-139 0 -258.5 39.5t-206 109t-148 163.5t-92 205t-30.5 231zM188 711q0 -114 28.5 -216.5 t85.5 -187.5t136.5 -147t187 -96.5t232.5 -34.5t232.5 34.5t187 96.5t136.5 147t85.5 187.5t28.5 216.5t-28.5 216.5t-85.5 187.5t-136.5 147t-187 96.5t-232.5 34.5t-232.5 -34.5t-187 -96.5t-136.5 -147t-85.5 -187.5t-28.5 -216.5zM578 322v790h346q54 0 99 -16.5t74 -44 t49.5 -63t25 -75t0 -79t-25 -75.5t-50 -64t-75 -44.5t-99.5 -17.5l276 -303v-8h-80l-270 309h-207v-309h-63zM641 690h274q71 0 120.5 37.5t61.5 91t2 106.5t-57.5 90.5t-117.5 37.5h-283v-363z" />
<glyph unicode="&#xaf;" horiz-adv-x="751" d="M72 1378v60h596v-60h-596z" />
<glyph unicode="&#xb0;" horiz-adv-x="630" d="M127 1262q-9 40 2 80.5t33 73.5t63 54t92 21q52 0 93 -21t62.5 -54t31.5 -73.5t0.5 -80.5t-30 -73t-61 -54t-91.5 -21q-56 0 -99.5 21t-65 54t-30.5 73zM182.5 1261q7.5 -41 44.5 -69.5t92 -28.5q37 0 65.5 15.5t43.5 39.5t22 53.5t-0.5 59.5t-22.5 54t-44 39.5t-66 15.5 q-51 0 -87 -28.5t-45.5 -69t-2 -81.5z" />
<glyph unicode="&#xb1;" horiz-adv-x="1069" d="M164 723v53h344v344h53v-344h342v-53h-342v-352h-53v352h-344zM184 113v53h705v-53h-705z" />
<glyph unicode="&#xb2;" horiz-adv-x="720" d="M92 899v150q0 38 9.5 68.5t23 51t37.5 37t44 25t51.5 15.5t50.5 10t50 6q47 5 80.5 13.5t66.5 25t50.5 46.5t17.5 72q0 76 -56 112t-152 36q-205 0 -205 -156h-60q0 215 265 215q46 0 90 -10t85.5 -32t67 -64.5t25.5 -100.5q0 -183 -266 -211q-39 -4 -65 -9t-56.5 -16 t-48.5 -27t-30.5 -44t-12.5 -65v-89h473v-59h-535z" />
<glyph unicode="&#xb3;" horiz-adv-x="702" d="M84 1104h61q-1 -43 21 -75.5t57 -49t68.5 -24t62.5 -7.5q30 0 61 7t64 23.5t53.5 50t20.5 79.5q0 47 -49 90t-144 43h-110v59h102q68 0 124 33t56 97q0 56 -42 95.5t-138 39.5q-30 0 -53 -2t-50.5 -10.5t-46 -23t-31.5 -41t-15 -63.5h-62q4 103 75.5 151t182.5 48 q106 0 174.5 -52.5t67.5 -141.5q0 -56 -33.5 -98t-97.5 -60q77 -17 114 -65t37 -99q0 -110 -70.5 -164.5t-191.5 -54.5q-72 0 -130 21t-97.5 71t-40.5 123z" />
<glyph unicode="&#xb4;" horiz-adv-x="450" d="M72 1192v6l155 238h80l-174 -244h-61z" />
<glyph unicode="&#xb5;" horiz-adv-x="1257" d="M160 -469v1483h59v-598q0 -88 32 -159.5t86 -116.5t121.5 -69.5t141.5 -25.5q75 -1 143 22.5t123.5 71t88 127.5t32.5 183v565h62v-1014h-58l-2 221q-43 -119 -150.5 -178t-238.5 -57q-119 0 -228 57.5t-151 155.5v-668h-61z" />
<glyph unicode="&#xb6;" horiz-adv-x="1566" d="M68 922q1 77 21.5 150.5t61.5 139t98 114.5t137.5 77.5t174.5 28.5h936v-50h-223v-1826h-53v1826h-594v-1826h-58v854q-99 -2 -183 25.5t-142.5 76.5t-99 115t-59 141t-17.5 154z" />
<glyph unicode="&#xb7;" horiz-adv-x="428" d="M156 602q0 36 29 50.5t58 0t29 -50.5t-29 -50.5t-58 0t-29 50.5z" />
<glyph unicode="&#xb8;" horiz-adv-x="563" d="M39 -307l41 35q34 -48 71 -65t89 -19q49 0 86.5 23.5t50.5 68.5q20 65 -30 107t-167 22l-2 2l35 178h55l-26 -125q115 8 166 -55t26 -146q-38 -129 -194 -133q-143 0 -201 107z" />
<glyph unicode="&#xb9;" horiz-adv-x="460" d="M76 903v55h131v578l-115 -25v56l176 41v-650h140v-55h-332z" />
<glyph unicode="&#xba;" horiz-adv-x="995" d="M166 1106q0 159 95 249.5t235 90.5t235.5 -90.5t95.5 -249.5q0 -160 -94.5 -250t-236.5 -90q-139 0 -234.5 92t-95.5 248zM174 565v62h647v-62h-647zM231 1106q0 -128 73.5 -203.5t191.5 -75.5q119 0 192.5 75t73.5 204q0 130 -73.5 204t-192.5 74q-118 0 -191.5 -74.5 t-73.5 -203.5z" />
<glyph unicode="&#xbb;" horiz-adv-x="751" d="M117 158l274 450l-274 449h65l283 -449l-283 -450h-65zM291 158l274 450l-274 449h67l283 -449l-283 -450h-67z" />
<glyph unicode="&#xbc;" horiz-adv-x="1423" d="M104 735v56h132v577l-115 -25v56l176 41v-649h139v-56h-332zM279 -4l753 1442h68l-754 -1442h-67zM807 225l369 498h88v-481h84v-60h-84v-182h-62v182h-389zM889 242h313v424z" />
<glyph unicode="&#xbd;" horiz-adv-x="1558" d="M104 735v56h132v577l-115 -25v56l176 41v-649h139v-56h-332zM279 -4l753 1442h68l-754 -1442h-67zM920 0v150q0 38 9.5 68.5t23 51t38 36.5t44 25t51 16t50 9.5t50.5 5.5q46 5 80.5 13.5t67 25.5t50 47t17.5 72q0 76 -56.5 112t-152.5 36q-205 0 -205 -156h-59 q0 215 264 215q46 0 90 -10t85.5 -32t67 -64.5t25.5 -100.5q0 -183 -266 -211q-39 -4 -65 -9t-56.5 -16t-48.5 -27.5t-30.5 -44.5t-12.5 -65v-88h473v-59h-534z" />
<glyph unicode="&#xbe;" horiz-adv-x="1527" d="M96 946h62q-1 -43 20.5 -75t56 -48t66.5 -23t61 -7q31 0 61 6.5t63 22.5t53 49t20 79t-48 88.5t-142 42.5h-109v58h100q42 0 80.5 12t68.5 42t30 73q0 55 -42 94t-137 39q-37 0 -65 -4t-59 -17t-49 -42.5t-19 -73.5h-62q4 102 74.5 149t179.5 47q105 0 173 -52t67 -140 q0 -54 -33.5 -96t-97.5 -60q77 -16 113 -63t36 -97q0 -109 -69.5 -163t-188.5 -54q-71 0 -128.5 21t-96 70.5t-39.5 121.5zM389 -4l776 1448h68l-776 -1448h-68zM909 225l369 498h88v-481h84v-60h-84v-182h-61v182h-390zM991 242h314v424z" />
<glyph unicode="&#xbf;" horiz-adv-x="1181" d="M78 2q2 166 78 259t245 134q47 14 78 27t58 29t43 37.5t28.5 47t18 64t8 82t2.5 106.5h63q0 -79 -4 -133.5t-17 -101t-31.5 -77t-52 -57.5t-75.5 -46t-104 -39q-62 -18 -99.5 -33t-75.5 -40t-58.5 -57.5t-33 -83t-12.5 -118.5q0 -86 31 -151t78.5 -103t114.5 -62t130 -32 t134 -8q65 0 121.5 8.5t114 32.5t98 62t66 101.5t26.5 147.5h63q1 -91 -26 -163t-73 -119t-110 -77.5t-133 -43.5t-147 -13q-83 0 -156 11t-146 41t-125.5 75.5t-85.5 120.5t-34 172zM598 993q0 28 18.5 44.5t41 16.5t41 -16.5t18.5 -44.5t-18.5 -44.5t-41 -16.5t-41 16.5 t-18.5 44.5z" />
<glyph unicode="&#xc0;" horiz-adv-x="1495" d="M66 0l643 1434h77l644 -1434h-78l-166 373h-879l-164 -373h-77zM332 436h827l-411 936zM539 1772h79l156 -238v-6h-61z" />
<glyph unicode="&#xc1;" horiz-adv-x="1495" d="M66 0l643 1434h77l644 -1434h-78l-166 373h-879l-164 -373h-77zM332 436h827l-411 936zM713 1532v6l155 238h80l-174 -244h-61z" />
<glyph unicode="&#xc2;" horiz-adv-x="1495" d="M66 0l643 1434h77l644 -1434h-78l-166 373h-879l-164 -373h-77zM332 436h827l-411 936zM446 1524v6l269 254h63l266 -254v-6h-65l-234 215l-231 -215h-68z" />
<glyph unicode="&#xc3;" horiz-adv-x="1495" d="M66 0l643 1434h77l644 -1434h-78l-166 373h-879l-164 -373h-77zM332 436h827l-411 936zM510 1599q21 78 76 101t137 -19l86 -47q55 -30 90 -17.5t53 73.5l43 -17q-21 -81 -76 -105.5t-137 17.5l-86 47q-111 60 -143 -49z" />
<glyph unicode="&#xc4;" horiz-adv-x="1495" d="M66 0l643 1434h77l644 -1434h-78l-166 373h-879l-164 -373h-77zM332 436h827l-411 936zM479 1610q0 36 28.5 50.5t57.5 0t29 -50.5t-29 -50.5t-57.5 0t-28.5 50.5zM901 1610q0 36 28.5 50.5t57.5 0t29 -50.5t-29 -50.5t-57.5 0t-28.5 50.5z" />
<glyph unicode="&#xc5;" horiz-adv-x="1495" d="M66 0l622 1389q-59 16 -96 61.5t-37 114.5q0 53 21.5 94t55.5 61.5t75.5 29.5t82.5 -1.5t75 -31.5t55.5 -61t21.5 -89q0 -71 -38 -118t-97 -63l623 -1386h-78l-166 373h-879l-164 -373h-77zM332 436h827l-411 936zM608 1565q0 -36 15.5 -64t40 -42.5t54.5 -21.5t59.5 0 t54 21.5t40 43t15.5 65.5q0 36 -15.5 64.5t-40 43.5t-54 22.5t-59.5 1t-54.5 -21.5t-40 -44.5t-15.5 -67.5z" />
<glyph unicode="&#xc6;" horiz-adv-x="1863" d="M-23 0l906 1434h837v-60h-737v-618h690v-62h-690v-628h770v-66h-833v559h-517l-350 -559h-76zM436 621l484 -3l2 762z" />
<glyph unicode="&#xc7;" horiz-adv-x="1472" d="M119 709q-2 146 44.5 279t136 237.5t232 166.5t318.5 62q144 0 277.5 -53t236.5 -158l-45 -43q-96 96 -217.5 145.5t-251.5 49.5q-128 0 -236.5 -35t-187 -98t-134 -148.5t-82.5 -186.5t-26 -212q1 -108 29 -207t84 -182t134.5 -144t186 -95t232.5 -34q131 0 255.5 49 t219.5 142l47 -41q-102 -102 -238 -157.5t-274 -57.5l-22 -113q114 8 166 -58t30 -149q-19 -64 -77.5 -96.5t-127.5 -32.5q-62 0 -116.5 27.5t-81.5 77.5l45 39q56 -80 155 -80q49 -2 92 20t54 62q19 64 -35 109t-172 26l37 168q-162 8 -293.5 68.5t-217 158.5t-131 224.5 t-46.5 269.5z" />
<glyph unicode="&#xc8;" horiz-adv-x="1335" d="M213 0v1434h969v-64h-903v-614h860v-64h-860v-629h933v-63h-999zM537 1786h79l156 -238v-6h-61z" />
<glyph unicode="&#xc9;" horiz-adv-x="1335" d="M213 0v1434h969v-64h-903v-614h860v-64h-860v-629h933v-63h-999zM649 1544v6l156 238h80l-174 -244h-62z" />
<glyph unicode="&#xca;" horiz-adv-x="1335" d="M213 0v1434h969v-64h-903v-614h860v-64h-860v-629h933v-63h-999zM399 1546v8l285 269h68l284 -269v-8h-71l-248 230l-246 -230h-72z" />
<glyph unicode="&#xcb;" horiz-adv-x="1335" d="M213 0v1434h969v-64h-903v-614h860v-64h-860v-629h933v-63h-999zM465 1642q0 36 28.5 50.5t57.5 0t29 -50.5t-29 -50.5t-57.5 0t-28.5 50.5zM887 1642q0 36 28.5 50.5t57 0t28.5 -50.5t-28.5 -50.5t-57 0t-28.5 50.5z" />
<glyph unicode="&#xcc;" horiz-adv-x="491" d="M47 1776h80l156 -238v-6h-62zM213 0v1434h66v-1434h-66z" />
<glyph unicode="&#xcd;" horiz-adv-x="491" d="M195 1546v6l155 238h80l-174 -244h-61zM213 0v1434h66v-1434h-66z" />
<glyph unicode="&#xce;" horiz-adv-x="491" d="M-8 1532v8l227 275h55l230 -275v-8h-58l-200 233l-197 -233h-57zM213 0v1434h66v-1434h-66z" />
<glyph unicode="&#xcf;" horiz-adv-x="491" d="M53 1628q0 36 28.5 50.5t57.5 0t29 -50.5t-29 -50.5t-57.5 0t-28.5 50.5zM213 0v1434h66v-1434h-66zM309 1628q0 36 29 50.5t57.5 0t28.5 -50.5t-29 -50.5t-57.5 0t-28.5 50.5z" />
<glyph unicode="&#xd0;" horiz-adv-x="1540" d="M66 700v58h159v676h465q142 0 261 -38t203.5 -103.5t144 -155t89.5 -191.5t33 -213q2 -115 -24.5 -221t-85.5 -199.5t-144 -163t-208 -109.5t-269 -40h-465v700h-159zM291 63h399q132 0 243 36.5t188.5 100t132 149t79.5 183t23 201.5q-2 100 -29 193t-82 174t-132 141 t-186 94.5t-237 34.5h-399v-612h325v-58h-325v-637z" />
<glyph unicode="&#xd1;" horiz-adv-x="1515" d="M213 0v1434h6l1024 -1262l-6 332v930h66v-1434l-1031 1268l7 -338v-930h-66zM526 1618q21 78 76 101t137 -19l86 -47q55 -30 90.5 -17.5t53.5 72.5l43 -16q-21 -81 -76 -105.5t-137 17.5l-86 47q-112 61 -144 -49z" />
<glyph unicode="&#xd2;" horiz-adv-x="1673" d="M117 721q0 108 26 210.5t83 197.5t139 166.5t203 114t266 42.5q175 1 315.5 -60.5t227.5 -165.5t133 -234.5t46 -274.5q-1 -145 -47.5 -275.5t-133.5 -234.5t-226.5 -165.5t-312.5 -61.5q-139 0 -257 40.5t-202 111t-143.5 165t-88 202t-28.5 222.5zM182 719 q1 -103 27 -200.5t80.5 -183.5t130.5 -151t183.5 -103t232.5 -38t232.5 37t184 101t131.5 150t81.5 184t25.5 202q0 108 -26.5 206.5t-81 183.5t-131.5 148t-184.5 98.5t-233.5 35.5q-128 0 -236 -37.5t-184 -101.5t-129 -150t-78.5 -182.5t-24.5 -198.5zM657 1810h80 l156 -237v-6h-62z" />
<glyph unicode="&#xd3;" horiz-adv-x="1673" d="M117 721q0 108 26 210.5t83 197.5t139 166.5t203 114t266 42.5q175 1 315.5 -60.5t227.5 -165.5t133 -234.5t46 -274.5q-1 -145 -47.5 -275.5t-133.5 -234.5t-226.5 -165.5t-312.5 -61.5q-139 0 -257 40.5t-202 111t-143.5 165t-88 202t-28.5 222.5zM182 719 q1 -103 27 -200.5t80.5 -183.5t130.5 -151t183.5 -103t232.5 -38t232.5 37t184 101t131.5 150t81.5 184t25.5 202q0 108 -26.5 206.5t-81 183.5t-131.5 148t-184.5 98.5t-233.5 35.5q-128 0 -236 -37.5t-184 -101.5t-129 -150t-78.5 -182.5t-24.5 -198.5zM803 1565v6 l155 237h80l-174 -243h-61z" />
<glyph unicode="&#xd4;" horiz-adv-x="1673" d="M117 721q0 108 26 210.5t83 197.5t139 166.5t203 114t266 42.5q175 1 315.5 -60.5t227.5 -165.5t133 -234.5t46 -274.5q-1 -145 -47.5 -275.5t-133.5 -234.5t-226.5 -165.5t-312.5 -61.5q-139 0 -257 40.5t-202 111t-143.5 165t-88 202t-28.5 222.5zM182 719 q1 -103 27 -200.5t80.5 -183.5t130.5 -151t183.5 -103t232.5 -38t232.5 37t184 101t131.5 150t81.5 184t25.5 202q0 108 -26.5 206.5t-81 183.5t-131.5 148t-184.5 98.5t-233.5 35.5q-128 0 -236 -37.5t-184 -101.5t-129 -150t-78.5 -182.5t-24.5 -198.5zM518 1561v8 l285 268h67l285 -268v-8h-72l-247 229l-246 -229h-72z" />
<glyph unicode="&#xd5;" horiz-adv-x="1673" d="M117 721q0 108 26 210.5t83 197.5t139 166.5t203 114t266 42.5q175 1 315.5 -60.5t227.5 -165.5t133 -234.5t46 -274.5q-1 -145 -47.5 -275.5t-133.5 -234.5t-226.5 -165.5t-312.5 -61.5q-139 0 -257 40.5t-202 111t-143.5 165t-88 202t-28.5 222.5zM182 719 q1 -103 27 -200.5t80.5 -183.5t130.5 -151t183.5 -103t232.5 -38t232.5 37t184 101t131.5 150t81.5 184t25.5 202q0 108 -26.5 206.5t-81 183.5t-131.5 148t-184.5 98.5t-233.5 35.5q-128 0 -236 -37.5t-184 -101.5t-129 -150t-78.5 -182.5t-24.5 -198.5zM598 1649 q22 81 79 104.5t142 -20.5l90 -50q57 -31 93.5 -17t54.5 77l45 -19q-21 -85 -78.5 -110t-142.5 20l-88 47q-118 63 -150 -49z" />
<glyph unicode="&#xd6;" horiz-adv-x="1673" d="M117 721q0 108 26 210.5t83 197.5t139 166.5t203 114t266 42.5q175 1 315.5 -60.5t227.5 -165.5t133 -234.5t46 -274.5q-1 -145 -47.5 -275.5t-133.5 -234.5t-226.5 -165.5t-312.5 -61.5q-139 0 -257 40.5t-202 111t-143.5 165t-88 202t-28.5 222.5zM182 719 q1 -103 27 -200.5t80.5 -183.5t130.5 -151t183.5 -103t232.5 -38t232.5 37t184 101t131.5 150t81.5 184t25.5 202q0 108 -26.5 206.5t-81 183.5t-131.5 148t-184.5 98.5t-233.5 35.5q-128 0 -236 -37.5t-184 -101.5t-129 -150t-78.5 -182.5t-24.5 -198.5zM565 1649 q0 36 28.5 50.5t57.5 0t29 -50.5t-29 -50.5t-57.5 0t-28.5 50.5zM987 1649q0 36 28.5 50.5t57.5 0t29 -50.5t-29 -50.5t-57.5 0t-28.5 50.5z" />
<glyph unicode="&#xd7;" horiz-adv-x="929" d="M154 389l272 279l-266 264l39 41l268 -266l264 262l41 -41l-266 -260l274 -269l-41 -43l-274 269l-272 -277z" />
<glyph unicode="&#xd8;" horiz-adv-x="1673" d="M117 721q0 108 26 210.5t83 197.5t139 166.5t203 114t266 42.5q223 0 391 -100l121 200h73l-141 -235q136 -100 207 -259.5t71 -340.5q-1 -145 -47.5 -275.5t-133.5 -234.5t-226.5 -165.5t-312.5 -61.5q-183 0 -326 67l-129 -213h-72l146 242q-163 97 -250.5 270.5 t-87.5 374.5zM182 719q0 -180 79.5 -338t227.5 -248l701 1163q-157 93 -356 93q-128 0 -236 -37.5t-184 -101.5t-129 -150t-78.5 -182.5t-24.5 -198.5zM545 104q128 -61 291 -61q125 0 232.5 37t184 101t131.5 150t81.5 184t25.5 202q0 166 -63.5 308.5t-184.5 234.5z" />
<glyph unicode="&#xd9;" horiz-adv-x="1449" d="M197 526v908h65v-908q0 -97 27 -178t72 -135.5t105 -92.5t125 -55.5t132 -17.5q68 0 133 17t125.5 55t106 92.5t73 136t27.5 178.5v908h65v-908q0 -109 -31 -200t-82.5 -153t-120.5 -105t-143.5 -63t-152.5 -21q-79 0 -154 20.5t-142.5 64.5t-118.5 106.5t-81 153 t-30 197.5zM553 1798h80l155 -237v-7h-61z" />
<glyph unicode="&#xda;" horiz-adv-x="1449" d="M197 526v908h65v-908q0 -97 27 -178t72 -135.5t105 -92.5t125 -55.5t132 -17.5q68 0 133 17t125.5 55t106 92.5t73 136t27.5 178.5v908h65v-908q0 -109 -31 -200t-82.5 -153t-120.5 -105t-143.5 -63t-152.5 -21q-79 0 -154 20.5t-142.5 64.5t-118.5 106.5t-81 153 t-30 197.5zM670 1544v6l155 238h80l-174 -244h-61z" />
<glyph unicode="&#xdb;" horiz-adv-x="1449" d="M197 526v908h65v-908q0 -97 27 -178t72 -135.5t105 -92.5t125 -55.5t132 -17.5q68 0 133 17t125.5 55t106 92.5t73 136t27.5 178.5v908h65v-908q0 -109 -31 -200t-82.5 -153t-120.5 -105t-143.5 -63t-152.5 -21q-79 0 -154 20.5t-142.5 64.5t-118.5 106.5t-81 153 t-30 197.5zM424 1534v8l272 256h64l272 -256v-8h-67l-238 219l-233 -219h-70z" />
<glyph unicode="&#xdc;" horiz-adv-x="1449" d="M197 526v908h65v-908q0 -97 27 -178t72 -135.5t105 -92.5t125 -55.5t132 -17.5q68 0 133 17t125.5 55t106 92.5t73 136t27.5 178.5v908h65v-908q0 -109 -31 -200t-82.5 -153t-120.5 -105t-143.5 -63t-152.5 -21q-79 0 -154 20.5t-142.5 64.5t-118.5 106.5t-81 153 t-30 197.5zM469 1624q0 36 28.5 50.5t57.5 0t29 -50.5t-29 -50.5t-57.5 0t-28.5 50.5zM891 1624q0 36 28.5 50.5t57.5 0t29 -50.5t-29 -50.5t-57.5 0t-28.5 50.5z" />
<glyph unicode="&#xdd;" horiz-adv-x="1331" d="M70 1434h77l519 -803l516 803h78l-562 -865v-569h-65v569zM610 1548v6l156 238h80l-174 -244h-62z" />
<glyph unicode="&#xde;" horiz-adv-x="1370" d="M213 0v1432h63v-258h555q109 0 197 -39.5t142 -104.5t83.5 -148t29.5 -169t-29.5 -169t-83.5 -148t-142 -104.5t-197 -39.5h-555v-252h-63zM276 311h555q92 0 167 34.5t120.5 90.5t70.5 128t25 147.5t-25 147.5t-70.5 128t-120.5 90.5t-167 34.5h-555v-801z" />
<glyph unicode="&#xdf;" horiz-adv-x="1228" d="M174 0v1059q0 195 114.5 296t297.5 101q91 0 165.5 -20t132.5 -62t90 -112.5t32 -165.5q0 -115 -63 -200.5t-169 -113.5q168 -34 259 -141.5t91 -278.5q0 -121 -49.5 -208.5t-129 -130t-177.5 -56t-197 3.5t-186 58v63q108 -59 229 -71t220.5 19.5t165 114.5t65.5 203 q0 80 -19.5 143t-56 105t-81 70.5t-102 44t-111.5 21.5t-117 6h-195v49h186q51 0 99.5 7t101.5 27t91.5 52t64 87t24.5 126q-1 74 -24 130.5t-58 89t-85 52.5t-96.5 26.5t-100.5 6.5q-99 0 -168.5 -25.5t-108.5 -74t-57.5 -107.5t-22.5 -137v-1057h-55z" />
<glyph unicode="&#xe0;" d="M106 506q0 154 69 273.5t184 182t255 62.5q71 0 142 -19t134 -55t111 -94t68 -131l-12 164v123h61v-1012h-61v129l12 145q-50 -139 -179 -213.5t-272 -72.5q-141 0 -256.5 61.5t-185.5 181t-70 275.5zM168 506q0 -140 62.5 -246t164.5 -159.5t226 -53.5q111 0 197 38 t137.5 104t77.5 148.5t26 178.5q0 91 -28.5 171t-83 142.5t-141 99t-194.5 36.5q-124 0 -224 -54t-160 -159.5t-60 -245.5zM465 1436h80l155 -238v-6h-61z" />
<glyph unicode="&#xe1;" d="M106 506q0 154 69 273.5t184 182t255 62.5q71 0 142 -19t134 -55t111 -94t68 -131l-12 164v123h61v-1012h-61v129l12 145q-50 -139 -179 -213.5t-272 -72.5q-141 0 -256.5 61.5t-185.5 181t-70 275.5zM168 506q0 -140 62.5 -246t164.5 -159.5t226 -53.5q111 0 197 38 t137.5 104t77.5 148.5t26 178.5q0 91 -28.5 171t-83 142.5t-141 99t-194.5 36.5q-124 0 -224 -54t-160 -159.5t-60 -245.5zM588 1192v6l155 238h80l-174 -244h-61z" />
<glyph unicode="&#xe2;" d="M106 506q0 154 69 273.5t184 182t255 62.5q71 0 142 -19t134 -55t111 -94t68 -131l-12 164v123h61v-1012h-61v129l12 145q-50 -139 -179 -213.5t-272 -72.5q-141 0 -256.5 61.5t-185.5 181t-70 275.5zM168 506q0 -140 62.5 -246t164.5 -159.5t226 -53.5q111 0 197 38 t137.5 104t77.5 148.5t26 178.5q0 91 -28.5 171t-83 142.5t-141 99t-194.5 36.5q-124 0 -224 -54t-160 -159.5t-60 -245.5zM336 1163v8l274 259h66l272 -259v-8h-67l-240 221l-235 -221h-70z" />
<glyph unicode="&#xe3;" d="M106 506q0 154 69 273.5t184 182t255 62.5q71 0 142 -19t134 -55t111 -94t68 -131l-12 164v123h61v-1012h-61v129l12 145q-50 -139 -179 -213.5t-272 -72.5q-141 0 -256.5 61.5t-185.5 181t-70 275.5zM168 506q0 -140 62.5 -246t164.5 -159.5t226 -53.5q111 0 197 38 t137.5 104t77.5 148.5t26 178.5q0 91 -28.5 171t-83 142.5t-141 99t-194.5 36.5q-124 0 -224 -54t-160 -159.5t-60 -245.5zM412 1305q21 78 76 100.5t137 -19.5l86 -47q55 -30 90 -17.5t53 73.5l43 -17q-21 -81 -76 -105.5t-137 17.5l-86 47q-111 60 -143 -49z" />
<glyph unicode="&#xe4;" d="M106 506q0 154 69 273.5t184 182t255 62.5q71 0 142 -19t134 -55t111 -94t68 -131l-12 164v123h61v-1012h-61v129l12 145q-50 -139 -179 -213.5t-272 -72.5q-141 0 -256.5 61.5t-185.5 181t-70 275.5zM168 506q0 -140 62.5 -246t164.5 -159.5t226 -53.5q111 0 197 38 t137.5 104t77.5 148.5t26 178.5q0 91 -28.5 171t-83 142.5t-141 99t-194.5 36.5q-124 0 -224 -54t-160 -159.5t-60 -245.5zM393 1366q0 36 29 50.5t57.5 0t28.5 -50.5t-29 -50.5t-57.5 0t-28.5 50.5zM815 1366q0 36 28.5 50.5t57.5 0t29 -50.5t-29 -50.5t-57.5 0t-28.5 50.5 z" />
<glyph unicode="&#xe5;" d="M106 506q0 154 69 273.5t184 182t255 62.5q71 0 142 -19t134 -55t111 -94t68 -131l-12 164v123h61v-1012h-61v129l12 145q-50 -139 -179 -213.5t-272 -72.5q-141 0 -256.5 61.5t-185.5 181t-70 275.5zM168 506q0 -140 62.5 -246t164.5 -159.5t226 -53.5q111 0 197 38 t137.5 104t77.5 148.5t26 178.5q0 91 -28.5 171t-83 142.5t-141 99t-194.5 36.5q-124 0 -224 -54t-160 -159.5t-60 -245.5zM451 1325q0 52 21.5 92t56 59.5t76 28.5t83.5 -1.5t76.5 -31t56 -59t21.5 -86.5q0 -50 -21.5 -89.5t-56 -59.5t-76 -29t-83.5 0.5t-76.5 29.5 t-56 58.5t-21.5 87.5zM504 1325q0 -48 29.5 -81t71 -40.5t83 0t71 41t29.5 82.5q0 35 -15.5 63.5t-40.5 43.5t-55.5 22t-61 0.5t-55.5 -21.5t-40.5 -44t-15.5 -66z" />
<glyph unicode="&#xe6;" horiz-adv-x="2150" d="M106 506q0 154 69 273.5t184 182t255 62.5q97 0 188.5 -32.5t166 -102.5t100.5 -166l-10 166v123h57v-254q60 125 174.5 195.5t261.5 70.5q84 0 161 -19t145 -62t116 -105.5t70.5 -156t11.5 -206.5h-940q11 -139 75.5 -237t157.5 -142.5t205 -44.5t223 47t169 127l47 -35 q-69 -96 -189 -147t-250 -51q-143 0 -260 68t-178 192v-252h-57v129l8 141q-33 -94 -108 -160t-162 -94.5t-179 -27.5q-141 0 -256.5 61.5t-185.5 181t-70 275.5zM168 506q0 -140 62.5 -246t164.5 -159.5t226 -53.5q88 0 160.5 24t124 65.5t86.5 99.5t52 125.5t17 142.5 q-3 206 -119.5 333.5t-329.5 127.5q-124 0 -224 -54t-160 -159.5t-60 -245.5zM1116 532h885q6 207 -115 320t-334 113q-183 0 -303 -115t-133 -318z" />
<glyph unicode="&#xe7;" horiz-adv-x="1085" d="M106 506q0 152 68.5 270t186.5 181t264 63q98 0 196 -40t172 -112l-41 -39q-62 65 -149 98.5t-180 33.5q-92 0 -174 -30t-145 -85.5t-99.5 -143.5t-36.5 -196q0 -141 63 -246t165.5 -157t228.5 -52q89 0 173.5 33.5t147.5 97.5l41 -41q-72 -72 -167.5 -110.5 t-194.5 -38.5h-4l-21 -92q57 4 100.5 -11t64.5 -43t29 -63.5t-6 -71.5q-38 -121 -190 -125q-140 0 -195 101l39 32q33 -44 69.5 -60.5t86.5 -18.5q47 0 84.5 22t50.5 64q8 28 1.5 53t-28.5 45t-63 26.5t-102 -2.5l-2 2l26 146q-197 19 -328 158.5t-131 351.5z" />
<glyph unicode="&#xe8;" horiz-adv-x="1206" d="M106 504q0 229 143 374.5t359 145.5q84 0 161 -19t145 -62t116 -105.5t70.5 -156t11.5 -206.5h-944q11 -139 76.5 -237t159.5 -142.5t206 -44.5t222.5 47t168.5 127l48 -35q-69 -96 -189 -147t-250 -51q-101 0 -192 34.5t-160.5 98.5t-110.5 162t-41 217zM168 532h889 q6 207 -115 320t-334 113q-183 0 -305 -115.5t-135 -317.5zM453 1436h79l156 -238v-6h-61z" />
<glyph unicode="&#xe9;" horiz-adv-x="1206" d="M106 504q0 229 143 374.5t359 145.5q84 0 161 -19t145 -62t116 -105.5t70.5 -156t11.5 -206.5h-944q11 -139 76.5 -237t159.5 -142.5t206 -44.5t222.5 47t168.5 127l48 -35q-69 -96 -189 -147t-250 -51q-101 0 -192 34.5t-160.5 98.5t-110.5 162t-41 217zM168 532h889 q6 207 -115 320t-334 113q-183 0 -305 -115.5t-135 -317.5zM573 1192v6l156 238h80l-174 -244h-62z" />
<glyph unicode="&#xea;" horiz-adv-x="1206" d="M106 504q0 229 143 374.5t359 145.5q84 0 161 -19t145 -62t116 -105.5t70.5 -156t11.5 -206.5h-944q11 -139 76.5 -237t159.5 -142.5t206 -44.5t222.5 47t168.5 127l48 -35q-69 -96 -189 -147t-250 -51q-101 0 -192 34.5t-160.5 98.5t-110.5 162t-41 217zM168 532h889 q6 207 -115 320t-334 113q-183 0 -305 -115.5t-135 -317.5zM328 1169v7l268 254h63l267 -254v-7h-66l-233 215l-232 -215h-67z" />
<glyph unicode="&#xeb;" horiz-adv-x="1206" d="M106 504q0 229 143 374.5t359 145.5q84 0 161 -19t145 -62t116 -105.5t70.5 -156t11.5 -206.5h-944q11 -139 76.5 -237t159.5 -142.5t206 -44.5t222.5 47t168.5 127l48 -35q-69 -96 -189 -147t-250 -51q-101 0 -192 34.5t-160.5 98.5t-110.5 162t-41 217zM168 532h889 q6 207 -115 320t-334 113q-183 0 -305 -115.5t-135 -317.5zM377 1348q0 35 27.5 49.5t55 0t27.5 -49.5q0 -34 -27.5 -48t-55 0t-27.5 48zM780 1348q0 26 17.5 41t38 15t38 -15t17.5 -41q0 -34 -27.5 -48t-55.5 0t-28 48z" />
<glyph unicode="&#xec;" horiz-adv-x="407" d="M35 1432h71l140 -234v-6h-56zM174 0v1026h59v-1026h-59z" />
<glyph unicode="&#xed;" horiz-adv-x="407" d="M162 1192v6l137 234h68l-150 -240h-55zM174 0v1026h59v-1026h-59z" />
<glyph unicode="&#xee;" horiz-adv-x="407" d="M-10 1159v8l196 267h45l197 -267v-8h-61l-156 221l-166 -221h-55zM174 0v1026h59v-1026h-59z" />
<glyph unicode="&#xef;" horiz-adv-x="407" d="M37 1401q0 32 25.5 45.5t51 0t25.5 -45.5t-25.5 -45.5t-51 0t-25.5 45.5zM174 0v1026h59v-1026h-59zM291 1401q0 32 25.5 45.5t51 0t25.5 -45.5t-25.5 -45.5t-51 0t-25.5 45.5z" />
<glyph unicode="&#xf0;" horiz-adv-x="1259" d="M106 492q0 99 33 190t95.5 165.5t164 119t228.5 45.5q145 0 262 -69t174 -181q-45 147 -137.5 271t-218.5 212l-86 -131l-43 29l84 131q-102 64 -213 102l24 56q112 -45 219 -109l88 135l45 -28l-88 -138q401 -275 410 -770q5 -240 -138 -389t-384 -149q-126 0 -227 43 t-163.5 115.5t-95.5 162t-33 187.5zM168 494q0 -91 29.5 -171.5t85 -143t144 -99.5t198.5 -37t199.5 38.5t145.5 103t85.5 144t29.5 165.5q0 68 -18 134t-56 124.5t-91.5 103t-129.5 70.5t-165 26q-110 0 -198.5 -39t-144 -104t-85 -146t-29.5 -169z" />
<glyph unicode="&#xf1;" horiz-adv-x="1230" d="M174 0v1012h62l-3 -230q57 124 168 185t232 63q208 0 322 -114.5t114 -319.5v-596h-61v594q0 185 -99 282t-276 95q-166 -2 -281.5 -116.5t-115.5 -279.5v-575h-62zM395 1335q21 78 76 101t137 -19l86 -47q55 -30 90.5 -17.5t53.5 72.5l43 -16q-21 -81 -76 -105.5 t-137 17.5l-86 47q-112 61 -144 -49z" />
<glyph unicode="&#xf2;" horiz-adv-x="1239" d="M106 504q0 120 41.5 220.5t112.5 166t164 101.5t197 36q138 0 254 -62.5t187 -183.5t71 -278q0 -120 -42 -219t-113 -163t-164 -99t-196 -35t-195 35t-163 99t-112.5 163t-41.5 219zM168 504q0 -140 63 -245.5t164 -158.5t223 -53q123 0 224.5 53t165 158.5t63.5 245.5 q0 210 -131 337.5t-322 127.5q-121 0 -222.5 -55t-164.5 -162.5t-63 -247.5zM442 1436h80l156 -238v-6h-62z" />
<glyph unicode="&#xf3;" horiz-adv-x="1239" d="M106 504q0 120 41.5 220.5t112.5 166t164 101.5t197 36q138 0 254 -62.5t187 -183.5t71 -278q0 -120 -42 -219t-113 -163t-164 -99t-196 -35t-195 35t-163 99t-112.5 163t-41.5 219zM168 504q0 -140 63 -245.5t164 -158.5t223 -53q123 0 224.5 53t165 158.5t63.5 245.5 q0 210 -131 337.5t-322 127.5q-121 0 -222.5 -55t-164.5 -162.5t-63 -247.5zM561 1192v6l156 238h80l-174 -244h-62z" />
<glyph unicode="&#xf4;" horiz-adv-x="1239" d="M106 504q0 120 41.5 220.5t112.5 166t164 101.5t197 36q138 0 254 -62.5t187 -183.5t71 -278q0 -120 -42 -219t-113 -163t-164 -99t-196 -35t-195 35t-163 99t-112.5 163t-41.5 219zM168 504q0 -140 63 -245.5t164 -158.5t223 -53q123 0 224.5 53t165 158.5t63.5 245.5 q0 210 -131 337.5t-322 127.5q-121 0 -222.5 -55t-164.5 -162.5t-63 -247.5zM338 1165v9l254 256h61l252 -256v-9h-63l-221 219l-218 -219h-65z" />
<glyph unicode="&#xf5;" horiz-adv-x="1239" d="M106 504q0 120 41.5 220.5t112.5 166t164 101.5t197 36q138 0 254 -62.5t187 -183.5t71 -278q0 -120 -42 -219t-113 -163t-164 -99t-196 -35t-195 35t-163 99t-112.5 163t-41.5 219zM168 504q0 -140 63 -245.5t164 -158.5t223 -53q123 0 224.5 53t165 158.5t63.5 245.5 q0 210 -131 337.5t-322 127.5q-121 0 -222.5 -55t-164.5 -162.5t-63 -247.5zM385 1311q21 78 76 101t137 -19l86 -47q55 -30 90 -17.5t53 72.5l43 -17q-21 -81 -76 -105.5t-137 17.5l-86 47q-111 60 -143 -49z" />
<glyph unicode="&#xf6;" horiz-adv-x="1239" d="M106 504q0 120 41.5 220.5t112.5 166t164 101.5t197 36q138 0 254 -62.5t187 -183.5t71 -278q0 -120 -42 -219t-113 -163t-164 -99t-196 -35t-195 35t-163 99t-112.5 163t-41.5 219zM168 504q0 -140 63 -245.5t164 -158.5t223 -53q123 0 224.5 53t165 158.5t63.5 245.5 q0 210 -131 337.5t-322 127.5q-121 0 -222.5 -55t-164.5 -162.5t-63 -247.5zM391 1376q0 32 25.5 45.5t51.5 0t26 -45.5q0 -24 -16 -37.5t-35.5 -13.5t-35.5 13.5t-16 37.5zM766 1376q0 32 25.5 45.5t51 0t25.5 -45.5t-25.5 -45.5t-51 0t-25.5 45.5z" />
<glyph unicode="&#xf7;" horiz-adv-x="1089" d="M164 659h762v64h-762v-64zM481 389q0 28 19 44.5t42.5 16.5t42.5 -16.5t19 -44.5t-19 -44.5t-42.5 -16.5t-42.5 16.5t-19 44.5zM481 979q0 28 19 44.5t42.5 16.5t42.5 -16.5t19 -44.5t-19 -44.5t-42.5 -16.5t-42.5 16.5t-19 44.5z" />
<glyph unicode="&#xf8;" horiz-adv-x="1236" d="M109 504q0 160 71 281.5t186 183t255 61.5q136 0 251 -59l76 127h72l-96 -162q95 -68 150.5 -179.5t55.5 -252.5q0 -159 -71.5 -278.5t-186.5 -178.5t-254 -59q-137 0 -235 49l-86 -141h-70l105 172q-104 65 -163.5 177t-59.5 259zM168 504q0 -130 51.5 -228t142.5 -157 l476 799q-104 51 -220 51q-121 0 -222.5 -55t-164.5 -162.5t-63 -247.5zM418 94q83 -41 200 -41q123 0 224.5 51.5t165 155.5t63.5 244q0 124 -47.5 222t-132.5 161z" />
<glyph unicode="&#xf9;" horiz-adv-x="1230" d="M162 416v596h61v-594q0 -185 99 -282t276 -95q166 2 281.5 116t115.5 279v576h62v-1012h-62l2 229q-39 -85 -108 -142t-141.5 -80.5t-149.5 -24.5q-208 0 -322 114.5t-114 319.5zM451 1436h79l156 -238v-6h-61z" />
<glyph unicode="&#xfa;" horiz-adv-x="1230" d="M162 416v596h61v-594q0 -185 99 -282t276 -95q166 2 281.5 116t115.5 279v576h62v-1012h-62l2 229q-39 -85 -108 -142t-141.5 -80.5t-149.5 -24.5q-208 0 -322 114.5t-114 319.5zM549 1192v6l156 238h79l-174 -244h-61z" />
<glyph unicode="&#xfb;" horiz-adv-x="1230" d="M162 416v596h61v-594q0 -185 99 -282t276 -95q166 2 281.5 116t115.5 279v576h62v-1012h-62l2 229q-39 -85 -108 -142t-141.5 -80.5t-149.5 -24.5q-208 0 -322 114.5t-114 319.5zM309 1176v8l271 258h65l270 -258v-8h-67l-238 221l-233 -221h-68z" />
<glyph unicode="&#xfc;" horiz-adv-x="1230" d="M162 416v596h61v-594q0 -185 99 -282t276 -95q166 2 281.5 116t115.5 279v576h62v-1012h-62l2 229q-39 -85 -108 -142t-141.5 -80.5t-149.5 -24.5q-208 0 -322 114.5t-114 319.5zM375 1378q0 33 26.5 46.5t53 0t26.5 -46.5q0 -34 -26.5 -48t-53 0t-26.5 48zM768 1378 q0 33 26.5 46.5t53 0t26.5 -46.5q0 -34 -26.5 -48t-53 0t-26.5 48z" />
<glyph unicode="&#xfd;" horiz-adv-x="1083" d="M92 1012h68l377 -936l393 936h69l-645 -1508h-67l215 508zM465 1190v6l156 238h79l-174 -244h-61z" />
<glyph unicode="&#xfe;" horiz-adv-x="1294" d="M174 -422v1854h59v-684q63 127 185 201.5t282 74.5q102 -5 190 -41.5t154 -101t104 -161t38 -214.5q0 -164 -70 -284t-185 -179t-259 -59q-143 0 -258.5 70.5t-180.5 203.5v-680h-59zM236 504q0 -201 126.5 -331t315.5 -130q195 0 319.5 120t124.5 343q0 114 -34.5 202.5 t-95 144t-140.5 84t-174 28.5q-191 0 -316.5 -129.5t-125.5 -331.5z" />
<glyph unicode="&#xff;" horiz-adv-x="1083" d="M92 1012h68l377 -936l393 936h69l-645 -1508h-67l215 508zM285 1368q0 31 26.5 44t53 0t26.5 -44t-26.5 -44t-53 0t-26.5 44zM676 1368q0 31 26.5 44t53 0t26.5 -44t-26.5 -44t-53 0t-26.5 44z" />
<glyph unicode="&#x152;" horiz-adv-x="1914" d="M121 717q0 150 45.5 280t133 230t227 157.5t315.5 57.5q79 0 123 -8h796v-56h-745v-610h704v-59h-704v-654h792v-55h-847q-59 -6 -119 -6q-174 0 -313 57.5t-227 157.5t-134.5 229.5t-46.5 278.5zM186 717q2 -143 44.5 -263t122.5 -210t205 -140.5t282 -50.5q39 0 121 4 v1325q-82 4 -119 4q-159 0 -286 -51.5t-207 -142.5t-122 -212t-41 -263z" />
<glyph unicode="&#x153;" horiz-adv-x="2164" d="M106 504q0 120 41.5 220.5t112.5 166t164 101.5t197 36q165 0 296 -91.5t181 -250.5q50 156 175.5 247t293.5 91q84 0 161 -19t145 -62t116 -105.5t70.5 -156t11.5 -206.5h-945q8 -105 48 -187.5t101 -133.5t136 -77t158 -26q112 0 222.5 47t168.5 127l47 -35 q-69 -96 -189 -147t-249 -51q-164 0 -292 86t-179 241q-51 -157 -182 -244t-298 -87q-103 0 -195 35t-163 99t-112.5 163t-41.5 219zM168 504q0 -140 63 -245.5t164 -158.5t223 -53q123 0 224.5 53t165 158.5t63.5 245.5q0 210 -131 337.5t-322 127.5q-121 0 -222.5 -55 t-164.5 -162.5t-63 -247.5zM1126 532h889q6 207 -114.5 320t-333.5 113q-183 0 -305.5 -115.5t-135.5 -317.5z" />
<glyph unicode="&#x178;" horiz-adv-x="1331" d="M70 1434h77l519 -803l516 803h78l-562 -865v-569h-65v569zM399 1628q0 36 29 50.5t57.5 0t28.5 -50.5t-29 -50.5t-57.5 0t-28.5 50.5zM821 1628q0 36 28.5 50.5t57.5 0t29 -50.5t-29 -50.5t-57.5 0t-28.5 50.5z" />
<glyph unicode="&#x2c6;" horiz-adv-x="860" d="M86 1153v8l285 269h67l285 -269v-8h-72l-248 229l-245 -229h-72z" />
<glyph unicode="&#x2dc;" horiz-adv-x="628" d="M61 1335q21 78 76 101t137 -19l86 -47q55 -30 90.5 -17.5t53.5 72.5l43 -16q-21 -81 -76 -105.5t-137 17.5l-86 47q-112 61 -144 -49z" />
<glyph unicode="&#x2000;" horiz-adv-x="918" />
<glyph unicode="&#x2001;" horiz-adv-x="1837" />
<glyph unicode="&#x2002;" horiz-adv-x="918" />
<glyph unicode="&#x2003;" horiz-adv-x="1837" />
<glyph unicode="&#x2004;" horiz-adv-x="612" />
<glyph unicode="&#x2005;" horiz-adv-x="459" />
<glyph unicode="&#x2006;" horiz-adv-x="306" />
<glyph unicode="&#x2007;" horiz-adv-x="306" />
<glyph unicode="&#x2008;" horiz-adv-x="229" />
<glyph unicode="&#x2009;" horiz-adv-x="367" />
<glyph unicode="&#x200a;" horiz-adv-x="102" />
<glyph unicode="&#x2010;" horiz-adv-x="1017" d="M156 559v62h706v-62h-706z" />
<glyph unicode="&#x2011;" horiz-adv-x="1017" d="M156 559v62h706v-62h-706z" />
<glyph unicode="&#x2012;" horiz-adv-x="1017" d="M156 559v62h706v-62h-706z" />
<glyph unicode="&#x2013;" horiz-adv-x="1212" d="M156 559v62h901v-62h-901z" />
<glyph unicode="&#x2014;" horiz-adv-x="1437" d="M156 559v62h1126v-62h-1126z" />
<glyph unicode="&#x2018;" horiz-adv-x="395" d="M127 1133l102 303h60l-90 -303h-72z" />
<glyph unicode="&#x2019;" horiz-adv-x="393" d="M129 1133l90 303h72l-103 -303h-59z" />
<glyph unicode="&#x201a;" horiz-adv-x="413" d="M88 -215l90 317h72l-109 -317h-53z" />
<glyph unicode="&#x201c;" horiz-adv-x="612" d="M127 1133l102 303h60l-90 -303h-72zM344 1133l102 303h60l-90 -303h-72z" />
<glyph unicode="&#x201d;" horiz-adv-x="610" d="M129 1133l90 303h72l-103 -303h-59zM346 1133l90 303h72l-102 -303h-60z" />
<glyph unicode="&#x201e;" horiz-adv-x="620" d="M88 -215l90 317h72l-109 -317h-53zM295 -215l90 317h72l-109 -317h-53z" />
<glyph unicode="&#x2022;" horiz-adv-x="751" d="M203 588q0 77 50 124.5t126 47.5q72 0 121 -48t49 -124q0 -75 -49 -122.5t-121 -47.5q-76 0 -126 47t-50 123z" />
<glyph unicode="&#x2026;" horiz-adv-x="983" d="M154 45q0 35 28 49.5t56 0t28 -49.5q0 -36 -28 -50.5t-56 0t-28 50.5zM438 45q0 26 17.5 41t39 15t39 -15t17.5 -41q0 -36 -28.5 -50.5t-56.5 0t-28 50.5zM717 45q0 35 28 49.5t56 0t28 -49.5q0 -36 -28 -50.5t-56 0t-28 50.5z" />
<glyph unicode="&#x202f;" horiz-adv-x="367" />
<glyph unicode="&#x2039;" horiz-adv-x="577" d="M111 614l282 447h68l-275 -447l275 -450h-68z" />
<glyph unicode="&#x203a;" horiz-adv-x="573" d="M117 154l274 448l-274 449h67l281 -449l-281 -448h-67z" />
<glyph unicode="&#x205f;" horiz-adv-x="459" />
<glyph unicode="&#x20ac;" horiz-adv-x="1282" d="M90 553v61h141q-4 62 -4 95q0 63 4 94h-141v61h148q16 98 52 184t97 160t142 127.5t190.5 84t238.5 30.5q91 0 172 -20l-10 -60q-84 19 -162 19q-144 0 -261 -40t-196 -111.5t-128 -165.5t-68 -208h596l-16 -61h-588q-4 -31 -4 -92q0 -51 6 -97h571l-18 -61h-545 q21 -110 70 -200t127 -159t191.5 -107t254.5 -38q109 0 221 41l15 -59q-119 -43 -236 -43q-156 0 -283 43t-213 121t-139.5 178.5t-74.5 222.5h-150z" />
<glyph unicode="&#x2122;" horiz-adv-x="1599" d="M127 1380v54h543v-54h-246v-514h-57v514h-240zM811 866v568h51l254 -334l262 334h41v-568h-61v449l-238 -295h-12l-238 305v-459h-59z" />
<glyph unicode="&#x25fc;" horiz-adv-x="1013" d="M0 0v1014h1014v-1014h-1014z" />
<glyph unicode="&#xfb01;" horiz-adv-x="1077" d="M72 950v56h211v96q0 58 7.5 105t27 91t50.5 73.5t81.5 47t117.5 17.5q78 0 144 -37l-25 -56q-55 31 -129 31q-213 0 -213 -272v-96h324v-56h-324v-950h-61v950h-211zM815 1354q0 36 29.5 50.5t58.5 0t29 -50.5q0 -37 -29 -52t-58.5 0t-29.5 52zM840 0v1016h63v-1016h-63z " />
<glyph unicode="&#xfb02;" horiz-adv-x="1062" d="M72 950v56h211v96q0 58 7.5 105t27 91t50.5 73.5t81.5 47t117.5 17.5q75 0 140 -41l-29 -49q-53 30 -121 30q-213 0 -213 -274v-96h320v-56h-320v-950h-61v950h-211zM809 0v1434h63v-1434h-63z" />
</font>
</defs>
</svg>
