<?xml version="1.0" encoding="UTF-8" standalone="no"?>
<!-- Created with Inkscape (http://www.inkscape.org/) -->

<svg
   xmlns:dc="http://purl.org/dc/elements/1.1/"
   xmlns:cc="http://creativecommons.org/ns#"
   xmlns:rdf="http://www.w3.org/1999/02/22-rdf-syntax-ns#"
   xmlns:svg="http://www.w3.org/2000/svg"
   xmlns="http://www.w3.org/2000/svg"
   version="1.1"
   width="103.478"
   height="74.324997"
   id="svg3092">
  <defs
     id="defs3094" />
  <metadata
     id="metadata3097">
    <rdf:RDF>
      <cc:Work
         rdf:about="">
        <dc:format>image/svg+xml</dc:format>
        <dc:type
           rdf:resource="http://purl.org/dc/dcmitype/StillImage" />
        <dc:title></dc:title>
      </cc:Work>
    </rdf:RDF>
  </metadata>
  <g
     transform="translate(-579.68957,-429.4854)"
     id="layer1">
    <path
       d="m 682.78857,450.3124 c 0.243,-0.572 0.379,-1.201 0.379,-1.861 0,-1.564 -0.758,-2.947 -1.924,-3.814 l 0.011,-0.019 c -13.982,-9.546 -30.88,-15.133 -49.087,-15.133 -19.704,0 -37.878,6.54 -52.478,17.564 l 31.872,56.761 h 38.436 c 1.751,0 3.276,-0.949 4.102,-2.358 l 28.708,-51.128 -0.019,-0.012 z"
       id="path61"
       style="fill:#e5ffe3" />
    <g
       transform="translate(555.12757,404.9814)"
       id="g69">
      <g
         id="g71">
        <path
           d="m 73.959,59.561 h 8.865 l -0.223,-2.843 c -0.056,-0.614 0.223,-0.837 0.782,-0.837 h 3.122 c 0.558,0 0.836,0.279 0.836,0.837 v 9.869 c 0,0.558 -0.278,0.837 -0.836,0.837 h -3.122 c -0.558,0 -0.837,-0.223 -0.782,-0.837 l 0.167,-2.676 H 73.959 V 76.96 h 5.743 c 0.557,0 0.836,0.278 0.836,0.836 v 2.733 c 0,0.613 -0.279,0.836 -0.836,0.836 H 64.758 c -0.557,0 -0.836,-0.279 -0.836,-0.836 v -2.733 c 0,-0.613 0.279,-0.836 0.836,-0.836 h 2.956 V 48.02 h -2.956 c -0.557,0 -0.836,-0.279 -0.836,-0.836 V 44.34 c 0,-0.613 0.279,-0.836 0.836,-0.836 H 89.85 c 0.558,0 0.837,0.279 0.837,0.836 v 7.472 c 0,0.613 -0.279,0.836 -0.837,0.836 h -3.122 c -0.558,0 -0.836,-0.223 -0.78,-0.836 L 86.17,47.964 H 73.959 v 11.597 z"
           id="path73"
           style="fill:#d26368" />
      </g>
      <g
         id="g75">
        <path
           d="m 71.95,58.027 h 8.865 l -0.223,-2.843 c -0.056,-0.614 0.223,-0.837 0.782,-0.837 h 3.122 c 0.558,0 0.836,0.279 0.836,0.837 v 9.869 c 0,0.558 -0.278,0.837 -0.836,0.837 h -3.122 c -0.558,0 -0.837,-0.223 -0.782,-0.837 l 0.167,-2.676 H 71.95 v 13.048 h 5.743 c 0.557,0 0.836,0.278 0.836,0.836 v 2.733 c 0,0.613 -0.279,0.836 -0.836,0.836 H 62.749 c -0.557,0 -0.836,-0.279 -0.836,-0.836 v -2.733 c 0,-0.613 0.279,-0.836 0.836,-0.836 h 2.956 v -28.94 h -2.956 c -0.557,0 -0.836,-0.279 -0.836,-0.836 v -2.844 c 0,-0.613 0.279,-0.836 0.836,-0.836 h 25.093 c 0.558,0 0.837,0.279 0.837,0.836 v 7.472 c 0,0.613 -0.279,0.836 -0.837,0.836 H 84.72 c -0.558,0 -0.836,-0.223 -0.78,-0.836 l 0.222,-3.848 H 71.95 v 11.598 z"
           id="path77"
           style="fill:#ff7074" />
      </g>
    </g>
  </g>
</svg>
