<?xml version="1.0" encoding="UTF-8" standalone="no"?>
<!-- Created with Inkscape (http://www.inkscape.org/) -->

<svg
   xmlns:dc="http://purl.org/dc/elements/1.1/"
   xmlns:cc="http://creativecommons.org/ns#"
   xmlns:rdf="http://www.w3.org/1999/02/22-rdf-syntax-ns#"
   xmlns:svg="http://www.w3.org/2000/svg"
   xmlns="http://www.w3.org/2000/svg"
   xmlns:sodipodi="http://sodipodi.sourceforge.net/DTD/sodipodi-0.dtd"
   xmlns:inkscape="http://www.inkscape.org/namespaces/inkscape"
   width="306.88599"
   height="65.407997"
   id="svg3086"
   version="1.1"
   inkscape:version="0.48.4 r"
   sodipodi:docname="New document 2">
  <defs
     id="defs3088" />
  <sodipodi:namedview
     id="base"
     pagecolor="#ffffff"
     bordercolor="#666666"
     borderopacity="1.0"
     inkscape:pageopacity="0.0"
     inkscape:pageshadow="2"
     inkscape:zoom="3.959798"
     inkscape:cx="156.37735"
     inkscape:cy="10.840999"
     inkscape:document-units="px"
     inkscape:current-layer="layer1"
     showgrid="false"
     fit-margin-top="0"
     fit-margin-left="0"
     fit-margin-right="0"
     fit-margin-bottom="0"
     inkscape:window-width="1858"
     inkscape:window-height="1057"
     inkscape:window-x="54"
     inkscape:window-y="-8"
     inkscape:window-maximized="1" />
  <metadata
     id="metadata3091">
    <rdf:RDF>
      <cc:Work
         rdf:about="">
        <dc:format>image/svg+xml</dc:format>
        <dc:type
           rdf:resource="http://purl.org/dc/dcmitype/StillImage" />
        <dc:title></dc:title>
      </cc:Work>
    </rdf:RDF>
  </metadata>
  <g
     inkscape:label="Layer 1"
     inkscape:groupmode="layer"
     id="layer1"
     transform="translate(-252.63832,-477.20627)">
    <g
       transform="translate(84.581323,28.764266)"
       id="g55">
      <path
         style="fill:#d26368"
         inkscape:connector-curvature="0"
         d="m 186.045,480.292 h 13.239 l -0.333,-4.245 c -0.083,-0.917 0.333,-1.25 1.167,-1.25 h 4.662 c 0.834,0 1.248,0.417 1.248,1.25 v 14.737 c 0,0.834 -0.415,1.25 -1.248,1.25 h -4.662 c -0.834,0 -1.25,-0.333 -1.167,-1.25 l 0.25,-3.995 h -13.155 v 19.485 h 8.576 c 0.832,0 1.248,0.415 1.248,1.248 v 4.081 c 0,0.915 -0.417,1.248 -1.248,1.248 h -22.317 c -0.832,0 -1.248,-0.417 -1.248,-1.248 v -4.081 c 0,-0.915 0.417,-1.248 1.248,-1.248 h 4.414 v -43.217 h -4.414 c -0.832,0 -1.248,-0.417 -1.248,-1.248 v -4.247 c 0,-0.915 0.417,-1.248 1.248,-1.248 h 37.471 c 0.834,0 1.25,0.417 1.25,1.248 v 11.159 c 0,0.915 -0.417,1.248 -1.25,1.248 h -4.662 c -0.834,0 -1.248,-0.333 -1.165,-1.248 l 0.331,-5.746 h -18.234 v 17.317 z"
         id="path57" />
      <path
         style="fill:#d26368"
         inkscape:connector-curvature="0"
         d="m 223.939,492.201 c 0,-10.992 5.996,-21.483 19.07,-21.483 12.738,0 16.236,10.408 16.236,19.401 0,0.748 0,1.832 -0.081,2.83 -0.083,1 -0.25,1.332 -1.501,1.332 h -24.481 c 0.5,7.078 2.749,12.574 11.742,12.574 3.745,0 6.411,-0.832 9.408,-2.163 0.834,-0.417 1.332,-0.167 1.665,0.665 l 1.582,3.831 c 0.333,0.834 0,1.248 -0.748,1.665 -2.916,1.582 -7.995,2.997 -13.739,2.997 -13.823,-10e-4 -19.153,-8.994 -19.153,-21.649 z m 26.563,-4.081 c 0.083,-4.996 -1.332,-10.408 -8.16,-10.408 -7.245,0 -8.993,5.994 -9.16,10.408 h 17.32 z"
         id="path59" />
      <path
         style="fill:#d26368"
         inkscape:connector-curvature="0"
         d="m 272.992,492.201 c 0,-10.992 5.996,-21.483 19.07,-21.483 12.738,0 16.236,10.408 16.236,19.401 0,0.748 0,1.832 -0.081,2.83 -0.083,1 -0.25,1.332 -1.501,1.332 h -24.48 c 0.5,7.078 2.749,12.574 11.742,12.574 3.745,0 6.411,-0.832 9.408,-2.163 0.834,-0.417 1.334,-0.167 1.665,0.665 l 1.582,3.831 c 0.333,0.834 0,1.248 -0.748,1.665 -2.916,1.582 -7.995,2.997 -13.739,2.997 -13.825,-10e-4 -19.154,-8.994 -19.154,-21.649 z m 26.562,-4.081 c 0.083,-4.996 -1.332,-10.408 -8.159,-10.408 -7.245,0 -8.993,5.994 -9.16,10.408 h 17.319 z"
         id="path61" />
      <path
         style="fill:#d26368"
         inkscape:connector-curvature="0"
         d="m 336.283,506.273 h 5.246 c 0.834,0 1.25,0.415 1.25,1.248 v 4.081 c 0,0.915 -0.417,1.248 -1.25,1.248 h -19.816 c -0.834,0 -1.25,-0.417 -1.25,-1.248 v -4.081 c 0,-0.915 0.417,-1.248 1.25,-1.248 h 5.246 V 457.56 h -4.498 c -0.832,0 -1.248,-0.417 -1.248,-1.248 v -4.331 c 0,-0.915 0.333,-1.248 1.248,-1.248 h 12.574 c 0.834,0 1.248,0.333 1.248,1.248 v 54.292 z"
         id="path63" />
      <path
         style="fill:#d26368"
         inkscape:connector-curvature="0"
         d="m 368.515,499.445 c 0,4.662 0.665,7.409 4.996,7.409 2.165,0 3.581,-0.498 5.079,-1.165 0.667,-0.25 0.998,-0.167 1.332,0.667 l 1.499,3.831 c 0.333,0.832 0,1.248 -0.748,1.665 -2.332,1.165 -6.33,1.997 -9.493,1.997 -11.99,0 -11.99,-8.076 -11.99,-15.321 V 478.46 h -4.746 c -0.834,0 -1.25,-0.415 -1.25,-1.248 v -4.331 c 0,-0.915 0.417,-1.248 1.25,-1.248 h 4.746 v -11.24 c 0,-0.834 0.333,-1.25 1.248,-1.25 h 6.828 c 0.834,0 1.25,0.417 1.25,1.25 v 11.24 h 8.41 c 0.832,0 1.248,0.417 1.248,1.248 v 4.331 c 0,0.917 -0.417,1.248 -1.248,1.248 h -8.41 v 20.985 z"
         id="path65" />
      <path
         style="fill:#d26368"
         inkscape:connector-curvature="0"
         d="m 393.916,492.201 c 0,-10.992 5.996,-21.483 19.07,-21.483 12.738,0 16.236,10.408 16.236,19.401 0,0.748 0,1.832 -0.081,2.83 -0.083,1 -0.25,1.332 -1.501,1.332 h -24.48 c 0.5,7.078 2.749,12.574 11.742,12.574 3.745,0 6.411,-0.832 9.408,-2.163 0.834,-0.417 1.332,-0.167 1.665,0.665 l 1.582,3.831 c 0.333,0.834 0,1.248 -0.748,1.665 -2.916,1.582 -7.995,2.997 -13.739,2.997 -13.825,-10e-4 -19.154,-8.994 -19.154,-21.649 z m 26.563,-4.081 c 0.083,-4.996 -1.332,-10.408 -8.159,-10.408 -7.245,0 -8.993,5.994 -9.16,10.408 h 17.319 z"
         id="path67" />
      <path
         style="fill:#d26368"
         inkscape:connector-curvature="0"
         d="m 473.945,471.382 c 0.915,0.333 0.998,0.667 0.998,1.499 v 11.242 c 0,0.917 -0.415,1.248 -1.248,1.248 h -5.413 c -0.832,0 -1.248,-0.331 -1.165,-1.248 l 0.333,-4.829 c -0.417,-0.083 -1,-0.083 -1.417,-0.083 -4.996,0 -8.826,4.329 -8.826,11.49 v 15.573 h 9.16 c 0.834,0 1.248,0.415 1.248,1.248 v 4.081 c 0,0.915 -0.415,1.248 -1.248,1.248 h -22.899 c -0.832,0 -1.248,-0.417 -1.248,-1.248 v -4.081 c 0,-0.915 0.417,-1.248 1.248,-1.248 h 4.414 V 478.46 h -4.498 c -0.832,0 -1.248,-0.415 -1.248,-1.248 v -4.331 c 0,-0.915 0.333,-1.248 1.248,-1.248 h 10.992 c 0.832,0 1.248,0.417 1.415,1.248 l 0.917,5.913 c 1.665,-3.997 5.911,-8.076 11.907,-8.076 1.833,-0.001 4.58,0.414 5.33,0.664 z"
         id="path69" />
    </g>
    <g
       transform="translate(84.581323,28.764266)"
       id="g71">
      <path
         style="fill:#e5ffe3"
         inkscape:connector-curvature="0"
         d="m 183.045,478.001 h 13.239 l -0.333,-4.245 c -0.083,-0.917 0.333,-1.25 1.167,-1.25 h 4.662 c 0.834,0 1.248,0.417 1.248,1.25 v 14.737 c 0,0.834 -0.415,1.25 -1.248,1.25 h -4.662 c -0.834,0 -1.25,-0.333 -1.167,-1.25 l 0.25,-3.995 h -13.155 v 19.485 h 8.576 c 0.832,0 1.248,0.415 1.248,1.248 v 4.081 c 0,0.915 -0.417,1.248 -1.248,1.248 h -22.317 c -0.832,0 -1.248,-0.417 -1.248,-1.248 v -4.081 c 0,-0.915 0.417,-1.248 1.248,-1.248 h 4.414 v -43.217 h -4.414 c -0.832,0 -1.248,-0.417 -1.248,-1.248 v -4.247 c 0,-0.915 0.417,-1.248 1.248,-1.248 h 37.471 c 0.834,0 1.25,0.417 1.25,1.248 v 11.159 c 0,0.915 -0.417,1.248 -1.25,1.248 h -4.662 c -0.834,0 -1.248,-0.333 -1.165,-1.248 l 0.331,-5.746 h -18.234 v 17.317 z"
         id="path73" />
      <path
         style="fill:#e5ffe3"
         inkscape:connector-curvature="0"
         d="m 220.939,489.91 c 0,-10.992 5.996,-21.483 19.07,-21.483 12.738,0 16.236,10.408 16.236,19.401 0,0.748 0,1.832 -0.081,2.83 -0.083,1 -0.25,1.332 -1.501,1.332 h -24.48 c 0.5,7.078 2.749,12.574 11.742,12.574 3.745,0 6.411,-0.832 9.408,-2.163 0.834,-0.417 1.332,-0.167 1.665,0.665 l 1.582,3.831 c 0.333,0.834 0,1.248 -0.748,1.665 -2.916,1.582 -7.995,2.997 -13.739,2.997 -13.824,-0.001 -19.154,-8.994 -19.154,-21.649 z m 26.563,-4.081 c 0.083,-4.996 -1.332,-10.408 -8.16,-10.408 -7.245,0 -8.993,5.994 -9.16,10.408 h 17.32 z"
         id="path75" />
      <path
         style="fill:#e5ffe3"
         inkscape:connector-curvature="0"
         d="m 269.992,489.91 c 0,-10.992 5.996,-21.483 19.07,-21.483 12.738,0 16.236,10.408 16.236,19.401 0,0.748 0,1.832 -0.081,2.83 -0.083,1 -0.25,1.332 -1.501,1.332 h -24.48 c 0.5,7.078 2.749,12.574 11.742,12.574 3.745,0 6.411,-0.832 9.408,-2.163 0.834,-0.417 1.334,-0.167 1.665,0.665 l 1.582,3.831 c 0.333,0.834 0,1.248 -0.748,1.665 -2.916,1.582 -7.995,2.997 -13.739,2.997 -13.825,-0.001 -19.154,-8.994 -19.154,-21.649 z m 26.562,-4.081 c 0.083,-4.996 -1.332,-10.408 -8.159,-10.408 -7.245,0 -8.993,5.994 -9.16,10.408 h 17.319 z"
         id="path77" />
      <path
         style="fill:#e5ffe3"
         inkscape:connector-curvature="0"
         d="m 333.283,503.982 h 5.246 c 0.834,0 1.25,0.415 1.25,1.248 v 4.081 c 0,0.915 -0.417,1.248 -1.25,1.248 h -19.816 c -0.834,0 -1.25,-0.417 -1.25,-1.248 v -4.081 c 0,-0.915 0.417,-1.248 1.25,-1.248 h 5.246 v -48.713 h -4.498 c -0.832,0 -1.248,-0.417 -1.248,-1.248 v -4.331 c 0,-0.915 0.333,-1.248 1.248,-1.248 h 12.574 c 0.834,0 1.248,0.333 1.248,1.248 v 54.292 z"
         id="path79" />
      <path
         style="fill:#e5ffe3"
         inkscape:connector-curvature="0"
         d="m 365.515,497.155 c 0,4.662 0.665,7.409 4.996,7.409 2.165,0 3.581,-0.498 5.079,-1.165 0.667,-0.25 0.998,-0.167 1.332,0.667 l 1.499,3.831 c 0.333,0.832 0,1.248 -0.748,1.665 -2.332,1.165 -6.33,1.997 -9.493,1.997 -11.99,0 -11.99,-8.076 -11.99,-15.321 V 476.17 h -4.746 c -0.834,0 -1.25,-0.415 -1.25,-1.248 v -4.331 c 0,-0.915 0.417,-1.248 1.25,-1.248 h 4.746 v -11.24 c 0,-0.834 0.333,-1.25 1.248,-1.25 h 6.828 c 0.834,0 1.25,0.417 1.25,1.25 v 11.24 h 8.41 c 0.832,0 1.248,0.417 1.248,1.248 v 4.331 c 0,0.917 -0.417,1.248 -1.248,1.248 h -8.41 v 20.985 z"
         id="path81" />
      <path
         style="fill:#e5ffe3"
         inkscape:connector-curvature="0"
         d="m 390.916,489.91 c 0,-10.992 5.996,-21.483 19.07,-21.483 12.738,0 16.236,10.408 16.236,19.401 0,0.748 0,1.832 -0.081,2.83 -0.083,1 -0.25,1.332 -1.501,1.332 h -24.48 c 0.5,7.078 2.749,12.574 11.742,12.574 3.745,0 6.411,-0.832 9.408,-2.163 0.834,-0.417 1.332,-0.167 1.665,0.665 l 1.582,3.831 c 0.333,0.834 0,1.248 -0.748,1.665 -2.916,1.582 -7.995,2.997 -13.739,2.997 -13.825,-0.001 -19.154,-8.994 -19.154,-21.649 z m 26.563,-4.081 c 0.083,-4.996 -1.332,-10.408 -8.159,-10.408 -7.245,0 -8.993,5.994 -9.16,10.408 h 17.319 z"
         id="path83" />
      <path
         style="fill:#e5ffe3"
         inkscape:connector-curvature="0"
         d="m 470.945,469.092 c 0.915,0.333 0.998,0.667 0.998,1.499 v 11.242 c 0,0.917 -0.415,1.248 -1.248,1.248 h -5.413 c -0.832,0 -1.248,-0.331 -1.165,-1.248 l 0.333,-4.829 c -0.417,-0.083 -1,-0.083 -1.417,-0.083 -4.996,0 -8.826,4.329 -8.826,11.49 v 15.573 h 9.16 c 0.834,0 1.248,0.415 1.248,1.248 v 4.081 c 0,0.915 -0.415,1.248 -1.248,1.248 h -22.899 c -0.832,0 -1.248,-0.417 -1.248,-1.248 v -4.081 c 0,-0.915 0.417,-1.248 1.248,-1.248 h 4.414 v -27.813 h -4.498 c -0.832,0 -1.248,-0.415 -1.248,-1.248 v -4.331 c 0,-0.915 0.333,-1.248 1.248,-1.248 h 10.992 c 0.832,0 1.248,0.417 1.415,1.248 l 0.917,5.913 c 1.665,-3.997 5.911,-8.076 11.907,-8.076 1.833,-0.002 4.58,0.412 5.33,0.663 z"
         id="path85" />
    </g>
  </g>
</svg>
